<?xml version="1.0" encoding="UTF-8" standalone="no"?>
<!DOCTYPE svg PUBLIC "-//W3C//DTD SVG 1.1//EN"
 "http://www.w3.org/Graphics/SVG/1.1/DTD/svg11.dtd">
<!-- Generated by graphviz version 2.40.1 (20161225.0304)
 -->
<!-- Title: public.settings Pages: 1 -->
<svg width="496pt" height="742pt"
 viewBox="0.00 0.00 496.00 742.00" xmlns="http://www.w3.org/2000/svg" xmlns:xlink="http://www.w3.org/1999/xlink">
<g id="graph0" class="graph" transform="scale(1 1) rotate(0) translate(4 738)">
<title>public.settings</title>
<polygon fill="#ffffff" stroke="transparent" points="-4,4 -4,-738 492,-738 492,4 -4,4"/>
<!-- public.settings -->
<g id="node1" class="node">
<title>public.settings</title>
<polygon fill="#efefef" stroke="transparent" points="99,-652.5 99,-687.5 389,-687.5 389,-652.5 99,-652.5"/>
<polygon fill="none" stroke="#000000" points="99,-652.5 99,-687.5 389,-687.5 389,-652.5 99,-652.5"/>
<text text-anchor="start" x="123.2028" y="-665.3" font-family="Arial Bold" font-size="18.00" fill="#000000">public.settings</text>
<text text-anchor="start" x="237.2292" y="-665.3" font-family="Arial" font-size="14.00" fill="#000000">    </text>
<text text-anchor="start" x="271.434" y="-665.3" font-family="Arial" font-size="14.00" fill="#666666">[BASE TABLE]</text>
<polygon fill="none" stroke="#000000" points="99,-622.5 99,-652.5 389,-652.5 389,-622.5 99,-622.5"/>
<text text-anchor="start" x="106" y="-633.9" font-family="Arial" font-size="14.00" fill="#000000">id </text>
<text text-anchor="start" x="120.7798" y="-633.9" font-family="Arial" font-size="14.00" fill="#666666">[bigint]</text>
<polygon fill="none" stroke="#000000" points="99,-592.5 99,-622.5 389,-622.5 389,-592.5 99,-592.5"/>
<text text-anchor="start" x="106" y="-603.9" font-family="Arial" font-size="14.00" fill="#000000">key </text>
<text text-anchor="start" x="131.6732" y="-603.9" font-family="Arial" font-size="14.00" fill="#666666">[varchar]</text>
<polygon fill="none" stroke="#000000" points="99,-562.5 99,-592.5 389,-592.5 389,-562.5 99,-562.5"/>
<text text-anchor="start" x="106" y="-573.9" font-family="Arial" font-size="14.00" fill="#000000">value </text>
<text text-anchor="start" x="143.345" y="-573.9" font-family="Arial" font-size="14.00" fill="#666666">[jsonb]</text>
<polygon fill="none" stroke="#000000" points="99,-532.5 99,-562.5 389,-562.5 389,-532.5 99,-532.5"/>
<text text-anchor="start" x="106" y="-543.9" font-family="Arial" font-size="14.00" fill="#000000">created_at </text>
<text text-anchor="start" x="176.028" y="-543.9" font-family="Arial" font-size="14.00" fill="#666666">[timestamp(6) without time zone]</text>
<polygon fill="none" stroke="#000000" points="99,-502.5 99,-532.5 389,-532.5 389,-502.5 99,-502.5"/>
<text text-anchor="start" x="105.9117" y="-513.9" font-family="Arial" font-size="14.00" fill="#000000">updated_at </text>
<text text-anchor="start" x="179.8443" y="-513.9" font-family="Arial" font-size="14.00" fill="#666666">[timestamp(6) without time zone]</text>
<polygon fill="none" stroke="#000000" points="99,-472.5 99,-502.5 389,-502.5 389,-472.5 99,-472.5"/>
<text text-anchor="start" x="106" y="-483.9" font-family="Arial" font-size="14.00" fill="#000000">user_id </text>
<text text-anchor="start" x="155.7882" y="-483.9" font-family="Arial" font-size="14.00" fill="#666666">[bigint]</text>
<polygon fill="none" stroke="#000000" stroke-width="3" points="97.5,-471.5 97.5,-689.5 390.5,-689.5 390.5,-471.5 97.5,-471.5"/>
</g>
<!-- public.users -->
<g id="node2" class="node">
<title>public.users</title>
<polygon fill="#efefef" stroke="transparent" points="43,-312.5 43,-347.5 445,-347.5 445,-312.5 43,-312.5"/>
<polygon fill="none" stroke="#000000" points="43,-312.5 43,-347.5 445,-347.5 445,-312.5 43,-312.5"/>
<text text-anchor="start" x="132.2091" y="-325.3" font-family="Arial Bold" font-size="18.00" fill="#000000">public.users</text>
<text text-anchor="start" x="228.2229" y="-325.3" font-family="Arial" font-size="14.00" fill="#000000">    </text>
<text text-anchor="start" x="262.4277" y="-325.3" font-family="Arial" font-size="14.00" fill="#666666">[BASE TABLE]</text>
<polygon fill="none" stroke="#000000" points="43,-282.5 43,-312.5 445,-312.5 445,-282.5 43,-282.5"/>
<text text-anchor="start" x="50" y="-293.9" font-family="Arial" font-size="14.00" fill="#000000">id    </text>
<text text-anchor="start" x="95.094" y="-293.9" font-family="Arial" font-size="14.00" fill="#666666">[bigint]</text>
<polygon fill="none" stroke="#000000" points="43,-252.5 43,-282.5 445,-282.5 445,-252.5 43,-252.5"/>
<text text-anchor="start" x="50" y="-263.9" font-family="Arial" font-size="14.00" fill="#000000">email    </text>
<text text-anchor="start" x="117.6438" y="-263.9" font-family="Arial" font-size="14.00" fill="#666666">[varchar]</text>
<polygon fill="none" stroke="#000000" points="43,-222.5 43,-252.5 445,-252.5 445,-222.5 43,-222.5"/>
<text text-anchor="start" x="50" y="-233.9" font-family="Arial" font-size="14.00" fill="#000000">encrypted_password    </text>
<text text-anchor="start" x="213.3492" y="-233.9" font-family="Arial" font-size="14.00" fill="#666666">[varchar]</text>
<polygon fill="none" stroke="#000000" points="43,-192.5 43,-222.5 445,-222.5 445,-192.5 43,-192.5"/>
<text text-anchor="start" x="50" y="-203.9" font-family="Arial" font-size="14.00" fill="#000000">reset_password_token    </text>
<text text-anchor="start" x="225.0224" y="-203.9" font-family="Arial" font-size="14.00" fill="#666666">[varchar]</text>
<polygon fill="none" stroke="#000000" points="43,-162.5 43,-192.5 445,-192.5 445,-162.5 43,-162.5"/>
<text text-anchor="start" x="49.5302" y="-173.9" font-family="Arial" font-size="14.00" fill="#000000">reset_password_sent_at    </text>
<text text-anchor="start" x="236.2258" y="-173.9" font-family="Arial" font-size="14.00" fill="#666666">[timestamp(6) without time zone]</text>
<polygon fill="none" stroke="#000000" points="43,-132.5 43,-162.5 445,-162.5 445,-132.5 43,-132.5"/>
<text text-anchor="start" x="50" y="-143.9" font-family="Arial" font-size="14.00" fill="#000000">remember_created_at    </text>
<text text-anchor="start" x="221.8976" y="-143.9" font-family="Arial" font-size="14.00" fill="#666666">[timestamp(6) without time zone]</text>
<polygon fill="none" stroke="#000000" points="43,-102.5 43,-132.5 445,-132.5 445,-102.5 43,-102.5"/>
<text text-anchor="start" x="50" y="-113.9" font-family="Arial" font-size="14.00" fill="#000000">created_at    </text>
<text text-anchor="start" x="150.3422" y="-113.9" font-family="Arial" font-size="14.00" fill="#666666">[timestamp(6) without time zone]</text>
<polygon fill="none" stroke="#000000" points="43,-72.5 43,-102.5 445,-102.5 445,-72.5 43,-72.5"/>
<text text-anchor="start" x="50" y="-83.9" font-family="Arial" font-size="14.00" fill="#000000">updated_at    </text>
<text text-anchor="start" x="154.2468" y="-83.9" font-family="Arial" font-size="14.00" fill="#666666">[timestamp(6) without time zone]</text>
<polygon fill="none" stroke="#000000" points="43,-42.5 43,-72.5 445,-72.5 445,-42.5 43,-42.5"/>
<text text-anchor="start" x="50" y="-53.9" font-family="Arial" font-size="14.00" fill="#000000">admin    </text>
<text text-anchor="start" x="122.3198" y="-53.9" font-family="Arial" font-size="14.00" fill="#666666">[boolean]</text>
</g>
<!-- public.settings&#45;&gt;public.users -->
<g id="edge1" class="edge">
<title>public.settings:user_id&#45;&gt;public.users:id</title>
<path fill="none" stroke="#000000" d="M244.6592,-462.057C255.3533,-383.2457 393.2485,-467.8276 445,-391 468.2162,-356.5344 486.5556,-297.5 445,-297.5"/>
<polygon fill="#000000" stroke="#000000" points="244.6301,-462.5199 239.5089,-472.2164 244.3151,-467.5099 244,-472.5 244,-472.5 244,-472.5 244.3151,-467.5099 248.4911,-472.7836 244.6301,-462.5199 244.6301,-462.5199"/>
<text text-anchor="start" x="14.3345" y="-482.5" font-family="Arial" font-size="10.00" fill="#000000">FOREIGN KEY (user_id) REFERENCES users(id)</text>
</g>
</g>
</svg>
