<?xml version="1.0" encoding="UTF-8" standalone="no"?>
<!DOCTYPE svg PUBLIC "-//W3C//DTD SVG 1.1//EN"
 "http://www.w3.org/Graphics/SVG/1.1/DTD/svg11.dtd">
<!-- Generated by graphviz version 2.40.1 (20161225.0304)
 -->
<!-- Title: public.motor_alerts Pages: 1 -->
<svg width="872pt" height="1259pt"
 viewBox="0.00 0.00 872.00 1259.00" xmlns="http://www.w3.org/2000/svg" xmlns:xlink="http://www.w3.org/1999/xlink">
<g id="graph0" class="graph" transform="scale(1 1) rotate(0) translate(4 1255)">
<title>public.motor_alerts</title>
<polygon fill="#ffffff" stroke="transparent" points="-4,4 -4,-1255 868,-1255 868,4 -4,4"/>
<!-- public.motor_alerts -->
<g id="node1" class="node">
<title>public.motor_alerts</title>
<polygon fill="#efefef" stroke="transparent" points="289,-862.5 289,-897.5 582,-897.5 582,-862.5 289,-862.5"/>
<polygon fill="none" stroke="#000000" points="289,-862.5 289,-897.5 582,-897.5 582,-862.5 289,-862.5"/>
<text text-anchor="start" x="295.7083" y="-875.3" font-family="Arial Bold" font-size="18.00" fill="#000000">public.motor_alerts</text>
<text text-anchor="start" x="447.7237" y="-875.3" font-family="Arial" font-size="14.00" fill="#000000">    </text>
<text text-anchor="start" x="481.9285" y="-875.3" font-family="Arial" font-size="14.00" fill="#666666">[BASE TABLE]</text>
<polygon fill="none" stroke="#000000" points="289,-832.5 289,-862.5 582,-862.5 582,-832.5 289,-832.5"/>
<text text-anchor="start" x="296" y="-843.9" font-family="Arial" font-size="14.00" fill="#000000">id </text>
<text text-anchor="start" x="310.7798" y="-843.9" font-family="Arial" font-size="14.00" fill="#666666">[bigint]</text>
<polygon fill="none" stroke="#000000" points="289,-802.5 289,-832.5 582,-832.5 582,-802.5 289,-802.5"/>
<text text-anchor="start" x="296" y="-813.9" font-family="Arial" font-size="14.00" fill="#000000">query_id </text>
<text text-anchor="start" x="353.5708" y="-813.9" font-family="Arial" font-size="14.00" fill="#666666">[bigint]</text>
<polygon fill="none" stroke="#000000" points="289,-772.5 289,-802.5 582,-802.5 582,-772.5 289,-772.5"/>
<text text-anchor="start" x="296" y="-783.9" font-family="Arial" font-size="14.00" fill="#000000">name </text>
<text text-anchor="start" x="334.899" y="-783.9" font-family="Arial" font-size="14.00" fill="#666666">[varchar]</text>
<polygon fill="none" stroke="#000000" points="289,-742.5 289,-772.5 582,-772.5 582,-742.5 289,-742.5"/>
<text text-anchor="start" x="296" y="-753.9" font-family="Arial" font-size="14.00" fill="#000000">description </text>
<text text-anchor="start" x="367.568" y="-753.9" font-family="Arial" font-size="14.00" fill="#666666">[text]</text>
<polygon fill="none" stroke="#000000" points="289,-712.5 289,-742.5 582,-742.5 582,-712.5 289,-712.5"/>
<text text-anchor="start" x="296" y="-723.9" font-family="Arial" font-size="14.00" fill="#000000">to_emails </text>
<text text-anchor="start" x="359.7854" y="-723.9" font-family="Arial" font-size="14.00" fill="#666666">[text]</text>
<polygon fill="none" stroke="#000000" points="289,-682.5 289,-712.5 582,-712.5 582,-682.5 289,-682.5"/>
<text text-anchor="start" x="296" y="-693.9" font-family="Arial" font-size="14.00" fill="#000000">is_enabled </text>
<text text-anchor="start" x="367.582" y="-693.9" font-family="Arial" font-size="14.00" fill="#666666">[boolean]</text>
<polygon fill="none" stroke="#000000" points="289,-652.5 289,-682.5 582,-682.5 582,-652.5 289,-652.5"/>
<text text-anchor="start" x="296" y="-663.9" font-family="Arial" font-size="14.00" fill="#000000">preferences </text>
<text text-anchor="start" x="373.798" y="-663.9" font-family="Arial" font-size="14.00" fill="#666666">[text]</text>
<polygon fill="none" stroke="#000000" points="289,-622.5 289,-652.5 582,-652.5 582,-622.5 289,-622.5"/>
<text text-anchor="start" x="296" y="-633.9" font-family="Arial" font-size="14.00" fill="#000000">author_id </text>
<text text-anchor="start" x="358.244" y="-633.9" font-family="Arial" font-size="14.00" fill="#666666">[bigint]</text>
<polygon fill="none" stroke="#000000" points="289,-592.5 289,-622.5 582,-622.5 582,-592.5 289,-592.5"/>
<text text-anchor="start" x="296" y="-603.9" font-family="Arial" font-size="14.00" fill="#000000">author_type </text>
<text text-anchor="start" x="373.8106" y="-603.9" font-family="Arial" font-size="14.00" fill="#666666">[varchar]</text>
<polygon fill="none" stroke="#000000" points="289,-562.5 289,-592.5 582,-592.5 582,-562.5 289,-562.5"/>
<text text-anchor="start" x="296" y="-573.9" font-family="Arial" font-size="14.00" fill="#000000">deleted_at </text>
<text text-anchor="start" x="365.2566" y="-573.9" font-family="Arial" font-size="14.00" fill="#666666">[timestamp(6) without time zone]</text>
<polygon fill="none" stroke="#000000" points="289,-532.5 289,-562.5 582,-562.5 582,-532.5 289,-532.5"/>
<text text-anchor="start" x="296" y="-543.9" font-family="Arial" font-size="14.00" fill="#000000">created_at </text>
<text text-anchor="start" x="366.028" y="-543.9" font-family="Arial" font-size="14.00" fill="#666666">[timestamp(6) without time zone]</text>
<polygon fill="none" stroke="#000000" points="289,-502.5 289,-532.5 582,-532.5 582,-502.5 289,-502.5"/>
<text text-anchor="start" x="296" y="-513.9" font-family="Arial" font-size="14.00" fill="#000000">updated_at </text>
<text text-anchor="start" x="369.9326" y="-513.9" font-family="Arial" font-size="14.00" fill="#666666">[timestamp(6) without time zone]</text>
<polygon fill="none" stroke="#000000" stroke-width="3" points="287,-501.5 287,-899.5 583,-899.5 583,-501.5 287,-501.5"/>
</g>
<!-- public.motor_queries -->
<g id="node3" class="node">
<title>public.motor_queries</title>
<polygon fill="#efefef" stroke="transparent" points="276,-342.5 276,-377.5 596,-377.5 596,-342.5 276,-342.5"/>
<polygon fill="none" stroke="#000000" points="276,-342.5 276,-377.5 596,-377.5 596,-342.5 276,-342.5"/>
<text text-anchor="start" x="288.7032" y="-355.3" font-family="Arial Bold" font-size="18.00" fill="#000000">public.motor_queries</text>
<text text-anchor="start" x="455.7288" y="-355.3" font-family="Arial" font-size="14.00" fill="#000000">    </text>
<text text-anchor="start" x="489.9336" y="-355.3" font-family="Arial" font-size="14.00" fill="#666666">[BASE TABLE]</text>
<polygon fill="none" stroke="#000000" points="276,-312.5 276,-342.5 596,-342.5 596,-312.5 276,-312.5"/>
<text text-anchor="start" x="283" y="-323.9" font-family="Arial" font-size="14.00" fill="#000000">id    </text>
<text text-anchor="start" x="328.094" y="-323.9" font-family="Arial" font-size="14.00" fill="#666666">[bigint]</text>
<polygon fill="none" stroke="#000000" points="276,-282.5 276,-312.5 596,-312.5 596,-282.5 276,-282.5"/>
<text text-anchor="start" x="283" y="-293.9" font-family="Arial" font-size="14.00" fill="#000000">name    </text>
<text text-anchor="start" x="352.2132" y="-293.9" font-family="Arial" font-size="14.00" fill="#666666">[varchar]</text>
<polygon fill="none" stroke="#000000" points="276,-252.5 276,-282.5 596,-282.5 596,-252.5 276,-252.5"/>
<text text-anchor="start" x="283" y="-263.9" font-family="Arial" font-size="14.00" fill="#000000">description    </text>
<text text-anchor="start" x="384.8822" y="-263.9" font-family="Arial" font-size="14.00" fill="#666666">[text]</text>
<polygon fill="none" stroke="#000000" points="276,-222.5 276,-252.5 596,-252.5 596,-222.5 276,-222.5"/>
<text text-anchor="start" x="283" y="-233.9" font-family="Arial" font-size="14.00" fill="#000000">sql_body    </text>
<text text-anchor="start" x="373.2244" y="-233.9" font-family="Arial" font-size="14.00" fill="#666666">[text]</text>
<polygon fill="none" stroke="#000000" points="276,-192.5 276,-222.5 596,-222.5 596,-192.5 276,-192.5"/>
<text text-anchor="start" x="283" y="-203.9" font-family="Arial" font-size="14.00" fill="#000000">preferences    </text>
<text text-anchor="start" x="391.1122" y="-203.9" font-family="Arial" font-size="14.00" fill="#666666">[text]</text>
<polygon fill="none" stroke="#000000" points="276,-162.5 276,-192.5 596,-192.5 596,-162.5 276,-162.5"/>
<text text-anchor="start" x="283" y="-173.9" font-family="Arial" font-size="14.00" fill="#000000">author_id    </text>
<text text-anchor="start" x="375.5582" y="-173.9" font-family="Arial" font-size="14.00" fill="#666666">[bigint]</text>
<polygon fill="none" stroke="#000000" points="276,-132.5 276,-162.5 596,-162.5 596,-132.5 276,-132.5"/>
<text text-anchor="start" x="283" y="-143.9" font-family="Arial" font-size="14.00" fill="#000000">author_type    </text>
<text text-anchor="start" x="391.1248" y="-143.9" font-family="Arial" font-size="14.00" fill="#666666">[varchar]</text>
<polygon fill="none" stroke="#000000" points="276,-102.5 276,-132.5 596,-132.5 596,-102.5 276,-102.5"/>
<text text-anchor="start" x="283" y="-113.9" font-family="Arial" font-size="14.00" fill="#000000">deleted_at    </text>
<text text-anchor="start" x="382.5708" y="-113.9" font-family="Arial" font-size="14.00" fill="#666666">[timestamp(6) without time zone]</text>
<polygon fill="none" stroke="#000000" points="276,-72.5 276,-102.5 596,-102.5 596,-72.5 276,-72.5"/>
<text text-anchor="start" x="283" y="-83.9" font-family="Arial" font-size="14.00" fill="#000000">created_at    </text>
<text text-anchor="start" x="383.3422" y="-83.9" font-family="Arial" font-size="14.00" fill="#666666">[timestamp(6) without time zone]</text>
<polygon fill="none" stroke="#000000" points="276,-42.5 276,-72.5 596,-72.5 596,-42.5 276,-42.5"/>
<text text-anchor="start" x="282.7546" y="-53.9" font-family="Arial" font-size="14.00" fill="#000000">updated_at    </text>
<text text-anchor="start" x="387.0014" y="-53.9" font-family="Arial" font-size="14.00" fill="#666666">[timestamp(6) without time zone]</text>
</g>
<!-- public.motor_alerts&#45;&gt;public.motor_queries -->
<g id="edge2" class="edge">
<title>public.motor_alerts:query_id&#45;&gt;public.motor_queries:id</title>
<path fill="none" stroke="#000000" d="M592.0321,-817.1702C739.8882,-807.2103 686.1825,-574.1578 582,-457 491.0028,-354.6696 366.9972,-523.3304 276,-421 248.3857,-389.9466 234.4444,-327.5 276,-327.5"/>
<polygon fill="#000000" stroke="#000000" points="591.9946,-817.1713 581.8521,-813.0024 586.9973,-817.3357 582,-817.5 582,-817.5 582,-817.5 586.9973,-817.3357 582.1479,-821.9976 591.9946,-817.1713 591.9946,-817.1713"/>
<text text-anchor="start" x="588.8295" y="-827.5" font-family="Arial" font-size="10.00" fill="#000000">FOREIGN KEY (query_id) REFERENCES motor_queries(id)</text>
</g>
<!-- public.motor_alert_locks -->
<g id="node2" class="node">
<title>public.motor_alert_locks</title>
<polygon fill="#efefef" stroke="transparent" points="268,-1172.5 268,-1207.5 603,-1207.5 603,-1172.5 268,-1172.5"/>
<polygon fill="none" stroke="#000000" points="268,-1172.5 268,-1207.5 603,-1207.5 603,-1172.5 268,-1172.5"/>
<text text-anchor="start" x="274.705" y="-1185.3" font-family="Arial Bold" font-size="18.00" fill="#000000">public.motor_alert_locks</text>
<text text-anchor="start" x="468.727" y="-1185.3" font-family="Arial" font-size="14.00" fill="#000000">    </text>
<text text-anchor="start" x="502.9318" y="-1185.3" font-family="Arial" font-size="14.00" fill="#666666">[BASE TABLE]</text>
<polygon fill="none" stroke="#000000" points="268,-1142.5 268,-1172.5 603,-1172.5 603,-1142.5 268,-1142.5"/>
<text text-anchor="start" x="275" y="-1153.9" font-family="Arial" font-size="14.00" fill="#000000">id    </text>
<text text-anchor="start" x="320.094" y="-1153.9" font-family="Arial" font-size="14.00" fill="#666666">[bigint]</text>
<polygon fill="none" stroke="#000000" points="268,-1112.5 268,-1142.5 603,-1142.5 603,-1112.5 268,-1112.5"/>
<text text-anchor="start" x="275" y="-1123.9" font-family="Arial" font-size="14.00" fill="#000000">alert_id    </text>
<text text-anchor="start" x="355.0996" y="-1123.9" font-family="Arial" font-size="14.00" fill="#666666">[bigint]</text>
<polygon fill="none" stroke="#000000" points="268,-1082.5 268,-1112.5 603,-1112.5 603,-1082.5 268,-1082.5"/>
<text text-anchor="start" x="275" y="-1093.9" font-family="Arial" font-size="14.00" fill="#000000">lock_timestamp    </text>
<text text-anchor="start" x="406.4334" y="-1093.9" font-family="Arial" font-size="14.00" fill="#666666">[varchar]</text>
<polygon fill="none" stroke="#000000" points="268,-1052.5 268,-1082.5 603,-1082.5 603,-1052.5 268,-1052.5"/>
<text text-anchor="start" x="275" y="-1063.9" font-family="Arial" font-size="14.00" fill="#000000">created_at    </text>
<text text-anchor="start" x="375.3422" y="-1063.9" font-family="Arial" font-size="14.00" fill="#666666">[timestamp(6) without time zone]</text>
<polygon fill="none" stroke="#000000" points="268,-1022.5 268,-1052.5 603,-1052.5 603,-1022.5 268,-1022.5"/>
<text text-anchor="start" x="275" y="-1033.9" font-family="Arial" font-size="14.00" fill="#000000">updated_at    </text>
<text text-anchor="start" x="379.2468" y="-1033.9" font-family="Arial" font-size="14.00" fill="#666666">[timestamp(6) without time zone]</text>
</g>
<!-- public.motor_alert_locks&#45;&gt;public.motor_alerts -->
<g id="edge1" class="edge">
<title>public.motor_alert_locks:alert_id&#45;&gt;public.motor_alerts:id</title>
<path fill="none" stroke="#000000" d="M257.7472,-1126.839C144.4787,-1111.8652 167.7403,-847.5 289,-847.5"/>
<polygon fill="#000000" stroke="#000000" points="258.0207,-1126.8565 267.7104,-1131.9907 263.0104,-1127.1783 268,-1127.5 268,-1127.5 268,-1127.5 263.0104,-1127.1783 268.2896,-1123.0093 258.0207,-1126.8565 258.0207,-1126.8565"/>
<text text-anchor="start" x="6.7795" y="-1137.5" font-family="Arial" font-size="10.00" fill="#000000">FOREIGN KEY (alert_id) REFERENCES motor_alerts(id)</text>
</g>
</g>
</svg>
