<?xml version="1.0" encoding="UTF-8" standalone="no"?>
<!DOCTYPE svg PUBLIC "-//W3C//DTD SVG 1.1//EN"
 "http://www.w3.org/Graphics/SVG/1.1/DTD/svg11.dtd">
<!-- Generated by graphviz version 2.40.1 (20161225.0304)
 -->
<!-- Title: public.motor_tags Pages: 1 -->
<svg width="670pt" height="532pt"
 viewBox="0.00 0.00 670.00 532.00" xmlns="http://www.w3.org/2000/svg" xmlns:xlink="http://www.w3.org/1999/xlink">
<g id="graph0" class="graph" transform="scale(1 1) rotate(0) translate(4 528)">
<title>public.motor_tags</title>
<polygon fill="#ffffff" stroke="transparent" points="-4,4 -4,-528 666,-528 666,4 -4,4"/>
<!-- public.motor_tags -->
<g id="node1" class="node">
<title>public.motor_tags</title>
<polygon fill="#efefef" stroke="transparent" points="79,-165.5 79,-200.5 369,-200.5 369,-165.5 79,-165.5"/>
<polygon fill="none" stroke="#000000" points="79,-165.5 79,-200.5 369,-200.5 369,-165.5 79,-165.5"/>
<text text-anchor="start" x="89.2015" y="-178.3" font-family="Arial Bold" font-size="18.00" fill="#000000">public.motor_tags</text>
<text text-anchor="start" x="231.2305" y="-178.3" font-family="Arial" font-size="14.00" fill="#000000">    </text>
<text text-anchor="start" x="265.4353" y="-178.3" font-family="Arial" font-size="14.00" fill="#666666">[BASE TABLE]</text>
<polygon fill="none" stroke="#000000" points="79,-135.5 79,-165.5 369,-165.5 369,-135.5 79,-135.5"/>
<text text-anchor="start" x="86" y="-146.9" font-family="Arial" font-size="14.00" fill="#000000">id </text>
<text text-anchor="start" x="100.7798" y="-146.9" font-family="Arial" font-size="14.00" fill="#666666">[bigint]</text>
<polygon fill="none" stroke="#000000" points="79,-105.5 79,-135.5 369,-135.5 369,-105.5 79,-105.5"/>
<text text-anchor="start" x="86" y="-116.9" font-family="Arial" font-size="14.00" fill="#000000">name </text>
<text text-anchor="start" x="124.899" y="-116.9" font-family="Arial" font-size="14.00" fill="#666666">[varchar]</text>
<polygon fill="none" stroke="#000000" points="79,-75.5 79,-105.5 369,-105.5 369,-75.5 79,-75.5"/>
<text text-anchor="start" x="86" y="-86.9" font-family="Arial" font-size="14.00" fill="#000000">created_at </text>
<text text-anchor="start" x="156.028" y="-86.9" font-family="Arial" font-size="14.00" fill="#666666">[timestamp(6) without time zone]</text>
<polygon fill="none" stroke="#000000" points="79,-45.5 79,-75.5 369,-75.5 369,-45.5 79,-45.5"/>
<text text-anchor="start" x="85.9117" y="-56.9" font-family="Arial" font-size="14.00" fill="#000000">updated_at </text>
<text text-anchor="start" x="159.8443" y="-56.9" font-family="Arial" font-size="14.00" fill="#666666">[timestamp(6) without time zone]</text>
<polygon fill="none" stroke="#000000" stroke-width="3" points="77.5,-44.5 77.5,-202.5 370.5,-202.5 370.5,-44.5 77.5,-44.5"/>
</g>
<!-- public.motor_taggable_tags -->
<g id="node2" class="node">
<title>public.motor_taggable_tags</title>
<polygon fill="#efefef" stroke="transparent" points="43,-445.5 43,-480.5 405,-480.5 405,-445.5 43,-445.5"/>
<polygon fill="none" stroke="#000000" points="43,-445.5 43,-480.5 405,-480.5 405,-445.5 43,-445.5"/>
<text text-anchor="start" x="49.6816" y="-458.3" font-family="Arial Bold" font-size="18.00" fill="#000000">public.motor_taggable_tags</text>
<text text-anchor="start" x="270.7504" y="-458.3" font-family="Arial" font-size="14.00" fill="#000000">    </text>
<text text-anchor="start" x="304.9552" y="-458.3" font-family="Arial" font-size="14.00" fill="#666666">[BASE TABLE]</text>
<polygon fill="none" stroke="#000000" points="43,-415.5 43,-445.5 405,-445.5 405,-415.5 43,-415.5"/>
<text text-anchor="start" x="50" y="-426.9" font-family="Arial" font-size="14.00" fill="#000000">id    </text>
<text text-anchor="start" x="95.094" y="-426.9" font-family="Arial" font-size="14.00" fill="#666666">[bigint]</text>
<polygon fill="none" stroke="#000000" points="43,-385.5 43,-415.5 405,-415.5 405,-385.5 43,-385.5"/>
<text text-anchor="start" x="50" y="-396.9" font-family="Arial" font-size="14.00" fill="#000000">tag_id    </text>
<text text-anchor="start" x="122.3324" y="-396.9" font-family="Arial" font-size="14.00" fill="#666666">[bigint]</text>
<polygon fill="none" stroke="#000000" points="43,-355.5 43,-385.5 405,-385.5 405,-355.5 43,-355.5"/>
<text text-anchor="start" x="50" y="-366.9" font-family="Arial" font-size="14.00" fill="#000000">taggable_id    </text>
<text text-anchor="start" x="156.5694" y="-366.9" font-family="Arial" font-size="14.00" fill="#666666">[bigint]</text>
<polygon fill="none" stroke="#000000" points="43,-325.5 43,-355.5 405,-355.5 405,-325.5 43,-325.5"/>
<text text-anchor="start" x="50" y="-336.9" font-family="Arial" font-size="14.00" fill="#000000">taggable_type    </text>
<text text-anchor="start" x="172.136" y="-336.9" font-family="Arial" font-size="14.00" fill="#666666">[varchar]</text>
</g>
<!-- public.motor_taggable_tags&#45;&gt;public.motor_tags -->
<g id="edge1" class="edge">
<title>public.motor_taggable_tags:tag_id&#45;&gt;public.motor_tags:id</title>
<path fill="none" stroke="#000000" d="M415.092,-399.7828C514.9327,-385.1191 477.7492,-150.5 369,-150.5"/>
<polygon fill="#000000" stroke="#000000" points="414.9748,-399.7911 404.681,-396.0113 409.9874,-400.1455 405,-400.5 405,-400.5 405,-400.5 409.9874,-400.1455 405.319,-404.9887 414.9748,-399.7911 414.9748,-399.7911"/>
<text text-anchor="start" x="412.3275" y="-410.5" font-family="Arial" font-size="10.00" fill="#000000">FOREIGN KEY (tag_id) REFERENCES motor_tags(id)</text>
</g>
</g>
</svg>
