<?xml version="1.0" encoding="UTF-8" standalone="no"?>
<!DOCTYPE svg PUBLIC "-//W3C//DTD SVG 1.1//EN"
 "http://www.w3.org/Graphics/SVG/1.1/DTD/svg11.dtd">
<!-- Generated by graphviz version 2.40.1 (20161225.0304)
 -->
<!-- Title: public.users Pages: 1 -->
<svg width="1686pt" height="892pt"
 viewBox="0.00 0.00 1686.00 892.00" xmlns="http://www.w3.org/2000/svg" xmlns:xlink="http://www.w3.org/1999/xlink">
<g id="graph0" class="graph" transform="scale(1 1) rotate(0) translate(4 888)">
<title>public.users</title>
<polygon fill="#ffffff" stroke="transparent" points="-4,4 -4,-888 1682,-888 1682,4 -4,4"/>
<!-- public.users -->
<g id="node1" class="node">
<title>public.users</title>
<polygon fill="#efefef" stroke="transparent" points="653,-315.5 653,-350.5 1025,-350.5 1025,-315.5 653,-315.5"/>
<polygon fill="none" stroke="#000000" points="653,-315.5 653,-350.5 1025,-350.5 1025,-315.5 653,-315.5"/>
<text text-anchor="start" x="727.2091" y="-328.3" font-family="Arial Bold" font-size="18.00" fill="#000000">public.users</text>
<text text-anchor="start" x="823.2229" y="-328.3" font-family="Arial" font-size="14.00" fill="#000000">    </text>
<text text-anchor="start" x="857.4277" y="-328.3" font-family="Arial" font-size="14.00" fill="#666666">[BASE TABLE]</text>
<polygon fill="none" stroke="#000000" points="653,-285.5 653,-315.5 1025,-315.5 1025,-285.5 653,-285.5"/>
<text text-anchor="start" x="660" y="-296.9" font-family="Arial" font-size="14.00" fill="#000000">id </text>
<text text-anchor="start" x="674.7798" y="-296.9" font-family="Arial" font-size="14.00" fill="#666666">[bigint]</text>
<polygon fill="none" stroke="#000000" points="653,-255.5 653,-285.5 1025,-285.5 1025,-255.5 653,-255.5"/>
<text text-anchor="start" x="660" y="-266.9" font-family="Arial" font-size="14.00" fill="#000000">email </text>
<text text-anchor="start" x="697.3296" y="-266.9" font-family="Arial" font-size="14.00" fill="#666666">[varchar]</text>
<polygon fill="none" stroke="#000000" points="653,-225.5 653,-255.5 1025,-255.5 1025,-225.5 653,-225.5"/>
<text text-anchor="start" x="660" y="-236.9" font-family="Arial" font-size="14.00" fill="#000000">encrypted_password </text>
<text text-anchor="start" x="793.035" y="-236.9" font-family="Arial" font-size="14.00" fill="#666666">[varchar]</text>
<polygon fill="none" stroke="#000000" points="653,-195.5 653,-225.5 1025,-225.5 1025,-195.5 653,-195.5"/>
<text text-anchor="start" x="660" y="-206.9" font-family="Arial" font-size="14.00" fill="#000000">reset_password_token </text>
<text text-anchor="start" x="804.7082" y="-206.9" font-family="Arial" font-size="14.00" fill="#666666">[varchar]</text>
<polygon fill="none" stroke="#000000" points="653,-165.5 653,-195.5 1025,-195.5 1025,-165.5 653,-165.5"/>
<text text-anchor="start" x="659.6873" y="-176.9" font-family="Arial" font-size="14.00" fill="#000000">reset_password_sent_at </text>
<text text-anchor="start" x="816.0687" y="-176.9" font-family="Arial" font-size="14.00" fill="#666666">[timestamp(6) without time zone]</text>
<polygon fill="none" stroke="#000000" points="653,-135.5 653,-165.5 1025,-165.5 1025,-135.5 653,-135.5"/>
<text text-anchor="start" x="660" y="-146.9" font-family="Arial" font-size="14.00" fill="#000000">remember_created_at </text>
<text text-anchor="start" x="801.5834" y="-146.9" font-family="Arial" font-size="14.00" fill="#666666">[timestamp(6) without time zone]</text>
<polygon fill="none" stroke="#000000" points="653,-105.5 653,-135.5 1025,-135.5 1025,-105.5 653,-105.5"/>
<text text-anchor="start" x="660" y="-116.9" font-family="Arial" font-size="14.00" fill="#000000">created_at </text>
<text text-anchor="start" x="730.028" y="-116.9" font-family="Arial" font-size="14.00" fill="#666666">[timestamp(6) without time zone]</text>
<polygon fill="none" stroke="#000000" points="653,-75.5 653,-105.5 1025,-105.5 1025,-75.5 653,-75.5"/>
<text text-anchor="start" x="660" y="-86.9" font-family="Arial" font-size="14.00" fill="#000000">updated_at </text>
<text text-anchor="start" x="733.9326" y="-86.9" font-family="Arial" font-size="14.00" fill="#666666">[timestamp(6) without time zone]</text>
<polygon fill="none" stroke="#000000" points="653,-45.5 653,-75.5 1025,-75.5 1025,-45.5 653,-45.5"/>
<text text-anchor="start" x="660" y="-56.9" font-family="Arial" font-size="14.00" fill="#000000">admin </text>
<text text-anchor="start" x="702.0056" y="-56.9" font-family="Arial" font-size="14.00" fill="#666666">[boolean]</text>
<polygon fill="none" stroke="#000000" stroke-width="3" points="651.5,-44.5 651.5,-352.5 1026.5,-352.5 1026.5,-44.5 651.5,-44.5"/>
</g>
<!-- public.conversations -->
<g id="node2" class="node">
<title>public.conversations</title>
<polygon fill="#efefef" stroke="transparent" points="43,-775.5 43,-810.5 363,-810.5 363,-775.5 43,-775.5"/>
<polygon fill="none" stroke="#000000" points="43,-775.5 43,-810.5 363,-810.5 363,-775.5 43,-775.5"/>
<text text-anchor="start" x="57.6985" y="-788.3" font-family="Arial Bold" font-size="18.00" fill="#000000">public.conversations</text>
<text text-anchor="start" x="220.7335" y="-788.3" font-family="Arial" font-size="14.00" fill="#000000">    </text>
<text text-anchor="start" x="254.9383" y="-788.3" font-family="Arial" font-size="14.00" fill="#666666">[BASE TABLE]</text>
<polygon fill="none" stroke="#000000" points="43,-745.5 43,-775.5 363,-775.5 363,-745.5 43,-745.5"/>
<text text-anchor="start" x="50" y="-756.9" font-family="Arial" font-size="14.00" fill="#000000">id    </text>
<text text-anchor="start" x="95.094" y="-756.9" font-family="Arial" font-size="14.00" fill="#666666">[bigint]</text>
<polygon fill="none" stroke="#000000" points="43,-715.5 43,-745.5 363,-745.5 363,-715.5 43,-715.5"/>
<text text-anchor="start" x="50" y="-726.9" font-family="Arial" font-size="14.00" fill="#000000">user_id    </text>
<text text-anchor="start" x="130.1024" y="-726.9" font-family="Arial" font-size="14.00" fill="#666666">[bigint]</text>
<polygon fill="none" stroke="#000000" points="43,-685.5 43,-715.5 363,-715.5 363,-685.5 43,-685.5"/>
<text text-anchor="start" x="50" y="-696.9" font-family="Arial" font-size="14.00" fill="#000000">title    </text>
<text text-anchor="start" x="105.9818" y="-696.9" font-family="Arial" font-size="14.00" fill="#666666">[varchar]</text>
<polygon fill="none" stroke="#000000" points="43,-655.5 43,-685.5 363,-685.5 363,-655.5 43,-655.5"/>
<text text-anchor="start" x="50" y="-666.9" font-family="Arial" font-size="14.00" fill="#000000">created_at    </text>
<text text-anchor="start" x="150.3422" y="-666.9" font-family="Arial" font-size="14.00" fill="#666666">[timestamp(6) without time zone]</text>
<polygon fill="none" stroke="#000000" points="43,-625.5 43,-655.5 363,-655.5 363,-625.5 43,-625.5"/>
<text text-anchor="start" x="49.7546" y="-636.9" font-family="Arial" font-size="14.00" fill="#000000">updated_at    </text>
<text text-anchor="start" x="154.0014" y="-636.9" font-family="Arial" font-size="14.00" fill="#666666">[timestamp(6) without time zone]</text>
<polygon fill="none" stroke="#000000" points="43,-595.5 43,-625.5 363,-625.5 363,-595.5 43,-595.5"/>
<text text-anchor="start" x="50" y="-606.9" font-family="Arial" font-size="14.00" fill="#000000">model_config_id    </text>
<text text-anchor="start" x="186.1192" y="-606.9" font-family="Arial" font-size="14.00" fill="#666666">[bigint]</text>
<polygon fill="none" stroke="#000000" points="43,-565.5 43,-595.5 363,-595.5 363,-565.5 43,-565.5"/>
<text text-anchor="start" x="50" y="-576.9" font-family="Arial" font-size="14.00" fill="#000000">search_collections    </text>
<text text-anchor="start" x="199.3366" y="-576.9" font-family="Arial" font-size="14.00" fill="#666666">[boolean]</text>
<polygon fill="none" stroke="#000000" points="43,-535.5 43,-565.5 363,-565.5 363,-535.5 43,-535.5"/>
<text text-anchor="start" x="50" y="-546.9" font-family="Arial" font-size="14.00" fill="#000000">messages_count    </text>
<text text-anchor="start" x="190.0168" y="-546.9" font-family="Arial" font-size="14.00" fill="#666666">[integer]</text>
<polygon fill="none" stroke="#000000" points="43,-505.5 43,-535.5 363,-535.5 363,-505.5 43,-505.5"/>
<text text-anchor="start" x="50" y="-516.9" font-family="Arial" font-size="14.00" fill="#000000">source    </text>
<text text-anchor="start" x="126.2132" y="-516.9" font-family="Arial" font-size="14.00" fill="#666666">[integer]</text>
</g>
<!-- public.conversations&#45;&gt;public.users -->
<g id="edge1" class="edge">
<title>public.conversations:user_id&#45;&gt;public.users:id</title>
<path fill="none" stroke="#000000" d="M372.9592,-728.3921C424.4855,-704.5066 378.2446,-484.7114 415,-433 485.1386,-334.3216 531.9346,-300.5 653,-300.5"/>
<polygon fill="#000000" stroke="#000000" points="372.7833,-728.4292 362.0681,-726.0975 367.8916,-729.4646 363,-730.5 363,-730.5 363,-730.5 367.8916,-729.4646 363.9319,-734.9025 372.7833,-728.4292 372.7833,-728.4292"/>
<text text-anchor="start" x="251.8345" y="-714.5" font-family="Arial" font-size="10.00" fill="#000000">FOREIGN KEY (user_id) REFERENCES users(id)</text>
</g>
<!-- public.documents -->
<g id="node3" class="node">
<title>public.documents</title>
<polygon fill="#efefef" stroke="transparent" points="467,-805.5 467,-840.5 787,-840.5 787,-805.5 467,-805.5"/>
<polygon fill="none" stroke="#000000" points="467,-805.5 467,-840.5 787,-840.5 787,-805.5 467,-805.5"/>
<text text-anchor="start" x="493.1987" y="-818.3" font-family="Arial Bold" font-size="18.00" fill="#000000">public.documents</text>
<text text-anchor="start" x="633.2333" y="-818.3" font-family="Arial" font-size="14.00" fill="#000000">    </text>
<text text-anchor="start" x="667.4381" y="-818.3" font-family="Arial" font-size="14.00" fill="#666666">[BASE TABLE]</text>
<polygon fill="none" stroke="#000000" points="467,-775.5 467,-805.5 787,-805.5 787,-775.5 467,-775.5"/>
<text text-anchor="start" x="474" y="-786.9" font-family="Arial" font-size="14.00" fill="#000000">id    </text>
<text text-anchor="start" x="519.094" y="-786.9" font-family="Arial" font-size="14.00" fill="#666666">[bigint]</text>
<polygon fill="none" stroke="#000000" points="467,-745.5 467,-775.5 787,-775.5 787,-745.5 467,-745.5"/>
<text text-anchor="start" x="474" y="-756.9" font-family="Arial" font-size="14.00" fill="#000000">collection_id    </text>
<text text-anchor="start" x="585.2174" y="-756.9" font-family="Arial" font-size="14.00" fill="#666666">[bigint]</text>
<polygon fill="none" stroke="#000000" points="467,-715.5 467,-745.5 787,-745.5 787,-715.5 467,-715.5"/>
<text text-anchor="start" x="474" y="-726.9" font-family="Arial" font-size="14.00" fill="#000000">user_id    </text>
<text text-anchor="start" x="554.1024" y="-726.9" font-family="Arial" font-size="14.00" fill="#666666">[bigint]</text>
<polygon fill="none" stroke="#000000" points="467,-685.5 467,-715.5 787,-715.5 787,-685.5 467,-685.5"/>
<text text-anchor="start" x="474" y="-696.9" font-family="Arial" font-size="14.00" fill="#000000">filename    </text>
<text text-anchor="start" x="561.0996" y="-696.9" font-family="Arial" font-size="14.00" fill="#666666">[varchar]</text>
<polygon fill="none" stroke="#000000" points="467,-655.5 467,-685.5 787,-685.5 787,-655.5 467,-655.5"/>
<text text-anchor="start" x="474" y="-666.9" font-family="Arial" font-size="14.00" fill="#000000">created_at    </text>
<text text-anchor="start" x="574.3422" y="-666.9" font-family="Arial" font-size="14.00" fill="#666666">[timestamp(6) without time zone]</text>
<polygon fill="none" stroke="#000000" points="467,-625.5 467,-655.5 787,-655.5 787,-625.5 467,-625.5"/>
<text text-anchor="start" x="473.7546" y="-636.9" font-family="Arial" font-size="14.00" fill="#000000">updated_at    </text>
<text text-anchor="start" x="578.0014" y="-636.9" font-family="Arial" font-size="14.00" fill="#666666">[timestamp(6) without time zone]</text>
<polygon fill="none" stroke="#000000" points="467,-595.5 467,-625.5 787,-625.5 787,-595.5 467,-595.5"/>
<text text-anchor="start" x="474" y="-606.9" font-family="Arial" font-size="14.00" fill="#000000">state    </text>
<text text-anchor="start" x="538.5512" y="-606.9" font-family="Arial" font-size="14.00" fill="#666666">[integer]</text>
<polygon fill="none" stroke="#000000" points="467,-565.5 467,-595.5 787,-595.5 787,-565.5 467,-565.5"/>
<text text-anchor="start" x="474" y="-576.9" font-family="Arial" font-size="14.00" fill="#000000">vector_id    </text>
<text text-anchor="start" x="564.993" y="-576.9" font-family="Arial" font-size="14.00" fill="#666666">[varchar]</text>
<polygon fill="none" stroke="#000000" points="467,-535.5 467,-565.5 787,-565.5 787,-535.5 467,-535.5"/>
<text text-anchor="start" x="474" y="-546.9" font-family="Arial" font-size="14.00" fill="#000000">chunking_profile_id    </text>
<text text-anchor="start" x="628.791" y="-546.9" font-family="Arial" font-size="14.00" fill="#666666">[bigint]</text>
<polygon fill="none" stroke="#000000" points="467,-505.5 467,-535.5 787,-535.5 787,-505.5 467,-505.5"/>
<text text-anchor="start" x="474" y="-516.9" font-family="Arial" font-size="14.00" fill="#000000">stop_jobs    </text>
<text text-anchor="start" x="568.115" y="-516.9" font-family="Arial" font-size="14.00" fill="#666666">[boolean]</text>
<polygon fill="none" stroke="#000000" points="467,-475.5 467,-505.5 787,-505.5 787,-475.5 467,-475.5"/>
<text text-anchor="start" x="474" y="-486.9" font-family="Arial" font-size="14.00" fill="#000000">error_message    </text>
<text text-anchor="start" x="602.3254" y="-486.9" font-family="Arial" font-size="14.00" fill="#666666">[varchar]</text>
</g>
<!-- public.documents&#45;&gt;public.users -->
<g id="edge2" class="edge">
<title>public.documents:user_id&#45;&gt;public.users:id</title>
<path fill="none" stroke="#000000" d="M797.0337,-728.3731C850.2373,-704.275 825.0286,-482.5937 787,-433 749.4754,-384.0636 690.5246,-445.9364 653,-397 626.9021,-362.9653 610.1111,-300.5 653,-300.5"/>
<polygon fill="#000000" stroke="#000000" points="796.7826,-728.4262 786.0668,-726.0978 791.8913,-729.4631 787,-730.5 787,-730.5 787,-730.5 791.8913,-729.4631 787.9332,-734.9022 796.7826,-728.4262 796.7826,-728.4262"/>
<text text-anchor="start" x="794.3345" y="-740.5" font-family="Arial" font-size="10.00" fill="#000000">FOREIGN KEY (user_id) REFERENCES users(id)</text>
</g>
<!-- public.clients -->
<g id="node4" class="node">
<title>public.clients</title>
<polygon fill="#efefef" stroke="transparent" points="891,-745.5 891,-780.5 1211,-780.5 1211,-745.5 891,-745.5"/>
<polygon fill="none" stroke="#000000" points="891,-745.5 891,-780.5 1211,-780.5 1211,-745.5 891,-745.5"/>
<text text-anchor="start" x="935.7099" y="-758.3" font-family="Arial Bold" font-size="18.00" fill="#000000">public.clients</text>
<text text-anchor="start" x="1038.7221" y="-758.3" font-family="Arial" font-size="14.00" fill="#000000">    </text>
<text text-anchor="start" x="1072.9269" y="-758.3" font-family="Arial" font-size="14.00" fill="#666666">[BASE TABLE]</text>
<polygon fill="none" stroke="#000000" points="891,-715.5 891,-745.5 1211,-745.5 1211,-715.5 891,-715.5"/>
<text text-anchor="start" x="898" y="-726.9" font-family="Arial" font-size="14.00" fill="#000000">id    </text>
<text text-anchor="start" x="943.094" y="-726.9" font-family="Arial" font-size="14.00" fill="#666666">[bigint]</text>
<polygon fill="none" stroke="#000000" points="891,-685.5 891,-715.5 1211,-715.5 1211,-685.5 891,-685.5"/>
<text text-anchor="start" x="898" y="-696.9" font-family="Arial" font-size="14.00" fill="#000000">name    </text>
<text text-anchor="start" x="967.2132" y="-696.9" font-family="Arial" font-size="14.00" fill="#666666">[varchar]</text>
<polygon fill="none" stroke="#000000" points="891,-655.5 891,-685.5 1211,-685.5 1211,-655.5 891,-655.5"/>
<text text-anchor="start" x="898" y="-666.9" font-family="Arial" font-size="14.00" fill="#000000">user_id    </text>
<text text-anchor="start" x="978.1024" y="-666.9" font-family="Arial" font-size="14.00" fill="#666666">[bigint]</text>
<polygon fill="none" stroke="#000000" points="891,-625.5 891,-655.5 1211,-655.5 1211,-625.5 891,-625.5"/>
<text text-anchor="start" x="898" y="-636.9" font-family="Arial" font-size="14.00" fill="#000000">api_key    </text>
<text text-anchor="start" x="980.4418" y="-636.9" font-family="Arial" font-size="14.00" fill="#666666">[varchar]</text>
<polygon fill="none" stroke="#000000" points="891,-595.5 891,-625.5 1211,-625.5 1211,-595.5 891,-595.5"/>
<text text-anchor="start" x="898" y="-606.9" font-family="Arial" font-size="14.00" fill="#000000">created_at    </text>
<text text-anchor="start" x="998.3422" y="-606.9" font-family="Arial" font-size="14.00" fill="#666666">[timestamp(6) without time zone]</text>
<polygon fill="none" stroke="#000000" points="891,-565.5 891,-595.5 1211,-595.5 1211,-565.5 891,-565.5"/>
<text text-anchor="start" x="897.7546" y="-576.9" font-family="Arial" font-size="14.00" fill="#000000">updated_at    </text>
<text text-anchor="start" x="1002.0014" y="-576.9" font-family="Arial" font-size="14.00" fill="#666666">[timestamp(6) without time zone]</text>
<polygon fill="none" stroke="#000000" points="891,-535.5 891,-565.5 1211,-565.5 1211,-535.5 891,-535.5"/>
<text text-anchor="start" x="898" y="-546.9" font-family="Arial" font-size="14.00" fill="#000000">client_id    </text>
<text text-anchor="start" x="983.5456" y="-546.9" font-family="Arial" font-size="14.00" fill="#666666">[varchar]</text>
</g>
<!-- public.clients&#45;&gt;public.users -->
<g id="edge3" class="edge">
<title>public.clients:user_id&#45;&gt;public.users:id</title>
<path fill="none" stroke="#000000" d="M880.6954,-669.8074C816.1125,-660.5195 856.6412,-559.8816 891,-493 924.4774,-427.8342 991.5226,-462.1658 1025,-397 1044.5983,-358.8508 1067.8889,-300.5 1025,-300.5"/>
<polygon fill="#000000" stroke="#000000" points="881.0225,-669.8293 890.6982,-674.9899 886.0113,-670.1646 891,-670.5 891,-670.5 891,-670.5 886.0113,-670.1646 891.3018,-666.0101 881.0225,-669.8293 881.0225,-669.8293"/>
<text text-anchor="start" x="839.0845" y="-654.5" font-family="Arial" font-size="10.00" fill="#000000">FOREIGN KEY (user_id) REFERENCES users(id)</text>
</g>
<!-- public.settings -->
<g id="node5" class="node">
<title>public.settings</title>
<polygon fill="#efefef" stroke="transparent" points="1315,-730.5 1315,-765.5 1635,-765.5 1635,-730.5 1315,-730.5"/>
<polygon fill="none" stroke="#000000" points="1315,-730.5 1315,-765.5 1635,-765.5 1635,-730.5 1315,-730.5"/>
<text text-anchor="start" x="1354.2028" y="-743.3" font-family="Arial Bold" font-size="18.00" fill="#000000">public.settings</text>
<text text-anchor="start" x="1468.2292" y="-743.3" font-family="Arial" font-size="14.00" fill="#000000">    </text>
<text text-anchor="start" x="1502.434" y="-743.3" font-family="Arial" font-size="14.00" fill="#666666">[BASE TABLE]</text>
<polygon fill="none" stroke="#000000" points="1315,-700.5 1315,-730.5 1635,-730.5 1635,-700.5 1315,-700.5"/>
<text text-anchor="start" x="1322" y="-711.9" font-family="Arial" font-size="14.00" fill="#000000">id    </text>
<text text-anchor="start" x="1367.094" y="-711.9" font-family="Arial" font-size="14.00" fill="#666666">[bigint]</text>
<polygon fill="none" stroke="#000000" points="1315,-670.5 1315,-700.5 1635,-700.5 1635,-670.5 1315,-670.5"/>
<text text-anchor="start" x="1322" y="-681.9" font-family="Arial" font-size="14.00" fill="#000000">key    </text>
<text text-anchor="start" x="1377.9874" y="-681.9" font-family="Arial" font-size="14.00" fill="#666666">[varchar]</text>
<polygon fill="none" stroke="#000000" points="1315,-640.5 1315,-670.5 1635,-670.5 1635,-640.5 1315,-640.5"/>
<text text-anchor="start" x="1322" y="-651.9" font-family="Arial" font-size="14.00" fill="#000000">value    </text>
<text text-anchor="start" x="1389.6592" y="-651.9" font-family="Arial" font-size="14.00" fill="#666666">[jsonb]</text>
<polygon fill="none" stroke="#000000" points="1315,-610.5 1315,-640.5 1635,-640.5 1635,-610.5 1315,-610.5"/>
<text text-anchor="start" x="1322" y="-621.9" font-family="Arial" font-size="14.00" fill="#000000">created_at    </text>
<text text-anchor="start" x="1422.3422" y="-621.9" font-family="Arial" font-size="14.00" fill="#666666">[timestamp(6) without time zone]</text>
<polygon fill="none" stroke="#000000" points="1315,-580.5 1315,-610.5 1635,-610.5 1635,-580.5 1315,-580.5"/>
<text text-anchor="start" x="1321.7546" y="-591.9" font-family="Arial" font-size="14.00" fill="#000000">updated_at    </text>
<text text-anchor="start" x="1426.0014" y="-591.9" font-family="Arial" font-size="14.00" fill="#666666">[timestamp(6) without time zone]</text>
<polygon fill="none" stroke="#000000" points="1315,-550.5 1315,-580.5 1635,-580.5 1635,-550.5 1315,-550.5"/>
<text text-anchor="start" x="1322" y="-561.9" font-family="Arial" font-size="14.00" fill="#000000">user_id    </text>
<text text-anchor="start" x="1402.1024" y="-561.9" font-family="Arial" font-size="14.00" fill="#666666">[bigint]</text>
</g>
<!-- public.settings&#45;&gt;public.users -->
<g id="edge4" class="edge">
<title>public.settings:user_id&#45;&gt;public.users:id</title>
<path fill="none" stroke="#000000" d="M1305.0338,-564.6504C1257.613,-555.6819 1302.1976,-477.8366 1263,-433 1183.3175,-341.8543 1146.0654,-300.5 1025,-300.5"/>
<polygon fill="#000000" stroke="#000000" points="1305.0361,-564.6505 1314.6177,-569.9837 1310.0181,-565.0753 1315,-565.5 1315,-565.5 1315,-565.5 1310.0181,-565.0753 1315.3823,-561.0163 1305.0361,-564.6505 1305.0361,-564.6505"/>
<text text-anchor="start" x="1085.3345" y="-575.5" font-family="Arial" font-size="10.00" fill="#000000">FOREIGN KEY (user_id) REFERENCES users(id)</text>
</g>
</g>
</svg>
