<?xml version="1.0" encoding="UTF-8" standalone="no"?>
<!DOCTYPE svg PUBLIC "-//W3C//DTD SVG 1.1//EN"
 "http://www.w3.org/Graphics/SVG/1.1/DTD/svg11.dtd">
<!-- Generated by graphviz version 2.40.1 (20161225.0304)
 -->
<!-- Title: public.motor_notes Pages: 1 -->
<svg width="502pt" height="652pt"
 viewBox="0.00 0.00 501.50 652.00" xmlns="http://www.w3.org/2000/svg" xmlns:xlink="http://www.w3.org/1999/xlink">
<g id="graph0" class="graph" transform="scale(1 1) rotate(0) translate(4 648)">
<title>public.motor_notes</title>
<polygon fill="#ffffff" stroke="transparent" points="-4,4 -4,-648 497.5,-648 497.5,4 -4,4"/>
<!-- public.motor_notes -->
<g id="node1" class="node">
<title>public.motor_notes</title>
<polygon fill="#efefef" stroke="transparent" points="78.5,-315.5 78.5,-350.5 371.5,-350.5 371.5,-315.5 78.5,-315.5"/>
<polygon fill="none" stroke="#000000" points="78.5,-315.5 78.5,-350.5 371.5,-350.5 371.5,-315.5 78.5,-315.5"/>
<text text-anchor="start" x="85.1984" y="-328.3" font-family="Arial Bold" font-size="18.00" fill="#000000">public.motor_notes</text>
<text text-anchor="start" x="237.2336" y="-328.3" font-family="Arial" font-size="14.00" fill="#000000">    </text>
<text text-anchor="start" x="271.4384" y="-328.3" font-family="Arial" font-size="14.00" fill="#666666">[BASE TABLE]</text>
<polygon fill="none" stroke="#000000" points="78.5,-285.5 78.5,-315.5 371.5,-315.5 371.5,-285.5 78.5,-285.5"/>
<text text-anchor="start" x="85.5" y="-296.9" font-family="Arial" font-size="14.00" fill="#000000">id </text>
<text text-anchor="start" x="100.2798" y="-296.9" font-family="Arial" font-size="14.00" fill="#666666">[bigint]</text>
<polygon fill="none" stroke="#000000" points="78.5,-255.5 78.5,-285.5 371.5,-285.5 371.5,-255.5 78.5,-255.5"/>
<text text-anchor="start" x="85.5" y="-266.9" font-family="Arial" font-size="14.00" fill="#000000">body </text>
<text text-anchor="start" x="119.7384" y="-266.9" font-family="Arial" font-size="14.00" fill="#666666">[text]</text>
<polygon fill="none" stroke="#000000" points="78.5,-225.5 78.5,-255.5 371.5,-255.5 371.5,-225.5 78.5,-225.5"/>
<text text-anchor="start" x="85.5" y="-236.9" font-family="Arial" font-size="14.00" fill="#000000">author_id </text>
<text text-anchor="start" x="147.744" y="-236.9" font-family="Arial" font-size="14.00" fill="#666666">[bigint]</text>
<polygon fill="none" stroke="#000000" points="78.5,-195.5 78.5,-225.5 371.5,-225.5 371.5,-195.5 78.5,-195.5"/>
<text text-anchor="start" x="85.5" y="-206.9" font-family="Arial" font-size="14.00" fill="#000000">author_type </text>
<text text-anchor="start" x="163.3106" y="-206.9" font-family="Arial" font-size="14.00" fill="#666666">[varchar]</text>
<polygon fill="none" stroke="#000000" points="78.5,-165.5 78.5,-195.5 371.5,-195.5 371.5,-165.5 78.5,-165.5"/>
<text text-anchor="start" x="85.5" y="-176.9" font-family="Arial" font-size="14.00" fill="#000000">record_id </text>
<text text-anchor="start" x="147.7314" y="-176.9" font-family="Arial" font-size="14.00" fill="#666666">[varchar]</text>
<polygon fill="none" stroke="#000000" points="78.5,-135.5 78.5,-165.5 371.5,-165.5 371.5,-135.5 78.5,-135.5"/>
<text text-anchor="start" x="85.5" y="-146.9" font-family="Arial" font-size="14.00" fill="#000000">record_type </text>
<text text-anchor="start" x="163.298" y="-146.9" font-family="Arial" font-size="14.00" fill="#666666">[varchar]</text>
<polygon fill="none" stroke="#000000" points="78.5,-105.5 78.5,-135.5 371.5,-135.5 371.5,-105.5 78.5,-105.5"/>
<text text-anchor="start" x="85.5" y="-116.9" font-family="Arial" font-size="14.00" fill="#000000">deleted_at </text>
<text text-anchor="start" x="154.7566" y="-116.9" font-family="Arial" font-size="14.00" fill="#666666">[timestamp(6) without time zone]</text>
<polygon fill="none" stroke="#000000" points="78.5,-75.5 78.5,-105.5 371.5,-105.5 371.5,-75.5 78.5,-75.5"/>
<text text-anchor="start" x="85.5" y="-86.9" font-family="Arial" font-size="14.00" fill="#000000">created_at </text>
<text text-anchor="start" x="155.528" y="-86.9" font-family="Arial" font-size="14.00" fill="#666666">[timestamp(6) without time zone]</text>
<polygon fill="none" stroke="#000000" points="78.5,-45.5 78.5,-75.5 371.5,-75.5 371.5,-45.5 78.5,-45.5"/>
<text text-anchor="start" x="85.5" y="-56.9" font-family="Arial" font-size="14.00" fill="#000000">updated_at </text>
<text text-anchor="start" x="159.4326" y="-56.9" font-family="Arial" font-size="14.00" fill="#666666">[timestamp(6) without time zone]</text>
<polygon fill="none" stroke="#000000" stroke-width="3" points="76.5,-44.5 76.5,-352.5 372.5,-352.5 372.5,-44.5 76.5,-44.5"/>
</g>
<!-- public.motor_note_tag_tags -->
<g id="node2" class="node">
<title>public.motor_note_tag_tags</title>
<polygon fill="#efefef" stroke="transparent" points="43.5,-565.5 43.5,-600.5 406.5,-600.5 406.5,-565.5 43.5,-565.5"/>
<polygon fill="none" stroke="#000000" points="43.5,-565.5 43.5,-600.5 406.5,-600.5 406.5,-565.5 43.5,-565.5"/>
<text text-anchor="start" x="50.1776" y="-578.3" font-family="Arial Bold" font-size="18.00" fill="#000000">public.motor_note_tag_tags</text>
<text text-anchor="start" x="272.2544" y="-578.3" font-family="Arial" font-size="14.00" fill="#000000">    </text>
<text text-anchor="start" x="306.4592" y="-578.3" font-family="Arial" font-size="14.00" fill="#666666">[BASE TABLE]</text>
<polygon fill="none" stroke="#000000" points="43.5,-535.5 43.5,-565.5 406.5,-565.5 406.5,-535.5 43.5,-535.5"/>
<text text-anchor="start" x="50.5" y="-546.9" font-family="Arial" font-size="14.00" fill="#000000">id    </text>
<text text-anchor="start" x="95.594" y="-546.9" font-family="Arial" font-size="14.00" fill="#666666">[bigint]</text>
<polygon fill="none" stroke="#000000" points="43.5,-505.5 43.5,-535.5 406.5,-535.5 406.5,-505.5 43.5,-505.5"/>
<text text-anchor="start" x="50.5" y="-516.9" font-family="Arial" font-size="14.00" fill="#000000">tag_id    </text>
<text text-anchor="start" x="122.8324" y="-516.9" font-family="Arial" font-size="14.00" fill="#666666">[bigint]</text>
<polygon fill="none" stroke="#000000" points="43.5,-475.5 43.5,-505.5 406.5,-505.5 406.5,-475.5 43.5,-475.5"/>
<text text-anchor="start" x="50.5" y="-486.9" font-family="Arial" font-size="14.00" fill="#000000">note_id    </text>
<text text-anchor="start" x="130.615" y="-486.9" font-family="Arial" font-size="14.00" fill="#666666">[bigint]</text>
</g>
<!-- public.motor_note_tag_tags&#45;&gt;public.motor_notes -->
<g id="edge1" class="edge">
<title>public.motor_note_tag_tags:note_id&#45;&gt;public.motor_notes:id</title>
<path fill="none" stroke="#000000" d="M224.681,-465.2132C214.6214,-407.1194 114.6553,-457.295 78.5,-397 56.4436,-360.2172 35.6111,-300.5 78.5,-300.5"/>
<polygon fill="#000000" stroke="#000000" points="224.7062,-465.5315 221.0142,-475.8572 225.1031,-470.5158 225.5,-475.5 225.5,-475.5 225.5,-475.5 225.1031,-470.5158 229.9858,-475.1428 224.7062,-465.5315 224.7062,-465.5315"/>
<text text-anchor="start" x="232.2685" y="-485.5" font-family="Arial" font-size="10.00" fill="#000000">FOREIGN KEY (note_id) REFERENCES motor_notes(id)</text>
</g>
</g>
</svg>
