<?xml version="1.0" encoding="UTF-8" standalone="no"?>
<!DOCTYPE svg PUBLIC "-//W3C//DTD SVG 1.1//EN"
 "http://www.w3.org/Graphics/SVG/1.1/DTD/svg11.dtd">
<!-- Generated by graphviz version 2.40.1 (20161225.0304)
 -->
<!-- Title: public.motor_taggable_tags Pages: 1 -->
<svg width="673pt" height="532pt"
 viewBox="0.00 0.00 673.00 532.00" xmlns="http://www.w3.org/2000/svg" xmlns:xlink="http://www.w3.org/1999/xlink">
<g id="graph0" class="graph" transform="scale(1 1) rotate(0) translate(4 528)">
<title>public.motor_taggable_tags</title>
<polygon fill="#ffffff" stroke="transparent" points="-4,4 -4,-528 669,-528 669,4 -4,4"/>
<!-- public.motor_taggable_tags -->
<g id="node1" class="node">
<title>public.motor_taggable_tags</title>
<polygon fill="#efefef" stroke="transparent" points="46,-442.5 46,-477.5 408,-477.5 408,-442.5 46,-442.5"/>
<polygon fill="none" stroke="#000000" points="46,-442.5 46,-477.5 408,-477.5 408,-442.5 46,-442.5"/>
<text text-anchor="start" x="52.6816" y="-455.3" font-family="Arial Bold" font-size="18.00" fill="#000000">public.motor_taggable_tags</text>
<text text-anchor="start" x="273.7504" y="-455.3" font-family="Arial" font-size="14.00" fill="#000000">    </text>
<text text-anchor="start" x="307.9552" y="-455.3" font-family="Arial" font-size="14.00" fill="#666666">[BASE TABLE]</text>
<polygon fill="none" stroke="#000000" points="46,-412.5 46,-442.5 408,-442.5 408,-412.5 46,-412.5"/>
<text text-anchor="start" x="53" y="-423.9" font-family="Arial" font-size="14.00" fill="#000000">id </text>
<text text-anchor="start" x="67.7798" y="-423.9" font-family="Arial" font-size="14.00" fill="#666666">[bigint]</text>
<polygon fill="none" stroke="#000000" points="46,-382.5 46,-412.5 408,-412.5 408,-382.5 46,-382.5"/>
<text text-anchor="start" x="53" y="-393.9" font-family="Arial" font-size="14.00" fill="#000000">tag_id </text>
<text text-anchor="start" x="95.0182" y="-393.9" font-family="Arial" font-size="14.00" fill="#666666">[bigint]</text>
<polygon fill="none" stroke="#000000" points="46,-352.5 46,-382.5 408,-382.5 408,-352.5 46,-352.5"/>
<text text-anchor="start" x="53" y="-363.9" font-family="Arial" font-size="14.00" fill="#000000">taggable_id </text>
<text text-anchor="start" x="129.2552" y="-363.9" font-family="Arial" font-size="14.00" fill="#666666">[bigint]</text>
<polygon fill="none" stroke="#000000" points="46,-322.5 46,-352.5 408,-352.5 408,-322.5 46,-322.5"/>
<text text-anchor="start" x="53" y="-333.9" font-family="Arial" font-size="14.00" fill="#000000">taggable_type </text>
<text text-anchor="start" x="144.8218" y="-333.9" font-family="Arial" font-size="14.00" fill="#666666">[varchar]</text>
<polygon fill="none" stroke="#000000" stroke-width="3" points="44.5,-321.5 44.5,-479.5 409.5,-479.5 409.5,-321.5 44.5,-321.5"/>
</g>
<!-- public.motor_tags -->
<g id="node2" class="node">
<title>public.motor_tags</title>
<polygon fill="#efefef" stroke="transparent" points="67,-162.5 67,-197.5 387,-197.5 387,-162.5 67,-162.5"/>
<polygon fill="none" stroke="#000000" points="67,-162.5 67,-197.5 387,-197.5 387,-162.5 67,-162.5"/>
<text text-anchor="start" x="92.2015" y="-175.3" font-family="Arial Bold" font-size="18.00" fill="#000000">public.motor_tags</text>
<text text-anchor="start" x="234.2305" y="-175.3" font-family="Arial" font-size="14.00" fill="#000000">    </text>
<text text-anchor="start" x="268.4353" y="-175.3" font-family="Arial" font-size="14.00" fill="#666666">[BASE TABLE]</text>
<polygon fill="none" stroke="#000000" points="67,-132.5 67,-162.5 387,-162.5 387,-132.5 67,-132.5"/>
<text text-anchor="start" x="74" y="-143.9" font-family="Arial" font-size="14.00" fill="#000000">id    </text>
<text text-anchor="start" x="119.094" y="-143.9" font-family="Arial" font-size="14.00" fill="#666666">[bigint]</text>
<polygon fill="none" stroke="#000000" points="67,-102.5 67,-132.5 387,-132.5 387,-102.5 67,-102.5"/>
<text text-anchor="start" x="74" y="-113.9" font-family="Arial" font-size="14.00" fill="#000000">name    </text>
<text text-anchor="start" x="143.2132" y="-113.9" font-family="Arial" font-size="14.00" fill="#666666">[varchar]</text>
<polygon fill="none" stroke="#000000" points="67,-72.5 67,-102.5 387,-102.5 387,-72.5 67,-72.5"/>
<text text-anchor="start" x="74" y="-83.9" font-family="Arial" font-size="14.00" fill="#000000">created_at    </text>
<text text-anchor="start" x="174.3422" y="-83.9" font-family="Arial" font-size="14.00" fill="#666666">[timestamp(6) without time zone]</text>
<polygon fill="none" stroke="#000000" points="67,-42.5 67,-72.5 387,-72.5 387,-42.5 67,-42.5"/>
<text text-anchor="start" x="73.7546" y="-53.9" font-family="Arial" font-size="14.00" fill="#000000">updated_at    </text>
<text text-anchor="start" x="178.0014" y="-53.9" font-family="Arial" font-size="14.00" fill="#666666">[timestamp(6) without time zone]</text>
</g>
<!-- public.motor_taggable_tags&#45;&gt;public.motor_tags -->
<g id="edge1" class="edge">
<title>public.motor_taggable_tags:tag_id&#45;&gt;public.motor_tags:id</title>
<path fill="none" stroke="#000000" d="M418.0664,-396.7828C518.1015,-382.1191 495.018,-147.5 387,-147.5"/>
<polygon fill="#000000" stroke="#000000" points="417.9747,-396.7893 407.6802,-393.0114 412.9874,-397.1446 408,-397.5 408,-397.5 408,-397.5 412.9874,-397.1446 408.3198,-401.9886 417.9747,-396.7893 417.9747,-396.7893"/>
<text text-anchor="start" x="415.3275" y="-407.5" font-family="Arial" font-size="10.00" fill="#000000">FOREIGN KEY (tag_id) REFERENCES motor_tags(id)</text>
</g>
</g>
</svg>
