<?xml version="1.0" encoding="UTF-8" standalone="no"?>
<!DOCTYPE svg PUBLIC "-//W3C//DTD SVG 1.1//EN"
 "http://www.w3.org/Graphics/SVG/1.1/DTD/svg11.dtd">
<!-- Generated by graphviz version 2.40.1 (20161225.0304)
 -->
<!-- Title: public.model_servers Pages: 1 -->
<svg width="690pt" height="1012pt"
 viewBox="0.00 0.00 690.00 1012.00" xmlns="http://www.w3.org/2000/svg" xmlns:xlink="http://www.w3.org/1999/xlink">
<g id="graph0" class="graph" transform="scale(1 1) rotate(0) translate(4 1008)">
<title>public.model_servers</title>
<polygon fill="#ffffff" stroke="transparent" points="-4,4 -4,-1008 686,-1008 686,4 -4,4"/>
<!-- public.model_servers -->
<g id="node1" class="node">
<title>public.model_servers</title>
<polygon fill="#efefef" stroke="transparent" points="323,-345.5 323,-380.5 634,-380.5 634,-345.5 323,-345.5"/>
<polygon fill="none" stroke="#000000" points="323,-345.5 323,-380.5 634,-380.5 634,-345.5 323,-345.5"/>
<text text-anchor="start" x="329.7074" y="-358.3" font-family="Arial Bold" font-size="18.00" fill="#000000">public.model_servers</text>
<text text-anchor="start" x="499.7246" y="-358.3" font-family="Arial" font-size="14.00" fill="#000000">    </text>
<text text-anchor="start" x="533.9294" y="-358.3" font-family="Arial" font-size="14.00" fill="#666666">[BASE TABLE]</text>
<polygon fill="none" stroke="#000000" points="323,-315.5 323,-345.5 634,-345.5 634,-315.5 323,-315.5"/>
<text text-anchor="start" x="330" y="-326.9" font-family="Arial" font-size="14.00" fill="#000000">id </text>
<text text-anchor="start" x="344.7798" y="-326.9" font-family="Arial" font-size="14.00" fill="#666666">[bigint]</text>
<polygon fill="none" stroke="#000000" points="323,-285.5 323,-315.5 634,-315.5 634,-285.5 323,-285.5"/>
<text text-anchor="start" x="330" y="-296.9" font-family="Arial" font-size="14.00" fill="#000000">name </text>
<text text-anchor="start" x="368.899" y="-296.9" font-family="Arial" font-size="14.00" fill="#666666">[varchar]</text>
<polygon fill="none" stroke="#000000" points="323,-255.5 323,-285.5 634,-285.5 634,-255.5 323,-255.5"/>
<text text-anchor="start" x="330" y="-266.9" font-family="Arial" font-size="14.00" fill="#000000">url </text>
<text text-anchor="start" x="349.4404" y="-266.9" font-family="Arial" font-size="14.00" fill="#666666">[varchar]</text>
<polygon fill="none" stroke="#000000" points="323,-225.5 323,-255.5 634,-255.5 634,-225.5 323,-225.5"/>
<text text-anchor="start" x="330" y="-236.9" font-family="Arial" font-size="14.00" fill="#000000">provider </text>
<text text-anchor="start" x="384.4488" y="-236.9" font-family="Arial" font-size="14.00" fill="#666666">[integer]</text>
<polygon fill="none" stroke="#000000" points="323,-195.5 323,-225.5 634,-225.5 634,-195.5 323,-195.5"/>
<text text-anchor="start" x="330" y="-206.9" font-family="Arial" font-size="14.00" fill="#000000">active </text>
<text text-anchor="start" x="370.453" y="-206.9" font-family="Arial" font-size="14.00" fill="#666666">[boolean]</text>
<polygon fill="none" stroke="#000000" points="323,-165.5 323,-195.5 634,-195.5 634,-165.5 323,-165.5"/>
<text text-anchor="start" x="330" y="-176.9" font-family="Arial" font-size="14.00" fill="#000000">created_at </text>
<text text-anchor="start" x="400.028" y="-176.9" font-family="Arial" font-size="14.00" fill="#666666">[timestamp(6) without time zone]</text>
<polygon fill="none" stroke="#000000" points="323,-135.5 323,-165.5 634,-165.5 634,-135.5 323,-135.5"/>
<text text-anchor="start" x="330" y="-146.9" font-family="Arial" font-size="14.00" fill="#000000">updated_at </text>
<text text-anchor="start" x="403.9326" y="-146.9" font-family="Arial" font-size="14.00" fill="#666666">[timestamp(6) without time zone]</text>
<polygon fill="none" stroke="#000000" points="323,-105.5 323,-135.5 634,-135.5 634,-105.5 323,-105.5"/>
<text text-anchor="start" x="330" y="-116.9" font-family="Arial" font-size="14.00" fill="#000000">provisioned </text>
<text text-anchor="start" x="405.46" y="-116.9" font-family="Arial" font-size="14.00" fill="#666666">[boolean]</text>
<polygon fill="none" stroke="#000000" points="323,-75.5 323,-105.5 634,-105.5 634,-75.5 323,-75.5"/>
<text text-anchor="start" x="330" y="-86.9" font-family="Arial" font-size="14.00" fill="#000000">available </text>
<text text-anchor="start" x="389.1234" y="-86.9" font-family="Arial" font-size="14.00" fill="#666666">[boolean]</text>
<polygon fill="none" stroke="#000000" points="323,-45.5 323,-75.5 634,-75.5 634,-45.5 323,-45.5"/>
<text text-anchor="start" x="330" y="-56.9" font-family="Arial" font-size="14.00" fill="#000000">api_key </text>
<text text-anchor="start" x="382.1276" y="-56.9" font-family="Arial" font-size="14.00" fill="#666666">[varchar]</text>
<polygon fill="none" stroke="#000000" stroke-width="3" points="321,-44.5 321,-382.5 635,-382.5 635,-44.5 321,-44.5"/>
</g>
<!-- public.model_configs -->
<g id="node2" class="node">
<title>public.model_configs</title>
<polygon fill="#efefef" stroke="transparent" points="319,-925.5 319,-960.5 639,-960.5 639,-925.5 319,-925.5"/>
<polygon fill="none" stroke="#000000" points="319,-925.5 319,-960.5 639,-960.5 639,-925.5 319,-925.5"/>
<text text-anchor="start" x="331.1983" y="-938.3" font-family="Arial Bold" font-size="18.00" fill="#000000">public.model_configs</text>
<text text-anchor="start" x="499.2337" y="-938.3" font-family="Arial" font-size="14.00" fill="#000000">    </text>
<text text-anchor="start" x="533.4385" y="-938.3" font-family="Arial" font-size="14.00" fill="#666666">[BASE TABLE]</text>
<polygon fill="none" stroke="#000000" points="319,-895.5 319,-925.5 639,-925.5 639,-895.5 319,-895.5"/>
<text text-anchor="start" x="326" y="-906.9" font-family="Arial" font-size="14.00" fill="#000000">id    </text>
<text text-anchor="start" x="371.094" y="-906.9" font-family="Arial" font-size="14.00" fill="#666666">[bigint]</text>
<polygon fill="none" stroke="#000000" points="319,-865.5 319,-895.5 639,-895.5 639,-865.5 319,-865.5"/>
<text text-anchor="start" x="326" y="-876.9" font-family="Arial" font-size="14.00" fill="#000000">name    </text>
<text text-anchor="start" x="395.2132" y="-876.9" font-family="Arial" font-size="14.00" fill="#666666">[varchar]</text>
<polygon fill="none" stroke="#000000" points="319,-835.5 319,-865.5 639,-865.5 639,-835.5 319,-835.5"/>
<text text-anchor="start" x="326" y="-846.9" font-family="Arial" font-size="14.00" fill="#000000">model    </text>
<text text-anchor="start" x="398.3198" y="-846.9" font-family="Arial" font-size="14.00" fill="#666666">[varchar]</text>
<polygon fill="none" stroke="#000000" points="319,-805.5 319,-835.5 639,-835.5 639,-805.5 319,-805.5"/>
<text text-anchor="start" x="326" y="-816.9" font-family="Arial" font-size="14.00" fill="#000000">temperature    </text>
<text text-anchor="start" x="435.6634" y="-816.9" font-family="Arial" font-size="14.00" fill="#666666">[double precision]</text>
<polygon fill="none" stroke="#000000" points="319,-775.5 319,-805.5 639,-805.5 639,-775.5 319,-775.5"/>
<text text-anchor="start" x="326" y="-786.9" font-family="Arial" font-size="14.00" fill="#000000">system_prompt    </text>
<text text-anchor="start" x="455.8808" y="-786.9" font-family="Arial" font-size="14.00" fill="#666666">[varchar]</text>
<polygon fill="none" stroke="#000000" points="319,-745.5 319,-775.5 639,-775.5 639,-745.5 319,-745.5"/>
<text text-anchor="start" x="326" y="-756.9" font-family="Arial" font-size="14.00" fill="#000000">created_at    </text>
<text text-anchor="start" x="426.3422" y="-756.9" font-family="Arial" font-size="14.00" fill="#666666">[timestamp(6) without time zone]</text>
<polygon fill="none" stroke="#000000" points="319,-715.5 319,-745.5 639,-745.5 639,-715.5 319,-715.5"/>
<text text-anchor="start" x="325.7546" y="-726.9" font-family="Arial" font-size="14.00" fill="#000000">updated_at    </text>
<text text-anchor="start" x="430.0014" y="-726.9" font-family="Arial" font-size="14.00" fill="#666666">[timestamp(6) without time zone]</text>
<polygon fill="none" stroke="#000000" points="319,-685.5 319,-715.5 639,-715.5 639,-685.5 319,-685.5"/>
<text text-anchor="start" x="326" y="-696.9" font-family="Arial" font-size="14.00" fill="#000000">embedding    </text>
<text text-anchor="start" x="429.4502" y="-696.9" font-family="Arial" font-size="14.00" fill="#666666">[boolean]</text>
<polygon fill="none" stroke="#000000" points="319,-655.5 319,-685.5 639,-685.5 639,-655.5 319,-655.5"/>
<text text-anchor="start" x="326" y="-666.9" font-family="Arial" font-size="14.00" fill="#000000">provisioned    </text>
<text text-anchor="start" x="431.7742" y="-666.9" font-family="Arial" font-size="14.00" fill="#666666">[boolean]</text>
<polygon fill="none" stroke="#000000" points="319,-625.5 319,-655.5 639,-655.5 639,-625.5 319,-625.5"/>
<text text-anchor="start" x="326" y="-636.9" font-family="Arial" font-size="14.00" fill="#000000">available    </text>
<text text-anchor="start" x="415.4376" y="-636.9" font-family="Arial" font-size="14.00" fill="#666666">[boolean]</text>
<polygon fill="none" stroke="#000000" points="319,-595.5 319,-625.5 639,-625.5 639,-595.5 319,-595.5"/>
<text text-anchor="start" x="326" y="-606.9" font-family="Arial" font-size="14.00" fill="#000000">api_version    </text>
<text text-anchor="start" x="431.7742" y="-606.9" font-family="Arial" font-size="14.00" fill="#666666">[varchar]</text>
<polygon fill="none" stroke="#000000" points="319,-565.5 319,-595.5 639,-595.5 639,-565.5 319,-565.5"/>
<text text-anchor="start" x="326" y="-576.9" font-family="Arial" font-size="14.00" fill="#000000">model_server_id    </text>
<text text-anchor="start" x="463.6606" y="-576.9" font-family="Arial" font-size="14.00" fill="#666666">[bigint]</text>
<polygon fill="none" stroke="#000000" points="319,-535.5 319,-565.5 639,-565.5 639,-535.5 319,-535.5"/>
<text text-anchor="start" x="326" y="-546.9" font-family="Arial" font-size="14.00" fill="#000000">distance_min    </text>
<text text-anchor="start" x="442.6648" y="-546.9" font-family="Arial" font-size="14.00" fill="#666666">[double precision]</text>
<polygon fill="none" stroke="#000000" points="319,-505.5 319,-535.5 639,-535.5 639,-505.5 319,-505.5"/>
<text text-anchor="start" x="326" y="-516.9" font-family="Arial" font-size="14.00" fill="#000000">distance_max    </text>
<text text-anchor="start" x="446.5582" y="-516.9" font-family="Arial" font-size="14.00" fill="#666666">[double precision]</text>
</g>
<!-- public.model_configs&#45;&gt;public.model_servers -->
<g id="edge1" class="edge">
<title>public.model_configs:model_server_id&#45;&gt;public.model_servers:id</title>
<path fill="none" stroke="#000000" d="M308.9996,-579.3763C269.318,-569.6519 286.6775,-499.2269 319,-463 412.8121,-357.8559 540.1879,-532.1441 634,-427 662.5534,-394.9975 676.8889,-330.5 634,-330.5"/>
<polygon fill="#000000" stroke="#000000" points="309.0625,-579.3833 318.4975,-584.9719 314.0313,-579.9416 319,-580.5 319,-580.5 319,-580.5 314.0313,-579.9416 319.5025,-576.0281 309.0625,-579.3833 309.0625,-579.3833"/>
<text text-anchor="start" x="7.2215" y="-590.5" font-family="Arial" font-size="10.00" fill="#000000">FOREIGN KEY (model_server_id) REFERENCES model_servers(id)</text>
</g>
</g>
</svg>
