<?xml version="1.0" encoding="UTF-8" standalone="no"?>
<!DOCTYPE svg PUBLIC "-//W3C//DTD SVG 1.1//EN"
 "http://www.w3.org/Graphics/SVG/1.1/DTD/svg11.dtd">
<!-- Generated by graphviz version 2.40.1 (20161225.0304)
 -->
<!-- Title: public.api_calls Pages: 1 -->
<svg width="390pt" height="615pt"
 viewBox="0.00 0.00 390.00 615.00" xmlns="http://www.w3.org/2000/svg" xmlns:xlink="http://www.w3.org/1999/xlink">
<g id="graph0" class="graph" transform="scale(1 1) rotate(0) translate(4 611)">
<title>public.api_calls</title>
<polygon fill="#ffffff" stroke="transparent" points="-4,4 -4,-611 386,-611 386,4 -4,4"/>
<!-- public.api_calls -->
<g id="node1" class="node">
<title>public.api_calls</title>
<polygon fill="#efefef" stroke="transparent" points="46,-525.5 46,-560.5 336,-560.5 336,-525.5 46,-525.5"/>
<polygon fill="none" stroke="#000000" points="46,-525.5 46,-560.5 336,-560.5 336,-525.5 46,-525.5"/>
<text text-anchor="start" x="66.2077" y="-538.3" font-family="Arial Bold" font-size="18.00" fill="#000000">public.api_calls</text>
<text text-anchor="start" x="188.2243" y="-538.3" font-family="Arial" font-size="14.00" fill="#000000">    </text>
<text text-anchor="start" x="222.4291" y="-538.3" font-family="Arial" font-size="14.00" fill="#666666">[BASE TABLE]</text>
<polygon fill="none" stroke="#000000" points="46,-495.5 46,-525.5 336,-525.5 336,-495.5 46,-495.5"/>
<text text-anchor="start" x="53" y="-506.9" font-family="Arial" font-size="14.00" fill="#000000">id </text>
<text text-anchor="start" x="67.7798" y="-506.9" font-family="Arial" font-size="14.00" fill="#666666">[bigint]</text>
<polygon fill="none" stroke="#000000" points="46,-465.5 46,-495.5 336,-495.5 336,-465.5 46,-465.5"/>
<text text-anchor="start" x="53" y="-476.9" font-family="Arial" font-size="14.00" fill="#000000">service_name </text>
<text text-anchor="start" x="144.014" y="-476.9" font-family="Arial" font-size="14.00" fill="#666666">[varchar]</text>
<polygon fill="none" stroke="#000000" points="46,-435.5 46,-465.5 336,-465.5 336,-435.5 46,-435.5"/>
<text text-anchor="start" x="53" y="-446.9" font-family="Arial" font-size="14.00" fill="#000000">http_method </text>
<text text-anchor="start" x="134.7012" y="-446.9" font-family="Arial" font-size="14.00" fill="#666666">[integer]</text>
<polygon fill="none" stroke="#000000" points="46,-405.5 46,-435.5 336,-435.5 336,-405.5 46,-405.5"/>
<text text-anchor="start" x="53" y="-416.9" font-family="Arial" font-size="14.00" fill="#000000">url </text>
<text text-anchor="start" x="72.4404" y="-416.9" font-family="Arial" font-size="14.00" fill="#666666">[varchar]</text>
<polygon fill="none" stroke="#000000" points="46,-375.5 46,-405.5 336,-405.5 336,-375.5 46,-375.5"/>
<text text-anchor="start" x="53" y="-386.9" font-family="Arial" font-size="14.00" fill="#000000">headers </text>
<text text-anchor="start" x="107.4642" y="-386.9" font-family="Arial" font-size="14.00" fill="#666666">[jsonb]</text>
<polygon fill="none" stroke="#000000" points="46,-345.5 46,-375.5 336,-375.5 336,-345.5 46,-345.5"/>
<text text-anchor="start" x="53" y="-356.9" font-family="Arial" font-size="14.00" fill="#000000">body </text>
<text text-anchor="start" x="87.2384" y="-356.9" font-family="Arial" font-size="14.00" fill="#666666">[jsonb]</text>
<polygon fill="none" stroke="#000000" points="46,-315.5 46,-345.5 336,-345.5 336,-315.5 46,-315.5"/>
<text text-anchor="start" x="53" y="-326.9" font-family="Arial" font-size="14.00" fill="#000000">body_length </text>
<text text-anchor="start" x="133.1486" y="-326.9" font-family="Arial" font-size="14.00" fill="#666666">[integer]</text>
<polygon fill="none" stroke="#000000" points="46,-285.5 46,-315.5 336,-315.5 336,-285.5 46,-285.5"/>
<text text-anchor="start" x="53" y="-296.9" font-family="Arial" font-size="14.00" fill="#000000">response_code </text>
<text text-anchor="start" x="152.5946" y="-296.9" font-family="Arial" font-size="14.00" fill="#666666">[integer]</text>
<polygon fill="none" stroke="#000000" points="46,-255.5 46,-285.5 336,-285.5 336,-255.5 46,-255.5"/>
<text text-anchor="start" x="53" y="-266.9" font-family="Arial" font-size="14.00" fill="#000000">response_headers </text>
<text text-anchor="start" x="172.8204" y="-266.9" font-family="Arial" font-size="14.00" fill="#666666">[jsonb]</text>
<polygon fill="none" stroke="#000000" points="46,-225.5 46,-255.5 336,-255.5 336,-225.5 46,-225.5"/>
<text text-anchor="start" x="53" y="-236.9" font-family="Arial" font-size="14.00" fill="#000000">response_body </text>
<text text-anchor="start" x="152.5946" y="-236.9" font-family="Arial" font-size="14.00" fill="#666666">[jsonb]</text>
<polygon fill="none" stroke="#000000" points="46,-195.5 46,-225.5 336,-225.5 336,-195.5 46,-195.5"/>
<text text-anchor="start" x="53" y="-206.9" font-family="Arial" font-size="14.00" fill="#000000">response_length </text>
<text text-anchor="start" x="160.3744" y="-206.9" font-family="Arial" font-size="14.00" fill="#666666">[integer]</text>
<polygon fill="none" stroke="#000000" points="46,-165.5 46,-195.5 336,-195.5 336,-165.5 46,-165.5"/>
<text text-anchor="start" x="53" y="-176.9" font-family="Arial" font-size="14.00" fill="#000000">traceable_type </text>
<text text-anchor="start" x="148.6998" y="-176.9" font-family="Arial" font-size="14.00" fill="#666666">[varchar]</text>
<polygon fill="none" stroke="#000000" points="46,-135.5 46,-165.5 336,-165.5 336,-135.5 46,-135.5"/>
<text text-anchor="start" x="53" y="-146.9" font-family="Arial" font-size="14.00" fill="#000000">traceable_id </text>
<text text-anchor="start" x="133.1332" y="-146.9" font-family="Arial" font-size="14.00" fill="#666666">[bigint]</text>
<polygon fill="none" stroke="#000000" points="46,-105.5 46,-135.5 336,-135.5 336,-105.5 46,-105.5"/>
<text text-anchor="start" x="53" y="-116.9" font-family="Arial" font-size="14.00" fill="#000000">created_at </text>
<text text-anchor="start" x="123.028" y="-116.9" font-family="Arial" font-size="14.00" fill="#666666">[timestamp(6) without time zone]</text>
<polygon fill="none" stroke="#000000" points="46,-75.5 46,-105.5 336,-105.5 336,-75.5 46,-75.5"/>
<text text-anchor="start" x="52.9117" y="-86.9" font-family="Arial" font-size="14.00" fill="#000000">updated_at </text>
<text text-anchor="start" x="126.8443" y="-86.9" font-family="Arial" font-size="14.00" fill="#666666">[timestamp(6) without time zone]</text>
<polygon fill="none" stroke="#000000" points="46,-45.5 46,-75.5 336,-75.5 336,-45.5 46,-45.5"/>
<text text-anchor="start" x="53" y="-56.9" font-family="Arial" font-size="14.00" fill="#000000">incoming </text>
<text text-anchor="start" x="112.8948" y="-56.9" font-family="Arial" font-size="14.00" fill="#666666">[boolean]</text>
<polygon fill="none" stroke="#000000" stroke-width="3" points="44.5,-44.5 44.5,-562.5 337.5,-562.5 337.5,-44.5 44.5,-44.5"/>
</g>
</g>
</svg>
