<?xml version="1.0" encoding="UTF-8" standalone="no"?>
<!DOCTYPE svg PUBLIC "-//W3C//DTD SVG 1.1//EN"
 "http://www.w3.org/Graphics/SVG/1.1/DTD/svg11.dtd">
<!-- Generated by graphviz version 2.40.1 (20161225.0304)
 -->
<!-- Title: public.graph_entity_descriptions Pages: 1 -->
<svg width="968pt" height="742pt"
 viewBox="0.00 0.00 968.00 742.00" xmlns="http://www.w3.org/2000/svg" xmlns:xlink="http://www.w3.org/1999/xlink">
<g id="graph0" class="graph" transform="scale(1 1) rotate(0) translate(4 738)">
<title>public.graph_entity_descriptions</title>
<polygon fill="#ffffff" stroke="transparent" points="-4,4 -4,-738 964,-738 964,4 -4,4"/>
<!-- public.graph_entity_descriptions -->
<g id="node1" class="node">
<title>public.graph_entity_descriptions</title>
<polygon fill="#efefef" stroke="transparent" points="311,-652.5 311,-687.5 709,-687.5 709,-652.5 311,-652.5"/>
<polygon fill="none" stroke="#000000" points="311,-652.5 311,-687.5 709,-687.5 709,-652.5 311,-652.5"/>
<text text-anchor="start" x="317.6843" y="-665.3" font-family="Arial Bold" font-size="18.00" fill="#000000">public.graph_entity_descriptions</text>
<text text-anchor="start" x="574.7477" y="-665.3" font-family="Arial" font-size="14.00" fill="#000000">    </text>
<text text-anchor="start" x="608.9525" y="-665.3" font-family="Arial" font-size="14.00" fill="#666666">[BASE TABLE]</text>
<polygon fill="none" stroke="#000000" points="311,-622.5 311,-652.5 709,-652.5 709,-622.5 311,-622.5"/>
<text text-anchor="start" x="318" y="-633.9" font-family="Arial" font-size="14.00" fill="#000000">id </text>
<text text-anchor="start" x="332.7798" y="-633.9" font-family="Arial" font-size="14.00" fill="#666666">[bigint]</text>
<polygon fill="none" stroke="#000000" points="311,-592.5 311,-622.5 709,-622.5 709,-592.5 311,-592.5"/>
<text text-anchor="start" x="318" y="-603.9" font-family="Arial" font-size="14.00" fill="#000000">graph_entity_id </text>
<text text-anchor="start" x="417.589" y="-603.9" font-family="Arial" font-size="14.00" fill="#666666">[bigint]</text>
<polygon fill="none" stroke="#000000" points="311,-562.5 311,-592.5 709,-592.5 709,-562.5 311,-562.5"/>
<text text-anchor="start" x="318" y="-573.9" font-family="Arial" font-size="14.00" fill="#000000">description </text>
<text text-anchor="start" x="389.568" y="-573.9" font-family="Arial" font-size="14.00" fill="#666666">[varchar]</text>
<polygon fill="none" stroke="#000000" points="311,-532.5 311,-562.5 709,-562.5 709,-532.5 311,-532.5"/>
<text text-anchor="start" x="318" y="-543.9" font-family="Arial" font-size="14.00" fill="#000000">chunk_id </text>
<text text-anchor="start" x="377.9102" y="-543.9" font-family="Arial" font-size="14.00" fill="#666666">[bigint]</text>
<polygon fill="none" stroke="#000000" points="311,-502.5 311,-532.5 709,-532.5 709,-502.5 311,-502.5"/>
<text text-anchor="start" x="318" y="-513.9" font-family="Arial" font-size="14.00" fill="#000000">created_at </text>
<text text-anchor="start" x="388.028" y="-513.9" font-family="Arial" font-size="14.00" fill="#666666">[timestamp(6) without time zone]</text>
<polygon fill="none" stroke="#000000" points="311,-472.5 311,-502.5 709,-502.5 709,-472.5 311,-472.5"/>
<text text-anchor="start" x="318" y="-483.9" font-family="Arial" font-size="14.00" fill="#000000">updated_at </text>
<text text-anchor="start" x="391.9326" y="-483.9" font-family="Arial" font-size="14.00" fill="#666666">[timestamp(6) without time zone]</text>
<polygon fill="none" stroke="#000000" stroke-width="3" points="309.5,-471.5 309.5,-689.5 710.5,-689.5 710.5,-471.5 309.5,-471.5"/>
</g>
<!-- public.graph_entities -->
<g id="node2" class="node">
<title>public.graph_entities</title>
<polygon fill="#efefef" stroke="transparent" points="138,-312.5 138,-347.5 458,-347.5 458,-312.5 138,-312.5"/>
<polygon fill="none" stroke="#000000" points="138,-312.5 138,-347.5 458,-347.5 458,-312.5 138,-312.5"/>
<text text-anchor="start" x="151.6941" y="-325.3" font-family="Arial Bold" font-size="18.00" fill="#000000">public.graph_entities</text>
<text text-anchor="start" x="316.7379" y="-325.3" font-family="Arial" font-size="14.00" fill="#000000">    </text>
<text text-anchor="start" x="350.9427" y="-325.3" font-family="Arial" font-size="14.00" fill="#666666">[BASE TABLE]</text>
<polygon fill="none" stroke="#000000" points="138,-282.5 138,-312.5 458,-312.5 458,-282.5 138,-282.5"/>
<text text-anchor="start" x="145" y="-293.9" font-family="Arial" font-size="14.00" fill="#000000">id    </text>
<text text-anchor="start" x="190.094" y="-293.9" font-family="Arial" font-size="14.00" fill="#666666">[bigint]</text>
<polygon fill="none" stroke="#000000" points="138,-252.5 138,-282.5 458,-282.5 458,-252.5 138,-252.5"/>
<text text-anchor="start" x="145" y="-263.9" font-family="Arial" font-size="14.00" fill="#000000">name    </text>
<text text-anchor="start" x="214.2132" y="-263.9" font-family="Arial" font-size="14.00" fill="#666666">[varchar]</text>
<polygon fill="none" stroke="#000000" points="138,-222.5 138,-252.5 458,-252.5 458,-222.5 138,-222.5"/>
<text text-anchor="start" x="145" y="-233.9" font-family="Arial" font-size="14.00" fill="#000000">entity_type    </text>
<text text-anchor="start" x="246.8962" y="-233.9" font-family="Arial" font-size="14.00" fill="#666666">[varchar]</text>
<polygon fill="none" stroke="#000000" points="138,-192.5 138,-222.5 458,-222.5 458,-192.5 138,-192.5"/>
<text text-anchor="start" x="145" y="-203.9" font-family="Arial" font-size="14.00" fill="#000000">collection_id    </text>
<text text-anchor="start" x="256.2174" y="-203.9" font-family="Arial" font-size="14.00" fill="#666666">[bigint]</text>
<polygon fill="none" stroke="#000000" points="138,-162.5 138,-192.5 458,-192.5 458,-162.5 138,-162.5"/>
<text text-anchor="start" x="145" y="-173.9" font-family="Arial" font-size="14.00" fill="#000000">summary    </text>
<text text-anchor="start" x="236.7518" y="-173.9" font-family="Arial" font-size="14.00" fill="#666666">[varchar]</text>
<polygon fill="none" stroke="#000000" points="138,-132.5 138,-162.5 458,-162.5 458,-132.5 138,-132.5"/>
<text text-anchor="start" x="145" y="-143.9" font-family="Arial" font-size="14.00" fill="#000000">summary_outdated    </text>
<text text-anchor="start" x="299.0112" y="-143.9" font-family="Arial" font-size="14.00" fill="#666666">[boolean]</text>
<polygon fill="none" stroke="#000000" points="138,-102.5 138,-132.5 458,-132.5 458,-102.5 138,-102.5"/>
<text text-anchor="start" x="145" y="-113.9" font-family="Arial" font-size="14.00" fill="#000000">created_at    </text>
<text text-anchor="start" x="245.3422" y="-113.9" font-family="Arial" font-size="14.00" fill="#666666">[timestamp(6) without time zone]</text>
<polygon fill="none" stroke="#000000" points="138,-72.5 138,-102.5 458,-102.5 458,-72.5 138,-72.5"/>
<text text-anchor="start" x="144.7546" y="-83.9" font-family="Arial" font-size="14.00" fill="#000000">updated_at    </text>
<text text-anchor="start" x="249.0014" y="-83.9" font-family="Arial" font-size="14.00" fill="#666666">[timestamp(6) without time zone]</text>
<polygon fill="none" stroke="#000000" points="138,-42.5 138,-72.5 458,-72.5 458,-42.5 138,-42.5"/>
<text text-anchor="start" x="145" y="-53.9" font-family="Arial" font-size="14.00" fill="#000000">vector_id    </text>
<text text-anchor="start" x="235.993" y="-53.9" font-family="Arial" font-size="14.00" fill="#666666">[varchar]</text>
</g>
<!-- public.graph_entity_descriptions&#45;&gt;public.graph_entities -->
<g id="edge1" class="edge">
<title>public.graph_entity_descriptions:graph_entity_id&#45;&gt;public.graph_entities:id</title>
<path fill="none" stroke="#000000" d="M300.852,-606.8049C233.574,-597.063 263.703,-487.2776 311,-427 352.5224,-374.0818 416.4776,-443.9182 458,-391 483.6525,-358.3073 499.5556,-297.5 458,-297.5"/>
<polygon fill="#000000" stroke="#000000" points="301.0234,-606.8166 310.6925,-611.9895 306.0117,-607.1583 311,-607.5 311,-607.5 311,-607.5 306.0117,-607.1583 311.3075,-603.0105 301.0234,-606.8166 301.0234,-606.8166"/>
<text text-anchor="start" x="7.3735" y="-617.5" font-family="Arial" font-size="10.00" fill="#000000">FOREIGN KEY (graph_entity_id) REFERENCES graph_entities(id)</text>
</g>
<!-- public.chunks -->
<g id="node3" class="node">
<title>public.chunks</title>
<polygon fill="#efefef" stroke="transparent" points="562,-312.5 562,-347.5 882,-347.5 882,-312.5 562,-312.5"/>
<polygon fill="none" stroke="#000000" points="562,-312.5 562,-347.5 882,-347.5 882,-312.5 562,-312.5"/>
<text text-anchor="start" x="603.7021" y="-325.3" font-family="Arial Bold" font-size="18.00" fill="#000000">public.chunks</text>
<text text-anchor="start" x="712.7299" y="-325.3" font-family="Arial" font-size="14.00" fill="#000000">    </text>
<text text-anchor="start" x="746.9347" y="-325.3" font-family="Arial" font-size="14.00" fill="#666666">[BASE TABLE]</text>
<polygon fill="none" stroke="#000000" points="562,-282.5 562,-312.5 882,-312.5 882,-282.5 562,-282.5"/>
<text text-anchor="start" x="569" y="-293.9" font-family="Arial" font-size="14.00" fill="#000000">id    </text>
<text text-anchor="start" x="614.094" y="-293.9" font-family="Arial" font-size="14.00" fill="#666666">[bigint]</text>
<polygon fill="none" stroke="#000000" points="562,-252.5 562,-282.5 882,-282.5 882,-252.5 562,-252.5"/>
<text text-anchor="start" x="569" y="-263.9" font-family="Arial" font-size="14.00" fill="#000000">document_id    </text>
<text text-anchor="start" x="683.3408" y="-263.9" font-family="Arial" font-size="14.00" fill="#666666">[bigint]</text>
<polygon fill="none" stroke="#000000" points="562,-222.5 562,-252.5 882,-252.5 882,-222.5 562,-222.5"/>
<text text-anchor="start" x="569" y="-233.9" font-family="Arial" font-size="14.00" fill="#000000">vector_id    </text>
<text text-anchor="start" x="659.993" y="-233.9" font-family="Arial" font-size="14.00" fill="#666666">[varchar]</text>
<polygon fill="none" stroke="#000000" points="562,-192.5 562,-222.5 882,-222.5 882,-192.5 562,-192.5"/>
<text text-anchor="start" x="569" y="-203.9" font-family="Arial" font-size="14.00" fill="#000000">content    </text>
<text text-anchor="start" x="649.1164" y="-203.9" font-family="Arial" font-size="14.00" fill="#666666">[varchar]</text>
<polygon fill="none" stroke="#000000" points="562,-162.5 562,-192.5 882,-192.5 882,-162.5 562,-162.5"/>
<text text-anchor="start" x="569" y="-173.9" font-family="Arial" font-size="14.00" fill="#000000">embeddings    </text>
<text text-anchor="start" x="679.4502" y="-173.9" font-family="Arial" font-size="14.00" fill="#666666">[jsonb]</text>
<polygon fill="none" stroke="#000000" points="562,-132.5 562,-162.5 882,-162.5 882,-132.5 562,-132.5"/>
<text text-anchor="start" x="569" y="-143.9" font-family="Arial" font-size="14.00" fill="#000000">created_at    </text>
<text text-anchor="start" x="669.3422" y="-143.9" font-family="Arial" font-size="14.00" fill="#666666">[timestamp(6) without time zone]</text>
<polygon fill="none" stroke="#000000" points="562,-102.5 562,-132.5 882,-132.5 882,-102.5 562,-102.5"/>
<text text-anchor="start" x="568.7546" y="-113.9" font-family="Arial" font-size="14.00" fill="#000000">updated_at    </text>
<text text-anchor="start" x="673.0014" y="-113.9" font-family="Arial" font-size="14.00" fill="#666666">[timestamp(6) without time zone]</text>
<polygon fill="none" stroke="#000000" points="562,-72.5 562,-102.5 882,-102.5 882,-72.5 562,-72.5"/>
<text text-anchor="start" x="569" y="-83.9" font-family="Arial" font-size="14.00" fill="#000000">embedding_content    </text>
<text text-anchor="start" x="726.1444" y="-83.9" font-family="Arial" font-size="14.00" fill="#666666">[varchar]</text>
<polygon fill="none" stroke="#000000" points="562,-42.5 562,-72.5 882,-72.5 882,-42.5 562,-42.5"/>
<text text-anchor="start" x="569" y="-53.9" font-family="Arial" font-size="14.00" fill="#000000">entities_extracted    </text>
<text text-anchor="start" x="712.9018" y="-53.9" font-family="Arial" font-size="14.00" fill="#666666">[boolean]</text>
</g>
<!-- public.graph_entity_descriptions&#45;&gt;public.chunks -->
<g id="edge2" class="edge">
<title>public.graph_entity_descriptions:chunk_id&#45;&gt;public.chunks:id</title>
<path fill="none" stroke="#000000" d="M718.9646,-546.438C759.6947,-536.9551 739.8002,-466.2532 709,-427 667.4776,-374.0818 603.5224,-443.9182 562,-391 536.3475,-358.3073 520.4444,-297.5 562,-297.5"/>
<polygon fill="#000000" stroke="#000000" points="718.9437,-546.4401 708.5231,-543.0253 713.9718,-546.9701 709,-547.5 709,-547.5 709,-547.5 713.9718,-546.9701 709.4769,-551.9747 718.9437,-546.4401 718.9437,-546.4401"/>
<text text-anchor="start" x="716.1045" y="-557.5" font-family="Arial" font-size="10.00" fill="#000000">FOREIGN KEY (chunk_id) REFERENCES chunks(id)</text>
</g>
</g>
</svg>
