<?xml version="1.0" encoding="UTF-8" standalone="no"?>
<!DOCTYPE svg PUBLIC "-//W3C//DTD SVG 1.1//EN"
 "http://www.w3.org/Graphics/SVG/1.1/DTD/svg11.dtd">
<!-- Generated by graphviz version 2.40.1 (20161225.0304)
 -->
<!-- Title: public.motor_queries Pages: 1 -->
<svg width="653pt" height="952pt"
 viewBox="0.00 0.00 653.00 952.00" xmlns="http://www.w3.org/2000/svg" xmlns:xlink="http://www.w3.org/1999/xlink">
<g id="graph0" class="graph" transform="scale(1 1) rotate(0) translate(4 948)">
<title>public.motor_queries</title>
<polygon fill="#ffffff" stroke="transparent" points="-4,4 -4,-948 649,-948 649,4 -4,4"/>
<!-- public.motor_queries -->
<g id="node1" class="node">
<title>public.motor_queries</title>
<polygon fill="#efefef" stroke="transparent" points="49,-345.5 49,-380.5 357,-380.5 357,-345.5 49,-345.5"/>
<polygon fill="none" stroke="#000000" points="49,-345.5 49,-380.5 357,-380.5 357,-345.5 49,-345.5"/>
<text text-anchor="start" x="55.7032" y="-358.3" font-family="Arial Bold" font-size="18.00" fill="#000000">public.motor_queries</text>
<text text-anchor="start" x="222.7288" y="-358.3" font-family="Arial" font-size="14.00" fill="#000000">    </text>
<text text-anchor="start" x="256.9336" y="-358.3" font-family="Arial" font-size="14.00" fill="#666666">[BASE TABLE]</text>
<polygon fill="none" stroke="#000000" points="49,-315.5 49,-345.5 357,-345.5 357,-315.5 49,-315.5"/>
<text text-anchor="start" x="56" y="-326.9" font-family="Arial" font-size="14.00" fill="#000000">id </text>
<text text-anchor="start" x="70.7798" y="-326.9" font-family="Arial" font-size="14.00" fill="#666666">[bigint]</text>
<polygon fill="none" stroke="#000000" points="49,-285.5 49,-315.5 357,-315.5 357,-285.5 49,-285.5"/>
<text text-anchor="start" x="56" y="-296.9" font-family="Arial" font-size="14.00" fill="#000000">name </text>
<text text-anchor="start" x="94.899" y="-296.9" font-family="Arial" font-size="14.00" fill="#666666">[varchar]</text>
<polygon fill="none" stroke="#000000" points="49,-255.5 49,-285.5 357,-285.5 357,-255.5 49,-255.5"/>
<text text-anchor="start" x="56" y="-266.9" font-family="Arial" font-size="14.00" fill="#000000">description </text>
<text text-anchor="start" x="127.568" y="-266.9" font-family="Arial" font-size="14.00" fill="#666666">[text]</text>
<polygon fill="none" stroke="#000000" points="49,-225.5 49,-255.5 357,-255.5 357,-225.5 49,-225.5"/>
<text text-anchor="start" x="56" y="-236.9" font-family="Arial" font-size="14.00" fill="#000000">sql_body </text>
<text text-anchor="start" x="115.9102" y="-236.9" font-family="Arial" font-size="14.00" fill="#666666">[text]</text>
<polygon fill="none" stroke="#000000" points="49,-195.5 49,-225.5 357,-225.5 357,-195.5 49,-195.5"/>
<text text-anchor="start" x="56" y="-206.9" font-family="Arial" font-size="14.00" fill="#000000">preferences </text>
<text text-anchor="start" x="133.798" y="-206.9" font-family="Arial" font-size="14.00" fill="#666666">[text]</text>
<polygon fill="none" stroke="#000000" points="49,-165.5 49,-195.5 357,-195.5 357,-165.5 49,-165.5"/>
<text text-anchor="start" x="56" y="-176.9" font-family="Arial" font-size="14.00" fill="#000000">author_id </text>
<text text-anchor="start" x="118.244" y="-176.9" font-family="Arial" font-size="14.00" fill="#666666">[bigint]</text>
<polygon fill="none" stroke="#000000" points="49,-135.5 49,-165.5 357,-165.5 357,-135.5 49,-135.5"/>
<text text-anchor="start" x="56" y="-146.9" font-family="Arial" font-size="14.00" fill="#000000">author_type </text>
<text text-anchor="start" x="133.8106" y="-146.9" font-family="Arial" font-size="14.00" fill="#666666">[varchar]</text>
<polygon fill="none" stroke="#000000" points="49,-105.5 49,-135.5 357,-135.5 357,-105.5 49,-105.5"/>
<text text-anchor="start" x="56" y="-116.9" font-family="Arial" font-size="14.00" fill="#000000">deleted_at </text>
<text text-anchor="start" x="125.2566" y="-116.9" font-family="Arial" font-size="14.00" fill="#666666">[timestamp(6) without time zone]</text>
<polygon fill="none" stroke="#000000" points="49,-75.5 49,-105.5 357,-105.5 357,-75.5 49,-75.5"/>
<text text-anchor="start" x="56" y="-86.9" font-family="Arial" font-size="14.00" fill="#000000">created_at </text>
<text text-anchor="start" x="126.028" y="-86.9" font-family="Arial" font-size="14.00" fill="#666666">[timestamp(6) without time zone]</text>
<polygon fill="none" stroke="#000000" points="49,-45.5 49,-75.5 357,-75.5 357,-45.5 49,-45.5"/>
<text text-anchor="start" x="56" y="-56.9" font-family="Arial" font-size="14.00" fill="#000000">updated_at </text>
<text text-anchor="start" x="129.9326" y="-56.9" font-family="Arial" font-size="14.00" fill="#666666">[timestamp(6) without time zone]</text>
<polygon fill="none" stroke="#000000" stroke-width="3" points="47.5,-44.5 47.5,-382.5 358.5,-382.5 358.5,-44.5 47.5,-44.5"/>
</g>
<!-- public.motor_alerts -->
<g id="node2" class="node">
<title>public.motor_alerts</title>
<polygon fill="#efefef" stroke="transparent" points="43,-865.5 43,-900.5 363,-900.5 363,-865.5 43,-865.5"/>
<polygon fill="none" stroke="#000000" points="43,-865.5 43,-900.5 363,-900.5 363,-865.5 43,-865.5"/>
<text text-anchor="start" x="63.2083" y="-878.3" font-family="Arial Bold" font-size="18.00" fill="#000000">public.motor_alerts</text>
<text text-anchor="start" x="215.2237" y="-878.3" font-family="Arial" font-size="14.00" fill="#000000">    </text>
<text text-anchor="start" x="249.4285" y="-878.3" font-family="Arial" font-size="14.00" fill="#666666">[BASE TABLE]</text>
<polygon fill="none" stroke="#000000" points="43,-835.5 43,-865.5 363,-865.5 363,-835.5 43,-835.5"/>
<text text-anchor="start" x="50" y="-846.9" font-family="Arial" font-size="14.00" fill="#000000">id    </text>
<text text-anchor="start" x="95.094" y="-846.9" font-family="Arial" font-size="14.00" fill="#666666">[bigint]</text>
<polygon fill="none" stroke="#000000" points="43,-805.5 43,-835.5 363,-835.5 363,-805.5 43,-805.5"/>
<text text-anchor="start" x="50" y="-816.9" font-family="Arial" font-size="14.00" fill="#000000">query_id    </text>
<text text-anchor="start" x="137.885" y="-816.9" font-family="Arial" font-size="14.00" fill="#666666">[bigint]</text>
<polygon fill="none" stroke="#000000" points="43,-775.5 43,-805.5 363,-805.5 363,-775.5 43,-775.5"/>
<text text-anchor="start" x="50" y="-786.9" font-family="Arial" font-size="14.00" fill="#000000">name    </text>
<text text-anchor="start" x="119.2132" y="-786.9" font-family="Arial" font-size="14.00" fill="#666666">[varchar]</text>
<polygon fill="none" stroke="#000000" points="43,-745.5 43,-775.5 363,-775.5 363,-745.5 43,-745.5"/>
<text text-anchor="start" x="50" y="-756.9" font-family="Arial" font-size="14.00" fill="#000000">description    </text>
<text text-anchor="start" x="151.8822" y="-756.9" font-family="Arial" font-size="14.00" fill="#666666">[text]</text>
<polygon fill="none" stroke="#000000" points="43,-715.5 43,-745.5 363,-745.5 363,-715.5 43,-715.5"/>
<text text-anchor="start" x="50" y="-726.9" font-family="Arial" font-size="14.00" fill="#000000">to_emails    </text>
<text text-anchor="start" x="144.0996" y="-726.9" font-family="Arial" font-size="14.00" fill="#666666">[text]</text>
<polygon fill="none" stroke="#000000" points="43,-685.5 43,-715.5 363,-715.5 363,-685.5 43,-685.5"/>
<text text-anchor="start" x="50" y="-696.9" font-family="Arial" font-size="14.00" fill="#000000">is_enabled    </text>
<text text-anchor="start" x="151.8962" y="-696.9" font-family="Arial" font-size="14.00" fill="#666666">[boolean]</text>
<polygon fill="none" stroke="#000000" points="43,-655.5 43,-685.5 363,-685.5 363,-655.5 43,-655.5"/>
<text text-anchor="start" x="50" y="-666.9" font-family="Arial" font-size="14.00" fill="#000000">preferences    </text>
<text text-anchor="start" x="158.1122" y="-666.9" font-family="Arial" font-size="14.00" fill="#666666">[text]</text>
<polygon fill="none" stroke="#000000" points="43,-625.5 43,-655.5 363,-655.5 363,-625.5 43,-625.5"/>
<text text-anchor="start" x="50" y="-636.9" font-family="Arial" font-size="14.00" fill="#000000">author_id    </text>
<text text-anchor="start" x="142.5582" y="-636.9" font-family="Arial" font-size="14.00" fill="#666666">[bigint]</text>
<polygon fill="none" stroke="#000000" points="43,-595.5 43,-625.5 363,-625.5 363,-595.5 43,-595.5"/>
<text text-anchor="start" x="50" y="-606.9" font-family="Arial" font-size="14.00" fill="#000000">author_type    </text>
<text text-anchor="start" x="158.1248" y="-606.9" font-family="Arial" font-size="14.00" fill="#666666">[varchar]</text>
<polygon fill="none" stroke="#000000" points="43,-565.5 43,-595.5 363,-595.5 363,-565.5 43,-565.5"/>
<text text-anchor="start" x="50" y="-576.9" font-family="Arial" font-size="14.00" fill="#000000">deleted_at    </text>
<text text-anchor="start" x="149.5708" y="-576.9" font-family="Arial" font-size="14.00" fill="#666666">[timestamp(6) without time zone]</text>
<polygon fill="none" stroke="#000000" points="43,-535.5 43,-565.5 363,-565.5 363,-535.5 43,-535.5"/>
<text text-anchor="start" x="50" y="-546.9" font-family="Arial" font-size="14.00" fill="#000000">created_at    </text>
<text text-anchor="start" x="150.3422" y="-546.9" font-family="Arial" font-size="14.00" fill="#666666">[timestamp(6) without time zone]</text>
<polygon fill="none" stroke="#000000" points="43,-505.5 43,-535.5 363,-535.5 363,-505.5 43,-505.5"/>
<text text-anchor="start" x="49.7546" y="-516.9" font-family="Arial" font-size="14.00" fill="#000000">updated_at    </text>
<text text-anchor="start" x="154.0014" y="-516.9" font-family="Arial" font-size="14.00" fill="#666666">[timestamp(6) without time zone]</text>
</g>
<!-- public.motor_alerts&#45;&gt;public.motor_queries -->
<g id="edge1" class="edge">
<title>public.motor_alerts:query_id&#45;&gt;public.motor_queries:id</title>
<path fill="none" stroke="#000000" d="M371.9508,-815.6503C416.5791,-764.7604 408.2582,-330.5 357,-330.5"/>
<polygon fill="#000000" stroke="#000000" points="371.7924,-815.7361 360.8562,-816.5434 367.3962,-818.1181 363,-820.5 363,-820.5 363,-820.5 367.3962,-818.1181 365.1438,-824.4566 371.7924,-815.7361 371.7924,-815.7361"/>
<text text-anchor="start" x="369.8295" y="-830.5" font-family="Arial" font-size="10.00" fill="#000000">FOREIGN KEY (query_id) REFERENCES motor_queries(id)</text>
</g>
</g>
</svg>
