<?xml version="1.0" encoding="UTF-8" standalone="no"?>
<!DOCTYPE svg PUBLIC "-//W3C//DTD SVG 1.1//EN"
 "http://www.w3.org/Graphics/SVG/1.1/DTD/svg11.dtd">
<!-- Generated by graphviz version 2.40.1 (20161225.0304)
 -->
<!-- Title: public.chunking_profiles Pages: 1 -->
<svg width="724pt" height="802pt"
 viewBox="0.00 0.00 723.50 802.00" xmlns="http://www.w3.org/2000/svg" xmlns:xlink="http://www.w3.org/1999/xlink">
<g id="graph0" class="graph" transform="scale(1 1) rotate(0) translate(4 798)">
<title>public.chunking_profiles</title>
<polygon fill="#ffffff" stroke="transparent" points="-4,4 -4,-798 719.5,-798 719.5,4 -4,4"/>
<!-- public.chunking_profiles -->
<g id="node1" class="node">
<title>public.chunking_profiles</title>
<polygon fill="#efefef" stroke="transparent" points="337,-225.5 337,-260.5 670,-260.5 670,-225.5 337,-225.5"/>
<polygon fill="none" stroke="#000000" points="337,-225.5 337,-260.5 670,-260.5 670,-225.5 337,-225.5"/>
<text text-anchor="start" x="343.695" y="-238.3" font-family="Arial Bold" font-size="18.00" fill="#000000">public.chunking_profiles</text>
<text text-anchor="start" x="535.737" y="-238.3" font-family="Arial" font-size="14.00" fill="#000000">    </text>
<text text-anchor="start" x="569.9418" y="-238.3" font-family="Arial" font-size="14.00" fill="#666666">[BASE TABLE]</text>
<polygon fill="none" stroke="#000000" points="337,-195.5 337,-225.5 670,-225.5 670,-195.5 337,-195.5"/>
<text text-anchor="start" x="344" y="-206.9" font-family="Arial" font-size="14.00" fill="#000000">id </text>
<text text-anchor="start" x="358.7798" y="-206.9" font-family="Arial" font-size="14.00" fill="#666666">[bigint]</text>
<polygon fill="none" stroke="#000000" points="337,-165.5 337,-195.5 670,-195.5 670,-165.5 337,-165.5"/>
<text text-anchor="start" x="344" y="-176.9" font-family="Arial" font-size="14.00" fill="#000000">method </text>
<text text-anchor="start" x="394.5722" y="-176.9" font-family="Arial" font-size="14.00" fill="#666666">[varchar]</text>
<polygon fill="none" stroke="#000000" points="337,-135.5 337,-165.5 670,-165.5 670,-135.5 337,-135.5"/>
<text text-anchor="start" x="344" y="-146.9" font-family="Arial" font-size="14.00" fill="#000000">size </text>
<text text-anchor="start" x="372.7798" y="-146.9" font-family="Arial" font-size="14.00" fill="#666666">[integer]</text>
<polygon fill="none" stroke="#000000" points="337,-105.5 337,-135.5 670,-135.5 670,-105.5 337,-105.5"/>
<text text-anchor="start" x="344" y="-116.9" font-family="Arial" font-size="14.00" fill="#000000">overlap </text>
<text text-anchor="start" x="393.7882" y="-116.9" font-family="Arial" font-size="14.00" fill="#666666">[integer]</text>
<polygon fill="none" stroke="#000000" points="337,-75.5 337,-105.5 670,-105.5 670,-75.5 337,-75.5"/>
<text text-anchor="start" x="344" y="-86.9" font-family="Arial" font-size="14.00" fill="#000000">created_at </text>
<text text-anchor="start" x="414.028" y="-86.9" font-family="Arial" font-size="14.00" fill="#666666">[timestamp(6) without time zone]</text>
<polygon fill="none" stroke="#000000" points="337,-45.5 337,-75.5 670,-75.5 670,-45.5 337,-45.5"/>
<text text-anchor="start" x="344" y="-56.9" font-family="Arial" font-size="14.00" fill="#000000">updated_at </text>
<text text-anchor="start" x="417.9326" y="-56.9" font-family="Arial" font-size="14.00" fill="#666666">[timestamp(6) without time zone]</text>
<polygon fill="none" stroke="#000000" stroke-width="3" points="335,-44.5 335,-262.5 671,-262.5 671,-44.5 335,-44.5"/>
</g>
<!-- public.documents -->
<g id="node2" class="node">
<title>public.documents</title>
<polygon fill="#efefef" stroke="transparent" points="344,-715.5 344,-750.5 664,-750.5 664,-715.5 344,-715.5"/>
<polygon fill="none" stroke="#000000" points="344,-715.5 344,-750.5 664,-750.5 664,-715.5 344,-715.5"/>
<text text-anchor="start" x="370.1987" y="-728.3" font-family="Arial Bold" font-size="18.00" fill="#000000">public.documents</text>
<text text-anchor="start" x="510.2333" y="-728.3" font-family="Arial" font-size="14.00" fill="#000000">    </text>
<text text-anchor="start" x="544.4381" y="-728.3" font-family="Arial" font-size="14.00" fill="#666666">[BASE TABLE]</text>
<polygon fill="none" stroke="#000000" points="344,-685.5 344,-715.5 664,-715.5 664,-685.5 344,-685.5"/>
<text text-anchor="start" x="351" y="-696.9" font-family="Arial" font-size="14.00" fill="#000000">id    </text>
<text text-anchor="start" x="396.094" y="-696.9" font-family="Arial" font-size="14.00" fill="#666666">[bigint]</text>
<polygon fill="none" stroke="#000000" points="344,-655.5 344,-685.5 664,-685.5 664,-655.5 344,-655.5"/>
<text text-anchor="start" x="351" y="-666.9" font-family="Arial" font-size="14.00" fill="#000000">collection_id    </text>
<text text-anchor="start" x="462.2174" y="-666.9" font-family="Arial" font-size="14.00" fill="#666666">[bigint]</text>
<polygon fill="none" stroke="#000000" points="344,-625.5 344,-655.5 664,-655.5 664,-625.5 344,-625.5"/>
<text text-anchor="start" x="351" y="-636.9" font-family="Arial" font-size="14.00" fill="#000000">user_id    </text>
<text text-anchor="start" x="431.1024" y="-636.9" font-family="Arial" font-size="14.00" fill="#666666">[bigint]</text>
<polygon fill="none" stroke="#000000" points="344,-595.5 344,-625.5 664,-625.5 664,-595.5 344,-595.5"/>
<text text-anchor="start" x="351" y="-606.9" font-family="Arial" font-size="14.00" fill="#000000">filename    </text>
<text text-anchor="start" x="438.0996" y="-606.9" font-family="Arial" font-size="14.00" fill="#666666">[varchar]</text>
<polygon fill="none" stroke="#000000" points="344,-565.5 344,-595.5 664,-595.5 664,-565.5 344,-565.5"/>
<text text-anchor="start" x="351" y="-576.9" font-family="Arial" font-size="14.00" fill="#000000">created_at    </text>
<text text-anchor="start" x="451.3422" y="-576.9" font-family="Arial" font-size="14.00" fill="#666666">[timestamp(6) without time zone]</text>
<polygon fill="none" stroke="#000000" points="344,-535.5 344,-565.5 664,-565.5 664,-535.5 344,-535.5"/>
<text text-anchor="start" x="350.7546" y="-546.9" font-family="Arial" font-size="14.00" fill="#000000">updated_at    </text>
<text text-anchor="start" x="455.0014" y="-546.9" font-family="Arial" font-size="14.00" fill="#666666">[timestamp(6) without time zone]</text>
<polygon fill="none" stroke="#000000" points="344,-505.5 344,-535.5 664,-535.5 664,-505.5 344,-505.5"/>
<text text-anchor="start" x="351" y="-516.9" font-family="Arial" font-size="14.00" fill="#000000">state    </text>
<text text-anchor="start" x="415.5512" y="-516.9" font-family="Arial" font-size="14.00" fill="#666666">[integer]</text>
<polygon fill="none" stroke="#000000" points="344,-475.5 344,-505.5 664,-505.5 664,-475.5 344,-475.5"/>
<text text-anchor="start" x="351" y="-486.9" font-family="Arial" font-size="14.00" fill="#000000">vector_id    </text>
<text text-anchor="start" x="441.993" y="-486.9" font-family="Arial" font-size="14.00" fill="#666666">[varchar]</text>
<polygon fill="none" stroke="#000000" points="344,-445.5 344,-475.5 664,-475.5 664,-445.5 344,-445.5"/>
<text text-anchor="start" x="351" y="-456.9" font-family="Arial" font-size="14.00" fill="#000000">chunking_profile_id    </text>
<text text-anchor="start" x="505.791" y="-456.9" font-family="Arial" font-size="14.00" fill="#666666">[bigint]</text>
<polygon fill="none" stroke="#000000" points="344,-415.5 344,-445.5 664,-445.5 664,-415.5 344,-415.5"/>
<text text-anchor="start" x="351" y="-426.9" font-family="Arial" font-size="14.00" fill="#000000">stop_jobs    </text>
<text text-anchor="start" x="445.115" y="-426.9" font-family="Arial" font-size="14.00" fill="#666666">[boolean]</text>
<polygon fill="none" stroke="#000000" points="344,-385.5 344,-415.5 664,-415.5 664,-385.5 344,-385.5"/>
<text text-anchor="start" x="351" y="-396.9" font-family="Arial" font-size="14.00" fill="#000000">error_message    </text>
<text text-anchor="start" x="479.3254" y="-396.9" font-family="Arial" font-size="14.00" fill="#666666">[varchar]</text>
</g>
<!-- public.documents&#45;&gt;public.chunking_profiles -->
<g id="edge1" class="edge">
<title>public.documents:chunking_profile_id&#45;&gt;public.chunking_profiles:id</title>
<path fill="none" stroke="#000000" d="M333.9986,-459.3754C294.3083,-449.6432 311.6086,-379.1653 344,-343 392.6267,-288.7078 621.3733,-361.2922 670,-307 698.6143,-275.0519 712.8889,-210.5 670,-210.5"/>
<polygon fill="#000000" stroke="#000000" points="334.0626,-459.3825 343.4971,-464.9718 339.0313,-459.9412 344,-460.5 344,-460.5 344,-460.5 339.0313,-459.9412 344.5029,-456.0282 334.0626,-459.3825 334.0626,-459.3825"/>
<text text-anchor="start" x="6.9855" y="-470.5" font-family="Arial" font-size="10.00" fill="#000000">FOREIGN KEY (chunking_profile_id) REFERENCES chunking_profiles(id)</text>
</g>
</g>
</svg>
