<?xml version="1.0" encoding="UTF-8" standalone="no"?>
<!DOCTYPE svg PUBLIC "-//W3C//DTD SVG 1.1//EN"
 "http://www.w3.org/Graphics/SVG/1.1/DTD/svg11.dtd">
<!-- Generated by graphviz version 2.40.1 (20161225.0304)
 -->
<!-- Title: public.documents Pages: 1 -->
<svg width="1358pt" height="1379pt"
 viewBox="0.00 0.00 1357.50 1379.00" xmlns="http://www.w3.org/2000/svg" xmlns:xlink="http://www.w3.org/1999/xlink">
<g id="graph0" class="graph" transform="scale(1 1) rotate(0) translate(4 1375)">
<title>public.documents</title>
<polygon fill="#ffffff" stroke="transparent" points="-4,4 -4,-1375 1353.5,-1375 1353.5,4 -4,4"/>
<!-- public.documents -->
<g id="node1" class="node">
<title>public.documents</title>
<polygon fill="#efefef" stroke="transparent" points="523,-862.5 523,-897.5 813,-897.5 813,-862.5 523,-862.5"/>
<polygon fill="none" stroke="#000000" points="523,-862.5 523,-897.5 813,-897.5 813,-862.5 523,-862.5"/>
<text text-anchor="start" x="534.1987" y="-875.3" font-family="Arial Bold" font-size="18.00" fill="#000000">public.documents</text>
<text text-anchor="start" x="674.2333" y="-875.3" font-family="Arial" font-size="14.00" fill="#000000">    </text>
<text text-anchor="start" x="708.4381" y="-875.3" font-family="Arial" font-size="14.00" fill="#666666">[BASE TABLE]</text>
<polygon fill="none" stroke="#000000" points="523,-832.5 523,-862.5 813,-862.5 813,-832.5 523,-832.5"/>
<text text-anchor="start" x="530" y="-843.9" font-family="Arial" font-size="14.00" fill="#000000">id </text>
<text text-anchor="start" x="544.7798" y="-843.9" font-family="Arial" font-size="14.00" fill="#666666">[bigint]</text>
<polygon fill="none" stroke="#000000" points="523,-802.5 523,-832.5 813,-832.5 813,-802.5 523,-802.5"/>
<text text-anchor="start" x="530" y="-813.9" font-family="Arial" font-size="14.00" fill="#000000">collection_id </text>
<text text-anchor="start" x="610.9032" y="-813.9" font-family="Arial" font-size="14.00" fill="#666666">[bigint]</text>
<polygon fill="none" stroke="#000000" points="523,-772.5 523,-802.5 813,-802.5 813,-772.5 523,-772.5"/>
<text text-anchor="start" x="530" y="-783.9" font-family="Arial" font-size="14.00" fill="#000000">user_id </text>
<text text-anchor="start" x="579.7882" y="-783.9" font-family="Arial" font-size="14.00" fill="#666666">[bigint]</text>
<polygon fill="none" stroke="#000000" points="523,-742.5 523,-772.5 813,-772.5 813,-742.5 523,-742.5"/>
<text text-anchor="start" x="530" y="-753.9" font-family="Arial" font-size="14.00" fill="#000000">filename </text>
<text text-anchor="start" x="586.7854" y="-753.9" font-family="Arial" font-size="14.00" fill="#666666">[varchar]</text>
<polygon fill="none" stroke="#000000" points="523,-712.5 523,-742.5 813,-742.5 813,-712.5 523,-712.5"/>
<text text-anchor="start" x="530" y="-723.9" font-family="Arial" font-size="14.00" fill="#000000">created_at </text>
<text text-anchor="start" x="600.028" y="-723.9" font-family="Arial" font-size="14.00" fill="#666666">[timestamp(6) without time zone]</text>
<polygon fill="none" stroke="#000000" points="523,-682.5 523,-712.5 813,-712.5 813,-682.5 523,-682.5"/>
<text text-anchor="start" x="529.9117" y="-693.9" font-family="Arial" font-size="14.00" fill="#000000">updated_at </text>
<text text-anchor="start" x="603.8443" y="-693.9" font-family="Arial" font-size="14.00" fill="#666666">[timestamp(6) without time zone]</text>
<polygon fill="none" stroke="#000000" points="523,-652.5 523,-682.5 813,-682.5 813,-652.5 523,-652.5"/>
<text text-anchor="start" x="530" y="-663.9" font-family="Arial" font-size="14.00" fill="#000000">state </text>
<text text-anchor="start" x="564.237" y="-663.9" font-family="Arial" font-size="14.00" fill="#666666">[integer]</text>
<polygon fill="none" stroke="#000000" points="523,-622.5 523,-652.5 813,-652.5 813,-622.5 523,-622.5"/>
<text text-anchor="start" x="530" y="-633.9" font-family="Arial" font-size="14.00" fill="#000000">vector_id </text>
<text text-anchor="start" x="590.6788" y="-633.9" font-family="Arial" font-size="14.00" fill="#666666">[varchar]</text>
<polygon fill="none" stroke="#000000" points="523,-592.5 523,-622.5 813,-622.5 813,-592.5 523,-592.5"/>
<text text-anchor="start" x="530" y="-603.9" font-family="Arial" font-size="14.00" fill="#000000">chunking_profile_id </text>
<text text-anchor="start" x="654.4768" y="-603.9" font-family="Arial" font-size="14.00" fill="#666666">[bigint]</text>
<polygon fill="none" stroke="#000000" points="523,-562.5 523,-592.5 813,-592.5 813,-562.5 523,-562.5"/>
<text text-anchor="start" x="530" y="-573.9" font-family="Arial" font-size="14.00" fill="#000000">stop_jobs </text>
<text text-anchor="start" x="593.8008" y="-573.9" font-family="Arial" font-size="14.00" fill="#666666">[boolean]</text>
<polygon fill="none" stroke="#000000" points="523,-532.5 523,-562.5 813,-562.5 813,-532.5 523,-532.5"/>
<text text-anchor="start" x="530" y="-543.9" font-family="Arial" font-size="14.00" fill="#000000">error_message </text>
<text text-anchor="start" x="628.0112" y="-543.9" font-family="Arial" font-size="14.00" fill="#666666">[varchar]</text>
<polygon fill="none" stroke="#000000" stroke-width="3" points="521.5,-531.5 521.5,-899.5 814.5,-899.5 814.5,-531.5 521.5,-531.5"/>
</g>
<!-- public.collections -->
<g id="node3" class="node">
<title>public.collections</title>
<polygon fill="#efefef" stroke="transparent" points="43,-372.5 43,-407.5 363,-407.5 363,-372.5 43,-372.5"/>
<polygon fill="none" stroke="#000000" points="43,-372.5 43,-407.5 363,-407.5 363,-372.5 43,-372.5"/>
<text text-anchor="start" x="71.2066" y="-385.3" font-family="Arial Bold" font-size="18.00" fill="#000000">public.collections</text>
<text text-anchor="start" x="207.2254" y="-385.3" font-family="Arial" font-size="14.00" fill="#000000">    </text>
<text text-anchor="start" x="241.4302" y="-385.3" font-family="Arial" font-size="14.00" fill="#666666">[BASE TABLE]</text>
<polygon fill="none" stroke="#000000" points="43,-342.5 43,-372.5 363,-372.5 363,-342.5 43,-342.5"/>
<text text-anchor="start" x="50" y="-353.9" font-family="Arial" font-size="14.00" fill="#000000">id    </text>
<text text-anchor="start" x="95.094" y="-353.9" font-family="Arial" font-size="14.00" fill="#666666">[bigint]</text>
<polygon fill="none" stroke="#000000" points="43,-312.5 43,-342.5 363,-342.5 363,-312.5 43,-312.5"/>
<text text-anchor="start" x="50" y="-323.9" font-family="Arial" font-size="14.00" fill="#000000">name    </text>
<text text-anchor="start" x="119.2132" y="-323.9" font-family="Arial" font-size="14.00" fill="#666666">[varchar]</text>
<polygon fill="none" stroke="#000000" points="43,-282.5 43,-312.5 363,-312.5 363,-282.5 43,-282.5"/>
<text text-anchor="start" x="50" y="-293.9" font-family="Arial" font-size="14.00" fill="#000000">slug    </text>
<text text-anchor="start" x="109.8766" y="-293.9" font-family="Arial" font-size="14.00" fill="#666666">[varchar]</text>
<polygon fill="none" stroke="#000000" points="43,-252.5 43,-282.5 363,-282.5 363,-252.5 43,-252.5"/>
<text text-anchor="start" x="50" y="-263.9" font-family="Arial" font-size="14.00" fill="#000000">created_at    </text>
<text text-anchor="start" x="150.3422" y="-263.9" font-family="Arial" font-size="14.00" fill="#666666">[timestamp(6) without time zone]</text>
<polygon fill="none" stroke="#000000" points="43,-222.5 43,-252.5 363,-252.5 363,-222.5 43,-222.5"/>
<text text-anchor="start" x="49.7546" y="-233.9" font-family="Arial" font-size="14.00" fill="#000000">updated_at    </text>
<text text-anchor="start" x="154.0014" y="-233.9" font-family="Arial" font-size="14.00" fill="#666666">[timestamp(6) without time zone]</text>
<polygon fill="none" stroke="#000000" points="43,-192.5 43,-222.5 363,-222.5 363,-192.5 43,-192.5"/>
<text text-anchor="start" x="50" y="-203.9" font-family="Arial" font-size="14.00" fill="#000000">embedding_model_id    </text>
<text text-anchor="start" x="218.0196" y="-203.9" font-family="Arial" font-size="14.00" fill="#666666">[bigint]</text>
<polygon fill="none" stroke="#000000" points="43,-162.5 43,-192.5 363,-192.5 363,-162.5 43,-162.5"/>
<text text-anchor="start" x="50" y="-173.9" font-family="Arial" font-size="14.00" fill="#000000">graph_enabled    </text>
<text text-anchor="start" x="177.5806" y="-173.9" font-family="Arial" font-size="14.00" fill="#666666">[boolean]</text>
<polygon fill="none" stroke="#000000" points="43,-132.5 43,-162.5 363,-162.5 363,-132.5 43,-132.5"/>
<text text-anchor="start" x="50" y="-143.9" font-family="Arial" font-size="14.00" fill="#000000">state    </text>
<text text-anchor="start" x="114.5512" y="-143.9" font-family="Arial" font-size="14.00" fill="#666666">[integer]</text>
<polygon fill="none" stroke="#000000" points="43,-102.5 43,-132.5 363,-132.5 363,-102.5 43,-102.5"/>
<text text-anchor="start" x="50" y="-113.9" font-family="Arial" font-size="14.00" fill="#000000">process_step    </text>
<text text-anchor="start" x="167.4516" y="-113.9" font-family="Arial" font-size="14.00" fill="#666666">[integer]</text>
<polygon fill="none" stroke="#000000" points="43,-72.5 43,-102.5 363,-102.5 363,-72.5 43,-72.5"/>
<text text-anchor="start" x="50" y="-83.9" font-family="Arial" font-size="14.00" fill="#000000">process_steps    </text>
<text text-anchor="start" x="174.4516" y="-83.9" font-family="Arial" font-size="14.00" fill="#666666">[integer]</text>
<polygon fill="none" stroke="#000000" points="43,-42.5 43,-72.5 363,-72.5 363,-42.5 43,-42.5"/>
<text text-anchor="start" x="50" y="-53.9" font-family="Arial" font-size="14.00" fill="#000000">stop_jobs    </text>
<text text-anchor="start" x="144.115" y="-53.9" font-family="Arial" font-size="14.00" fill="#666666">[boolean]</text>
</g>
<!-- public.documents&#45;&gt;public.collections -->
<g id="edge2" class="edge">
<title>public.documents:collection_id&#45;&gt;public.collections:id</title>
<path fill="none" stroke="#000000" d="M513.8264,-813.2399C463.0132,-766.8664 414.0496,-357.5 363,-357.5"/>
<polygon fill="#000000" stroke="#000000" points="513.9303,-813.2881 521.1046,-821.5814 518.4651,-815.394 523,-817.5 523,-817.5 523,-817.5 518.4651,-815.394 524.8954,-813.4186 513.9303,-813.2881 513.9303,-813.2881"/>
<text text-anchor="start" x="249.1095" y="-827.5" font-family="Arial" font-size="10.00" fill="#000000">FOREIGN KEY (collection_id) REFERENCES collections(id)</text>
</g>
<!-- public.users -->
<g id="node4" class="node">
<title>public.users</title>
<polygon fill="#efefef" stroke="transparent" points="467,-342.5 467,-377.5 869,-377.5 869,-342.5 467,-342.5"/>
<polygon fill="none" stroke="#000000" points="467,-342.5 467,-377.5 869,-377.5 869,-342.5 467,-342.5"/>
<text text-anchor="start" x="556.2091" y="-355.3" font-family="Arial Bold" font-size="18.00" fill="#000000">public.users</text>
<text text-anchor="start" x="652.2229" y="-355.3" font-family="Arial" font-size="14.00" fill="#000000">    </text>
<text text-anchor="start" x="686.4277" y="-355.3" font-family="Arial" font-size="14.00" fill="#666666">[BASE TABLE]</text>
<polygon fill="none" stroke="#000000" points="467,-312.5 467,-342.5 869,-342.5 869,-312.5 467,-312.5"/>
<text text-anchor="start" x="474" y="-323.9" font-family="Arial" font-size="14.00" fill="#000000">id    </text>
<text text-anchor="start" x="519.094" y="-323.9" font-family="Arial" font-size="14.00" fill="#666666">[bigint]</text>
<polygon fill="none" stroke="#000000" points="467,-282.5 467,-312.5 869,-312.5 869,-282.5 467,-282.5"/>
<text text-anchor="start" x="474" y="-293.9" font-family="Arial" font-size="14.00" fill="#000000">email    </text>
<text text-anchor="start" x="541.6438" y="-293.9" font-family="Arial" font-size="14.00" fill="#666666">[varchar]</text>
<polygon fill="none" stroke="#000000" points="467,-252.5 467,-282.5 869,-282.5 869,-252.5 467,-252.5"/>
<text text-anchor="start" x="474" y="-263.9" font-family="Arial" font-size="14.00" fill="#000000">encrypted_password    </text>
<text text-anchor="start" x="637.3492" y="-263.9" font-family="Arial" font-size="14.00" fill="#666666">[varchar]</text>
<polygon fill="none" stroke="#000000" points="467,-222.5 467,-252.5 869,-252.5 869,-222.5 467,-222.5"/>
<text text-anchor="start" x="474" y="-233.9" font-family="Arial" font-size="14.00" fill="#000000">reset_password_token    </text>
<text text-anchor="start" x="649.0224" y="-233.9" font-family="Arial" font-size="14.00" fill="#666666">[varchar]</text>
<polygon fill="none" stroke="#000000" points="467,-192.5 467,-222.5 869,-222.5 869,-192.5 467,-192.5"/>
<text text-anchor="start" x="473.5302" y="-203.9" font-family="Arial" font-size="14.00" fill="#000000">reset_password_sent_at    </text>
<text text-anchor="start" x="660.2258" y="-203.9" font-family="Arial" font-size="14.00" fill="#666666">[timestamp(6) without time zone]</text>
<polygon fill="none" stroke="#000000" points="467,-162.5 467,-192.5 869,-192.5 869,-162.5 467,-162.5"/>
<text text-anchor="start" x="474" y="-173.9" font-family="Arial" font-size="14.00" fill="#000000">remember_created_at    </text>
<text text-anchor="start" x="645.8976" y="-173.9" font-family="Arial" font-size="14.00" fill="#666666">[timestamp(6) without time zone]</text>
<polygon fill="none" stroke="#000000" points="467,-132.5 467,-162.5 869,-162.5 869,-132.5 467,-132.5"/>
<text text-anchor="start" x="474" y="-143.9" font-family="Arial" font-size="14.00" fill="#000000">created_at    </text>
<text text-anchor="start" x="574.3422" y="-143.9" font-family="Arial" font-size="14.00" fill="#666666">[timestamp(6) without time zone]</text>
<polygon fill="none" stroke="#000000" points="467,-102.5 467,-132.5 869,-132.5 869,-102.5 467,-102.5"/>
<text text-anchor="start" x="474" y="-113.9" font-family="Arial" font-size="14.00" fill="#000000">updated_at    </text>
<text text-anchor="start" x="578.2468" y="-113.9" font-family="Arial" font-size="14.00" fill="#666666">[timestamp(6) without time zone]</text>
<polygon fill="none" stroke="#000000" points="467,-72.5 467,-102.5 869,-102.5 869,-72.5 467,-72.5"/>
<text text-anchor="start" x="474" y="-83.9" font-family="Arial" font-size="14.00" fill="#000000">admin    </text>
<text text-anchor="start" x="546.3198" y="-83.9" font-family="Arial" font-size="14.00" fill="#666666">[boolean]</text>
</g>
<!-- public.documents&#45;&gt;public.users -->
<g id="edge3" class="edge">
<title>public.documents:user_id&#45;&gt;public.users:id</title>
<path fill="none" stroke="#000000" d="M822.0746,-782.9472C870.6819,-735.173 917.4716,-327.5 869,-327.5"/>
<polygon fill="#000000" stroke="#000000" points="821.9382,-783.0156 810.982,-783.4778 817.4691,-785.2578 813,-787.5 813,-787.5 813,-787.5 817.4691,-785.2578 815.018,-791.5222 821.9382,-783.0156 821.9382,-783.0156"/>
<text text-anchor="start" x="820.3345" y="-797.5" font-family="Arial" font-size="10.00" fill="#000000">FOREIGN KEY (user_id) REFERENCES users(id)</text>
</g>
<!-- public.chunking_profiles -->
<g id="node5" class="node">
<title>public.chunking_profiles</title>
<polygon fill="#efefef" stroke="transparent" points="974,-297.5 974,-332.5 1307,-332.5 1307,-297.5 974,-297.5"/>
<polygon fill="none" stroke="#000000" points="974,-297.5 974,-332.5 1307,-332.5 1307,-297.5 974,-297.5"/>
<text text-anchor="start" x="980.695" y="-310.3" font-family="Arial Bold" font-size="18.00" fill="#000000">public.chunking_profiles</text>
<text text-anchor="start" x="1172.737" y="-310.3" font-family="Arial" font-size="14.00" fill="#000000">    </text>
<text text-anchor="start" x="1206.9418" y="-310.3" font-family="Arial" font-size="14.00" fill="#666666">[BASE TABLE]</text>
<polygon fill="none" stroke="#000000" points="974,-267.5 974,-297.5 1307,-297.5 1307,-267.5 974,-267.5"/>
<text text-anchor="start" x="981" y="-278.9" font-family="Arial" font-size="14.00" fill="#000000">id    </text>
<text text-anchor="start" x="1026.094" y="-278.9" font-family="Arial" font-size="14.00" fill="#666666">[bigint]</text>
<polygon fill="none" stroke="#000000" points="974,-237.5 974,-267.5 1307,-267.5 1307,-237.5 974,-237.5"/>
<text text-anchor="start" x="981" y="-248.9" font-family="Arial" font-size="14.00" fill="#000000">method    </text>
<text text-anchor="start" x="1061.8864" y="-248.9" font-family="Arial" font-size="14.00" fill="#666666">[varchar]</text>
<polygon fill="none" stroke="#000000" points="974,-207.5 974,-237.5 1307,-237.5 1307,-207.5 974,-207.5"/>
<text text-anchor="start" x="981" y="-218.9" font-family="Arial" font-size="14.00" fill="#000000">size    </text>
<text text-anchor="start" x="1040.094" y="-218.9" font-family="Arial" font-size="14.00" fill="#666666">[integer]</text>
<polygon fill="none" stroke="#000000" points="974,-177.5 974,-207.5 1307,-207.5 1307,-177.5 974,-177.5"/>
<text text-anchor="start" x="981" y="-188.9" font-family="Arial" font-size="14.00" fill="#000000">overlap    </text>
<text text-anchor="start" x="1061.1024" y="-188.9" font-family="Arial" font-size="14.00" fill="#666666">[integer]</text>
<polygon fill="none" stroke="#000000" points="974,-147.5 974,-177.5 1307,-177.5 1307,-147.5 974,-147.5"/>
<text text-anchor="start" x="981" y="-158.9" font-family="Arial" font-size="14.00" fill="#000000">created_at    </text>
<text text-anchor="start" x="1081.3422" y="-158.9" font-family="Arial" font-size="14.00" fill="#666666">[timestamp(6) without time zone]</text>
<polygon fill="none" stroke="#000000" points="974,-117.5 974,-147.5 1307,-147.5 1307,-117.5 974,-117.5"/>
<text text-anchor="start" x="981" y="-128.9" font-family="Arial" font-size="14.00" fill="#000000">updated_at    </text>
<text text-anchor="start" x="1085.2468" y="-128.9" font-family="Arial" font-size="14.00" fill="#666666">[timestamp(6) without time zone]</text>
</g>
<!-- public.documents&#45;&gt;public.chunking_profiles -->
<g id="edge4" class="edge">
<title>public.documents:chunking_profile_id&#45;&gt;public.chunking_profiles:id</title>
<path fill="none" stroke="#000000" d="M823.3623,-607.0605C896.4348,-600.585 885.5007,-523.6719 921,-451 955.4578,-380.4602 895.4939,-282.5 974,-282.5"/>
<polygon fill="#000000" stroke="#000000" points="822.991,-607.0762 812.8093,-603.004 817.9955,-607.2881 813,-607.5 813,-607.5 813,-607.5 817.9955,-607.2881 813.1907,-611.996 822.991,-607.0762 822.991,-607.0762"/>
<text text-anchor="start" x="819.9855" y="-617.5" font-family="Arial" font-size="10.00" fill="#000000">FOREIGN KEY (chunking_profile_id) REFERENCES chunking_profiles(id)</text>
</g>
<!-- public.chunks -->
<g id="node2" class="node">
<title>public.chunks</title>
<polygon fill="#efefef" stroke="transparent" points="508,-1292.5 508,-1327.5 828,-1327.5 828,-1292.5 508,-1292.5"/>
<polygon fill="none" stroke="#000000" points="508,-1292.5 508,-1327.5 828,-1327.5 828,-1292.5 508,-1292.5"/>
<text text-anchor="start" x="549.7021" y="-1305.3" font-family="Arial Bold" font-size="18.00" fill="#000000">public.chunks</text>
<text text-anchor="start" x="658.7299" y="-1305.3" font-family="Arial" font-size="14.00" fill="#000000">    </text>
<text text-anchor="start" x="692.9347" y="-1305.3" font-family="Arial" font-size="14.00" fill="#666666">[BASE TABLE]</text>
<polygon fill="none" stroke="#000000" points="508,-1262.5 508,-1292.5 828,-1292.5 828,-1262.5 508,-1262.5"/>
<text text-anchor="start" x="515" y="-1273.9" font-family="Arial" font-size="14.00" fill="#000000">id    </text>
<text text-anchor="start" x="560.094" y="-1273.9" font-family="Arial" font-size="14.00" fill="#666666">[bigint]</text>
<polygon fill="none" stroke="#000000" points="508,-1232.5 508,-1262.5 828,-1262.5 828,-1232.5 508,-1232.5"/>
<text text-anchor="start" x="515" y="-1243.9" font-family="Arial" font-size="14.00" fill="#000000">document_id    </text>
<text text-anchor="start" x="629.3408" y="-1243.9" font-family="Arial" font-size="14.00" fill="#666666">[bigint]</text>
<polygon fill="none" stroke="#000000" points="508,-1202.5 508,-1232.5 828,-1232.5 828,-1202.5 508,-1202.5"/>
<text text-anchor="start" x="515" y="-1213.9" font-family="Arial" font-size="14.00" fill="#000000">vector_id    </text>
<text text-anchor="start" x="605.993" y="-1213.9" font-family="Arial" font-size="14.00" fill="#666666">[varchar]</text>
<polygon fill="none" stroke="#000000" points="508,-1172.5 508,-1202.5 828,-1202.5 828,-1172.5 508,-1172.5"/>
<text text-anchor="start" x="515" y="-1183.9" font-family="Arial" font-size="14.00" fill="#000000">content    </text>
<text text-anchor="start" x="595.1164" y="-1183.9" font-family="Arial" font-size="14.00" fill="#666666">[varchar]</text>
<polygon fill="none" stroke="#000000" points="508,-1142.5 508,-1172.5 828,-1172.5 828,-1142.5 508,-1142.5"/>
<text text-anchor="start" x="515" y="-1153.9" font-family="Arial" font-size="14.00" fill="#000000">embeddings    </text>
<text text-anchor="start" x="625.4502" y="-1153.9" font-family="Arial" font-size="14.00" fill="#666666">[jsonb]</text>
<polygon fill="none" stroke="#000000" points="508,-1112.5 508,-1142.5 828,-1142.5 828,-1112.5 508,-1112.5"/>
<text text-anchor="start" x="515" y="-1123.9" font-family="Arial" font-size="14.00" fill="#000000">created_at    </text>
<text text-anchor="start" x="615.3422" y="-1123.9" font-family="Arial" font-size="14.00" fill="#666666">[timestamp(6) without time zone]</text>
<polygon fill="none" stroke="#000000" points="508,-1082.5 508,-1112.5 828,-1112.5 828,-1082.5 508,-1082.5"/>
<text text-anchor="start" x="514.7546" y="-1093.9" font-family="Arial" font-size="14.00" fill="#000000">updated_at    </text>
<text text-anchor="start" x="619.0014" y="-1093.9" font-family="Arial" font-size="14.00" fill="#666666">[timestamp(6) without time zone]</text>
<polygon fill="none" stroke="#000000" points="508,-1052.5 508,-1082.5 828,-1082.5 828,-1052.5 508,-1052.5"/>
<text text-anchor="start" x="515" y="-1063.9" font-family="Arial" font-size="14.00" fill="#000000">embedding_content    </text>
<text text-anchor="start" x="672.1444" y="-1063.9" font-family="Arial" font-size="14.00" fill="#666666">[varchar]</text>
<polygon fill="none" stroke="#000000" points="508,-1022.5 508,-1052.5 828,-1052.5 828,-1022.5 508,-1022.5"/>
<text text-anchor="start" x="515" y="-1033.9" font-family="Arial" font-size="14.00" fill="#000000">entities_extracted    </text>
<text text-anchor="start" x="658.9018" y="-1033.9" font-family="Arial" font-size="14.00" fill="#666666">[boolean]</text>
</g>
<!-- public.chunks&#45;&gt;public.documents -->
<g id="edge1" class="edge">
<title>public.chunks:document_id&#45;&gt;public.documents:id</title>
<path fill="none" stroke="#000000" d="M838.2035,-1247.0482C1005.2547,-1232.0276 987.4281,-847.5 813,-847.5"/>
<polygon fill="#000000" stroke="#000000" points="837.9902,-1247.0575 827.8009,-1243.0044 832.9951,-1247.2788 828,-1247.5 828,-1247.5 828,-1247.5 832.9951,-1247.2788 828.1991,-1251.9956 837.9902,-1247.0575 837.9902,-1247.0575"/>
<text text-anchor="start" x="834.8785" y="-1257.5" font-family="Arial" font-size="10.00" fill="#000000">FOREIGN KEY (document_id) REFERENCES documents(id)</text>
</g>
</g>
</svg>
