<?xml version="1.0" encoding="UTF-8" standalone="no"?>
<!DOCTYPE svg PUBLIC "-//W3C//DTD SVG 1.1//EN"
 "http://www.w3.org/Graphics/SVG/1.1/DTD/svg11.dtd">
<!-- Generated by graphviz version 2.40.1 (20161225.0304)
 -->
<!-- Title: public.chunks Pages: 1 -->
<svg width="946pt" height="1289pt"
 viewBox="0.00 0.00 946.00 1289.00" xmlns="http://www.w3.org/2000/svg" xmlns:xlink="http://www.w3.org/1999/xlink">
<g id="graph0" class="graph" transform="scale(1 1) rotate(0) translate(4 1285)">
<title>public.chunks</title>
<polygon fill="#ffffff" stroke="transparent" points="-4,4 -4,-1285 942,-1285 942,4 -4,4"/>
<!-- public.chunks -->
<g id="node1" class="node">
<title>public.chunks</title>
<polygon fill="#efefef" stroke="transparent" points="336,-802.5 336,-837.5 626,-837.5 626,-802.5 336,-802.5"/>
<polygon fill="none" stroke="#000000" points="336,-802.5 336,-837.5 626,-837.5 626,-802.5 336,-802.5"/>
<text text-anchor="start" x="362.7021" y="-815.3" font-family="Arial Bold" font-size="18.00" fill="#000000">public.chunks</text>
<text text-anchor="start" x="471.7299" y="-815.3" font-family="Arial" font-size="14.00" fill="#000000">    </text>
<text text-anchor="start" x="505.9347" y="-815.3" font-family="Arial" font-size="14.00" fill="#666666">[BASE TABLE]</text>
<polygon fill="none" stroke="#000000" points="336,-772.5 336,-802.5 626,-802.5 626,-772.5 336,-772.5"/>
<text text-anchor="start" x="343" y="-783.9" font-family="Arial" font-size="14.00" fill="#000000">id </text>
<text text-anchor="start" x="357.7798" y="-783.9" font-family="Arial" font-size="14.00" fill="#666666">[bigint]</text>
<polygon fill="none" stroke="#000000" points="336,-742.5 336,-772.5 626,-772.5 626,-742.5 336,-742.5"/>
<text text-anchor="start" x="343" y="-753.9" font-family="Arial" font-size="14.00" fill="#000000">document_id </text>
<text text-anchor="start" x="427.0266" y="-753.9" font-family="Arial" font-size="14.00" fill="#666666">[bigint]</text>
<polygon fill="none" stroke="#000000" points="336,-712.5 336,-742.5 626,-742.5 626,-712.5 336,-712.5"/>
<text text-anchor="start" x="343" y="-723.9" font-family="Arial" font-size="14.00" fill="#000000">vector_id </text>
<text text-anchor="start" x="403.6788" y="-723.9" font-family="Arial" font-size="14.00" fill="#666666">[varchar]</text>
<polygon fill="none" stroke="#000000" points="336,-682.5 336,-712.5 626,-712.5 626,-682.5 336,-682.5"/>
<text text-anchor="start" x="343" y="-693.9" font-family="Arial" font-size="14.00" fill="#000000">content </text>
<text text-anchor="start" x="392.8022" y="-693.9" font-family="Arial" font-size="14.00" fill="#666666">[varchar]</text>
<polygon fill="none" stroke="#000000" points="336,-652.5 336,-682.5 626,-682.5 626,-652.5 336,-652.5"/>
<text text-anchor="start" x="343" y="-663.9" font-family="Arial" font-size="14.00" fill="#000000">embeddings </text>
<text text-anchor="start" x="423.136" y="-663.9" font-family="Arial" font-size="14.00" fill="#666666">[jsonb]</text>
<polygon fill="none" stroke="#000000" points="336,-622.5 336,-652.5 626,-652.5 626,-622.5 336,-622.5"/>
<text text-anchor="start" x="343" y="-633.9" font-family="Arial" font-size="14.00" fill="#000000">created_at </text>
<text text-anchor="start" x="413.028" y="-633.9" font-family="Arial" font-size="14.00" fill="#666666">[timestamp(6) without time zone]</text>
<polygon fill="none" stroke="#000000" points="336,-592.5 336,-622.5 626,-622.5 626,-592.5 336,-592.5"/>
<text text-anchor="start" x="342.9117" y="-603.9" font-family="Arial" font-size="14.00" fill="#000000">updated_at </text>
<text text-anchor="start" x="416.8443" y="-603.9" font-family="Arial" font-size="14.00" fill="#666666">[timestamp(6) without time zone]</text>
<polygon fill="none" stroke="#000000" points="336,-562.5 336,-592.5 626,-592.5 626,-562.5 336,-562.5"/>
<text text-anchor="start" x="343" y="-573.9" font-family="Arial" font-size="14.00" fill="#000000">embedding_content </text>
<text text-anchor="start" x="469.8302" y="-573.9" font-family="Arial" font-size="14.00" fill="#666666">[varchar]</text>
<polygon fill="none" stroke="#000000" points="336,-532.5 336,-562.5 626,-562.5 626,-532.5 336,-532.5"/>
<text text-anchor="start" x="343" y="-543.9" font-family="Arial" font-size="14.00" fill="#000000">entities_extracted </text>
<text text-anchor="start" x="456.5876" y="-543.9" font-family="Arial" font-size="14.00" fill="#666666">[boolean]</text>
<polygon fill="none" stroke="#000000" stroke-width="3" points="334.5,-531.5 334.5,-839.5 627.5,-839.5 627.5,-531.5 334.5,-531.5"/>
</g>
<!-- public.documents -->
<g id="node4" class="node">
<title>public.documents</title>
<polygon fill="#efefef" stroke="transparent" points="321,-372.5 321,-407.5 641,-407.5 641,-372.5 321,-372.5"/>
<polygon fill="none" stroke="#000000" points="321,-372.5 321,-407.5 641,-407.5 641,-372.5 321,-372.5"/>
<text text-anchor="start" x="347.1987" y="-385.3" font-family="Arial Bold" font-size="18.00" fill="#000000">public.documents</text>
<text text-anchor="start" x="487.2333" y="-385.3" font-family="Arial" font-size="14.00" fill="#000000">    </text>
<text text-anchor="start" x="521.4381" y="-385.3" font-family="Arial" font-size="14.00" fill="#666666">[BASE TABLE]</text>
<polygon fill="none" stroke="#000000" points="321,-342.5 321,-372.5 641,-372.5 641,-342.5 321,-342.5"/>
<text text-anchor="start" x="328" y="-353.9" font-family="Arial" font-size="14.00" fill="#000000">id    </text>
<text text-anchor="start" x="373.094" y="-353.9" font-family="Arial" font-size="14.00" fill="#666666">[bigint]</text>
<polygon fill="none" stroke="#000000" points="321,-312.5 321,-342.5 641,-342.5 641,-312.5 321,-312.5"/>
<text text-anchor="start" x="328" y="-323.9" font-family="Arial" font-size="14.00" fill="#000000">collection_id    </text>
<text text-anchor="start" x="439.2174" y="-323.9" font-family="Arial" font-size="14.00" fill="#666666">[bigint]</text>
<polygon fill="none" stroke="#000000" points="321,-282.5 321,-312.5 641,-312.5 641,-282.5 321,-282.5"/>
<text text-anchor="start" x="328" y="-293.9" font-family="Arial" font-size="14.00" fill="#000000">user_id    </text>
<text text-anchor="start" x="408.1024" y="-293.9" font-family="Arial" font-size="14.00" fill="#666666">[bigint]</text>
<polygon fill="none" stroke="#000000" points="321,-252.5 321,-282.5 641,-282.5 641,-252.5 321,-252.5"/>
<text text-anchor="start" x="328" y="-263.9" font-family="Arial" font-size="14.00" fill="#000000">filename    </text>
<text text-anchor="start" x="415.0996" y="-263.9" font-family="Arial" font-size="14.00" fill="#666666">[varchar]</text>
<polygon fill="none" stroke="#000000" points="321,-222.5 321,-252.5 641,-252.5 641,-222.5 321,-222.5"/>
<text text-anchor="start" x="328" y="-233.9" font-family="Arial" font-size="14.00" fill="#000000">created_at    </text>
<text text-anchor="start" x="428.3422" y="-233.9" font-family="Arial" font-size="14.00" fill="#666666">[timestamp(6) without time zone]</text>
<polygon fill="none" stroke="#000000" points="321,-192.5 321,-222.5 641,-222.5 641,-192.5 321,-192.5"/>
<text text-anchor="start" x="327.7546" y="-203.9" font-family="Arial" font-size="14.00" fill="#000000">updated_at    </text>
<text text-anchor="start" x="432.0014" y="-203.9" font-family="Arial" font-size="14.00" fill="#666666">[timestamp(6) without time zone]</text>
<polygon fill="none" stroke="#000000" points="321,-162.5 321,-192.5 641,-192.5 641,-162.5 321,-162.5"/>
<text text-anchor="start" x="328" y="-173.9" font-family="Arial" font-size="14.00" fill="#000000">state    </text>
<text text-anchor="start" x="392.5512" y="-173.9" font-family="Arial" font-size="14.00" fill="#666666">[integer]</text>
<polygon fill="none" stroke="#000000" points="321,-132.5 321,-162.5 641,-162.5 641,-132.5 321,-132.5"/>
<text text-anchor="start" x="328" y="-143.9" font-family="Arial" font-size="14.00" fill="#000000">vector_id    </text>
<text text-anchor="start" x="418.993" y="-143.9" font-family="Arial" font-size="14.00" fill="#666666">[varchar]</text>
<polygon fill="none" stroke="#000000" points="321,-102.5 321,-132.5 641,-132.5 641,-102.5 321,-102.5"/>
<text text-anchor="start" x="328" y="-113.9" font-family="Arial" font-size="14.00" fill="#000000">chunking_profile_id    </text>
<text text-anchor="start" x="482.791" y="-113.9" font-family="Arial" font-size="14.00" fill="#666666">[bigint]</text>
<polygon fill="none" stroke="#000000" points="321,-72.5 321,-102.5 641,-102.5 641,-72.5 321,-72.5"/>
<text text-anchor="start" x="328" y="-83.9" font-family="Arial" font-size="14.00" fill="#000000">stop_jobs    </text>
<text text-anchor="start" x="422.115" y="-83.9" font-family="Arial" font-size="14.00" fill="#666666">[boolean]</text>
<polygon fill="none" stroke="#000000" points="321,-42.5 321,-72.5 641,-72.5 641,-42.5 321,-42.5"/>
<text text-anchor="start" x="328" y="-53.9" font-family="Arial" font-size="14.00" fill="#000000">error_message    </text>
<text text-anchor="start" x="456.3254" y="-53.9" font-family="Arial" font-size="14.00" fill="#666666">[varchar]</text>
</g>
<!-- public.chunks&#45;&gt;public.documents -->
<g id="edge3" class="edge">
<title>public.chunks:document_id&#45;&gt;public.documents:id</title>
<path fill="none" stroke="#000000" d="M636.2373,-757.0482C804.4151,-742.0276 815.4281,-357.5 641,-357.5"/>
<polygon fill="#000000" stroke="#000000" points="635.9903,-757.059 625.8016,-753.0044 630.9951,-757.2795 626,-757.5 626,-757.5 626,-757.5 630.9951,-757.2795 626.1984,-761.9956 635.9903,-757.059 635.9903,-757.059"/>
<text text-anchor="start" x="632.8785" y="-767.5" font-family="Arial" font-size="10.00" fill="#000000">FOREIGN KEY (document_id) REFERENCES documents(id)</text>
</g>
<!-- public.graph_entity_descriptions -->
<g id="node2" class="node">
<title>public.graph_entity_descriptions</title>
<polygon fill="#efefef" stroke="transparent" points="43,-1172.5 43,-1207.5 441,-1207.5 441,-1172.5 43,-1172.5"/>
<polygon fill="none" stroke="#000000" points="43,-1172.5 43,-1207.5 441,-1207.5 441,-1172.5 43,-1172.5"/>
<text text-anchor="start" x="49.6843" y="-1185.3" font-family="Arial Bold" font-size="18.00" fill="#000000">public.graph_entity_descriptions</text>
<text text-anchor="start" x="306.7477" y="-1185.3" font-family="Arial" font-size="14.00" fill="#000000">    </text>
<text text-anchor="start" x="340.9525" y="-1185.3" font-family="Arial" font-size="14.00" fill="#666666">[BASE TABLE]</text>
<polygon fill="none" stroke="#000000" points="43,-1142.5 43,-1172.5 441,-1172.5 441,-1142.5 43,-1142.5"/>
<text text-anchor="start" x="50" y="-1153.9" font-family="Arial" font-size="14.00" fill="#000000">id    </text>
<text text-anchor="start" x="95.094" y="-1153.9" font-family="Arial" font-size="14.00" fill="#666666">[bigint]</text>
<polygon fill="none" stroke="#000000" points="43,-1112.5 43,-1142.5 441,-1142.5 441,-1112.5 43,-1112.5"/>
<text text-anchor="start" x="50" y="-1123.9" font-family="Arial" font-size="14.00" fill="#000000">graph_entity_id    </text>
<text text-anchor="start" x="179.9032" y="-1123.9" font-family="Arial" font-size="14.00" fill="#666666">[bigint]</text>
<polygon fill="none" stroke="#000000" points="43,-1082.5 43,-1112.5 441,-1112.5 441,-1082.5 43,-1082.5"/>
<text text-anchor="start" x="50" y="-1093.9" font-family="Arial" font-size="14.00" fill="#000000">description    </text>
<text text-anchor="start" x="151.8822" y="-1093.9" font-family="Arial" font-size="14.00" fill="#666666">[varchar]</text>
<polygon fill="none" stroke="#000000" points="43,-1052.5 43,-1082.5 441,-1082.5 441,-1052.5 43,-1052.5"/>
<text text-anchor="start" x="50" y="-1063.9" font-family="Arial" font-size="14.00" fill="#000000">chunk_id    </text>
<text text-anchor="start" x="140.2244" y="-1063.9" font-family="Arial" font-size="14.00" fill="#666666">[bigint]</text>
<polygon fill="none" stroke="#000000" points="43,-1022.5 43,-1052.5 441,-1052.5 441,-1022.5 43,-1022.5"/>
<text text-anchor="start" x="50" y="-1033.9" font-family="Arial" font-size="14.00" fill="#000000">created_at    </text>
<text text-anchor="start" x="150.3422" y="-1033.9" font-family="Arial" font-size="14.00" fill="#666666">[timestamp(6) without time zone]</text>
<polygon fill="none" stroke="#000000" points="43,-992.5 43,-1022.5 441,-1022.5 441,-992.5 43,-992.5"/>
<text text-anchor="start" x="50" y="-1003.9" font-family="Arial" font-size="14.00" fill="#000000">updated_at    </text>
<text text-anchor="start" x="154.2468" y="-1003.9" font-family="Arial" font-size="14.00" fill="#666666">[timestamp(6) without time zone]</text>
</g>
<!-- public.graph_entity_descriptions&#45;&gt;public.chunks -->
<g id="edge1" class="edge">
<title>public.graph_entity_descriptions:chunk_id&#45;&gt;public.chunks:id</title>
<path fill="none" stroke="#000000" d="M451.3521,-1066.3536C489.229,-1056.9871 464.3826,-992.3158 441,-950 414.3414,-901.7554 362.6586,-932.2446 336,-884 315.2569,-846.4609 293.1111,-787.5 336,-787.5"/>
<polygon fill="#000000" stroke="#000000" points="450.9392,-1066.3993 440.5047,-1063.0273 445.9696,-1066.9496 441,-1067.5 441,-1067.5 441,-1067.5 445.9696,-1066.9496 441.4953,-1071.9727 450.9392,-1066.3993 450.9392,-1066.3993"/>
<text text-anchor="start" x="448.1045" y="-1077.5" font-family="Arial" font-size="10.00" fill="#000000">FOREIGN KEY (chunk_id) REFERENCES chunks(id)</text>
</g>
<!-- public.graph_relationships -->
<g id="node3" class="node">
<title>public.graph_relationships</title>
<polygon fill="#efefef" stroke="transparent" points="545,-1202.5 545,-1237.5 895,-1237.5 895,-1202.5 545,-1202.5"/>
<polygon fill="none" stroke="#000000" points="545,-1202.5 545,-1237.5 895,-1237.5 895,-1202.5 545,-1202.5"/>
<text text-anchor="start" x="551.6927" y="-1215.3" font-family="Arial Bold" font-size="18.00" fill="#000000">public.graph_relationships</text>
<text text-anchor="start" x="760.7393" y="-1215.3" font-family="Arial" font-size="14.00" fill="#000000">    </text>
<text text-anchor="start" x="794.9441" y="-1215.3" font-family="Arial" font-size="14.00" fill="#666666">[BASE TABLE]</text>
<polygon fill="none" stroke="#000000" points="545,-1172.5 545,-1202.5 895,-1202.5 895,-1172.5 545,-1172.5"/>
<text text-anchor="start" x="552" y="-1183.9" font-family="Arial" font-size="14.00" fill="#000000">id    </text>
<text text-anchor="start" x="597.094" y="-1183.9" font-family="Arial" font-size="14.00" fill="#666666">[bigint]</text>
<polygon fill="none" stroke="#000000" points="545,-1142.5 545,-1172.5 895,-1172.5 895,-1142.5 545,-1142.5"/>
<text text-anchor="start" x="552" y="-1153.9" font-family="Arial" font-size="14.00" fill="#000000">from_entity_id    </text>
<text text-anchor="start" x="674.1066" y="-1153.9" font-family="Arial" font-size="14.00" fill="#666666">[bigint]</text>
<polygon fill="none" stroke="#000000" points="545,-1112.5 545,-1142.5 895,-1142.5 895,-1112.5 545,-1112.5"/>
<text text-anchor="start" x="552" y="-1123.9" font-family="Arial" font-size="14.00" fill="#000000">to_entity_id    </text>
<text text-anchor="start" x="657.7854" y="-1123.9" font-family="Arial" font-size="14.00" fill="#666666">[bigint]</text>
<polygon fill="none" stroke="#000000" points="545,-1082.5 545,-1112.5 895,-1112.5 895,-1082.5 545,-1082.5"/>
<text text-anchor="start" x="552" y="-1093.9" font-family="Arial" font-size="14.00" fill="#000000">chunk_id    </text>
<text text-anchor="start" x="642.2244" y="-1093.9" font-family="Arial" font-size="14.00" fill="#666666">[bigint]</text>
<polygon fill="none" stroke="#000000" points="545,-1052.5 545,-1082.5 895,-1082.5 895,-1052.5 545,-1052.5"/>
<text text-anchor="start" x="552" y="-1063.9" font-family="Arial" font-size="14.00" fill="#000000">strength    </text>
<text text-anchor="start" x="636.777" y="-1063.9" font-family="Arial" font-size="14.00" fill="#666666">[integer]</text>
<polygon fill="none" stroke="#000000" points="545,-1022.5 545,-1052.5 895,-1052.5 895,-1022.5 545,-1022.5"/>
<text text-anchor="start" x="552" y="-1033.9" font-family="Arial" font-size="14.00" fill="#000000">description    </text>
<text text-anchor="start" x="653.8822" y="-1033.9" font-family="Arial" font-size="14.00" fill="#666666">[varchar]</text>
<polygon fill="none" stroke="#000000" points="545,-992.5 545,-1022.5 895,-1022.5 895,-992.5 545,-992.5"/>
<text text-anchor="start" x="552" y="-1003.9" font-family="Arial" font-size="14.00" fill="#000000">created_at    </text>
<text text-anchor="start" x="652.3422" y="-1003.9" font-family="Arial" font-size="14.00" fill="#666666">[timestamp(6) without time zone]</text>
<polygon fill="none" stroke="#000000" points="545,-962.5 545,-992.5 895,-992.5 895,-962.5 545,-962.5"/>
<text text-anchor="start" x="552" y="-973.9" font-family="Arial" font-size="14.00" fill="#000000">updated_at    </text>
<text text-anchor="start" x="656.2468" y="-973.9" font-family="Arial" font-size="14.00" fill="#666666">[timestamp(6) without time zone]</text>
</g>
<!-- public.graph_relationships&#45;&gt;public.chunks -->
<g id="edge2" class="edge">
<title>public.graph_relationships:chunk_id&#45;&gt;public.chunks:id</title>
<path fill="none" stroke="#000000" d="M534.6518,-1096.7821C469.4924,-1087.1601 504.0274,-983.047 545,-920 566.4671,-886.9672 604.5329,-917.0328 626,-884 649.3707,-848.038 668.8889,-787.5 626,-787.5"/>
<polygon fill="#000000" stroke="#000000" points="535.024,-1096.8078 544.6885,-1101.9892 540.012,-1097.1539 545,-1097.5 545,-1097.5 545,-1097.5 540.012,-1097.1539 545.3115,-1093.0108 535.024,-1096.8078 535.024,-1096.8078"/>
<text text-anchor="start" x="552.1045" y="-1107.5" font-family="Arial" font-size="10.00" fill="#000000">FOREIGN KEY (chunk_id) REFERENCES chunks(id)</text>
</g>
</g>
</svg>
