<?xml version="1.0" encoding="UTF-8" standalone="no"?>
<!DOCTYPE svg PUBLIC "-//W3C//DTD SVG 1.1//EN"
 "http://www.w3.org/Graphics/SVG/1.1/DTD/svg11.dtd">
<!-- Generated by graphviz version 2.40.1 (20161225.0304)
 -->
<!-- Title: public.motor_note_tags Pages: 1 -->
<svg width="697pt" height="502pt"
 viewBox="0.00 0.00 696.50 502.00" xmlns="http://www.w3.org/2000/svg" xmlns:xlink="http://www.w3.org/1999/xlink">
<g id="graph0" class="graph" transform="scale(1 1) rotate(0) translate(4 498)">
<title>public.motor_note_tags</title>
<polygon fill="#ffffff" stroke="transparent" points="-4,4 -4,-498 692.5,-498 692.5,4 -4,4"/>
<!-- public.motor_note_tags -->
<g id="node1" class="node">
<title>public.motor_note_tags</title>
<polygon fill="#efefef" stroke="transparent" points="61.5,-165.5 61.5,-200.5 389.5,-200.5 389.5,-165.5 61.5,-165.5"/>
<polygon fill="none" stroke="#000000" points="61.5,-165.5 61.5,-200.5 389.5,-200.5 389.5,-165.5 61.5,-165.5"/>
<text text-anchor="start" x="68.188" y="-178.3" font-family="Arial Bold" font-size="18.00" fill="#000000">public.motor_note_tags</text>
<text text-anchor="start" x="255.244" y="-178.3" font-family="Arial" font-size="14.00" fill="#000000">    </text>
<text text-anchor="start" x="289.4488" y="-178.3" font-family="Arial" font-size="14.00" fill="#666666">[BASE TABLE]</text>
<polygon fill="none" stroke="#000000" points="61.5,-135.5 61.5,-165.5 389.5,-165.5 389.5,-135.5 61.5,-135.5"/>
<text text-anchor="start" x="68.5" y="-146.9" font-family="Arial" font-size="14.00" fill="#000000">id </text>
<text text-anchor="start" x="83.2798" y="-146.9" font-family="Arial" font-size="14.00" fill="#666666">[bigint]</text>
<polygon fill="none" stroke="#000000" points="61.5,-105.5 61.5,-135.5 389.5,-135.5 389.5,-105.5 61.5,-105.5"/>
<text text-anchor="start" x="68.5" y="-116.9" font-family="Arial" font-size="14.00" fill="#000000">name </text>
<text text-anchor="start" x="107.399" y="-116.9" font-family="Arial" font-size="14.00" fill="#666666">[varchar]</text>
<polygon fill="none" stroke="#000000" points="61.5,-75.5 61.5,-105.5 389.5,-105.5 389.5,-75.5 61.5,-75.5"/>
<text text-anchor="start" x="68.5" y="-86.9" font-family="Arial" font-size="14.00" fill="#000000">created_at </text>
<text text-anchor="start" x="138.528" y="-86.9" font-family="Arial" font-size="14.00" fill="#666666">[timestamp(6) without time zone]</text>
<polygon fill="none" stroke="#000000" points="61.5,-45.5 61.5,-75.5 389.5,-75.5 389.5,-45.5 61.5,-45.5"/>
<text text-anchor="start" x="68.5" y="-56.9" font-family="Arial" font-size="14.00" fill="#000000">updated_at </text>
<text text-anchor="start" x="142.4326" y="-56.9" font-family="Arial" font-size="14.00" fill="#666666">[timestamp(6) without time zone]</text>
<polygon fill="none" stroke="#000000" stroke-width="3" points="60,-44.5 60,-202.5 391,-202.5 391,-44.5 60,-44.5"/>
</g>
<!-- public.motor_note_tag_tags -->
<g id="node2" class="node">
<title>public.motor_note_tag_tags</title>
<polygon fill="#efefef" stroke="transparent" points="43.5,-415.5 43.5,-450.5 406.5,-450.5 406.5,-415.5 43.5,-415.5"/>
<polygon fill="none" stroke="#000000" points="43.5,-415.5 43.5,-450.5 406.5,-450.5 406.5,-415.5 43.5,-415.5"/>
<text text-anchor="start" x="50.1776" y="-428.3" font-family="Arial Bold" font-size="18.00" fill="#000000">public.motor_note_tag_tags</text>
<text text-anchor="start" x="272.2544" y="-428.3" font-family="Arial" font-size="14.00" fill="#000000">    </text>
<text text-anchor="start" x="306.4592" y="-428.3" font-family="Arial" font-size="14.00" fill="#666666">[BASE TABLE]</text>
<polygon fill="none" stroke="#000000" points="43.5,-385.5 43.5,-415.5 406.5,-415.5 406.5,-385.5 43.5,-385.5"/>
<text text-anchor="start" x="50.5" y="-396.9" font-family="Arial" font-size="14.00" fill="#000000">id    </text>
<text text-anchor="start" x="95.594" y="-396.9" font-family="Arial" font-size="14.00" fill="#666666">[bigint]</text>
<polygon fill="none" stroke="#000000" points="43.5,-355.5 43.5,-385.5 406.5,-385.5 406.5,-355.5 43.5,-355.5"/>
<text text-anchor="start" x="50.5" y="-366.9" font-family="Arial" font-size="14.00" fill="#000000">tag_id    </text>
<text text-anchor="start" x="122.8324" y="-366.9" font-family="Arial" font-size="14.00" fill="#666666">[bigint]</text>
<polygon fill="none" stroke="#000000" points="43.5,-325.5 43.5,-355.5 406.5,-355.5 406.5,-325.5 43.5,-325.5"/>
<text text-anchor="start" x="50.5" y="-336.9" font-family="Arial" font-size="14.00" fill="#000000">note_id    </text>
<text text-anchor="start" x="130.615" y="-336.9" font-family="Arial" font-size="14.00" fill="#666666">[bigint]</text>
</g>
<!-- public.motor_note_tag_tags&#45;&gt;public.motor_note_tags -->
<g id="edge1" class="edge">
<title>public.motor_note_tag_tags:tag_id&#45;&gt;public.motor_note_tags:id</title>
<path fill="none" stroke="#000000" d="M416.4487,-368.9054C442.7522,-359.3362 429.9903,-309.069 406.5,-283 354.9,-225.7355 113.1,-304.2645 61.5,-247 32.7898,-215.1381 18.6111,-150.5 61.5,-150.5"/>
<polygon fill="#000000" stroke="#000000" points="416.374,-368.9173 405.7878,-366.0567 411.437,-369.7087 406.5,-370.5 406.5,-370.5 406.5,-370.5 411.437,-369.7087 407.2122,-374.9433 416.374,-368.9173 416.374,-368.9173"/>
<text text-anchor="start" x="413.32" y="-380.5" font-family="Arial" font-size="10.00" fill="#000000">FOREIGN KEY (tag_id) REFERENCES motor_note_tags(id)</text>
</g>
</g>
</svg>
