<?xml version="1.0" encoding="UTF-8" standalone="no"?>
<!DOCTYPE svg PUBLIC "-//W3C//DTD SVG 1.1//EN"
 "http://www.w3.org/Graphics/SVG/1.1/DTD/svg11.dtd">
<!-- Generated by graphviz version 2.40.1 (20161225.0304)
 -->
<!-- Title: public.graph_entities Pages: 1 -->
<svg width="1208pt" height="1289pt"
 viewBox="0.00 0.00 1208.00 1289.00" xmlns="http://www.w3.org/2000/svg" xmlns:xlink="http://www.w3.org/1999/xlink">
<g id="graph0" class="graph" transform="scale(1 1) rotate(0) translate(4 1285)">
<title>public.graph_entities</title>
<polygon fill="#ffffff" stroke="transparent" points="-4,4 -4,-1285 1204,-1285 1204,4 -4,4"/>
<!-- public.graph_entities -->
<g id="node1" class="node">
<title>public.graph_entities</title>
<polygon fill="#efefef" stroke="transparent" points="567,-802.5 567,-837.5 873,-837.5 873,-802.5 567,-802.5"/>
<polygon fill="none" stroke="#000000" points="567,-802.5 567,-837.5 873,-837.5 873,-802.5 567,-802.5"/>
<text text-anchor="start" x="573.6941" y="-815.3" font-family="Arial Bold" font-size="18.00" fill="#000000">public.graph_entities</text>
<text text-anchor="start" x="738.7379" y="-815.3" font-family="Arial" font-size="14.00" fill="#000000">    </text>
<text text-anchor="start" x="772.9427" y="-815.3" font-family="Arial" font-size="14.00" fill="#666666">[BASE TABLE]</text>
<polygon fill="none" stroke="#000000" points="567,-772.5 567,-802.5 873,-802.5 873,-772.5 567,-772.5"/>
<text text-anchor="start" x="574" y="-783.9" font-family="Arial" font-size="14.00" fill="#000000">id </text>
<text text-anchor="start" x="588.7798" y="-783.9" font-family="Arial" font-size="14.00" fill="#666666">[bigint]</text>
<polygon fill="none" stroke="#000000" points="567,-742.5 567,-772.5 873,-772.5 873,-742.5 567,-742.5"/>
<text text-anchor="start" x="574" y="-753.9" font-family="Arial" font-size="14.00" fill="#000000">name </text>
<text text-anchor="start" x="612.899" y="-753.9" font-family="Arial" font-size="14.00" fill="#666666">[varchar]</text>
<polygon fill="none" stroke="#000000" points="567,-712.5 567,-742.5 873,-742.5 873,-712.5 567,-712.5"/>
<text text-anchor="start" x="574" y="-723.9" font-family="Arial" font-size="14.00" fill="#000000">entity_type </text>
<text text-anchor="start" x="645.582" y="-723.9" font-family="Arial" font-size="14.00" fill="#666666">[varchar]</text>
<polygon fill="none" stroke="#000000" points="567,-682.5 567,-712.5 873,-712.5 873,-682.5 567,-682.5"/>
<text text-anchor="start" x="574" y="-693.9" font-family="Arial" font-size="14.00" fill="#000000">collection_id </text>
<text text-anchor="start" x="654.9032" y="-693.9" font-family="Arial" font-size="14.00" fill="#666666">[bigint]</text>
<polygon fill="none" stroke="#000000" points="567,-652.5 567,-682.5 873,-682.5 873,-652.5 567,-652.5"/>
<text text-anchor="start" x="574" y="-663.9" font-family="Arial" font-size="14.00" fill="#000000">summary </text>
<text text-anchor="start" x="635.4376" y="-663.9" font-family="Arial" font-size="14.00" fill="#666666">[varchar]</text>
<polygon fill="none" stroke="#000000" points="567,-622.5 567,-652.5 873,-652.5 873,-622.5 567,-622.5"/>
<text text-anchor="start" x="574" y="-633.9" font-family="Arial" font-size="14.00" fill="#000000">summary_outdated </text>
<text text-anchor="start" x="697.697" y="-633.9" font-family="Arial" font-size="14.00" fill="#666666">[boolean]</text>
<polygon fill="none" stroke="#000000" points="567,-592.5 567,-622.5 873,-622.5 873,-592.5 567,-592.5"/>
<text text-anchor="start" x="574" y="-603.9" font-family="Arial" font-size="14.00" fill="#000000">created_at </text>
<text text-anchor="start" x="644.028" y="-603.9" font-family="Arial" font-size="14.00" fill="#666666">[timestamp(6) without time zone]</text>
<polygon fill="none" stroke="#000000" points="567,-562.5 567,-592.5 873,-592.5 873,-562.5 567,-562.5"/>
<text text-anchor="start" x="574" y="-573.9" font-family="Arial" font-size="14.00" fill="#000000">updated_at </text>
<text text-anchor="start" x="647.9326" y="-573.9" font-family="Arial" font-size="14.00" fill="#666666">[timestamp(6) without time zone]</text>
<polygon fill="none" stroke="#000000" points="567,-532.5 567,-562.5 873,-562.5 873,-532.5 567,-532.5"/>
<text text-anchor="start" x="574" y="-543.9" font-family="Arial" font-size="14.00" fill="#000000">vector_id </text>
<text text-anchor="start" x="634.6788" y="-543.9" font-family="Arial" font-size="14.00" fill="#666666">[varchar]</text>
<polygon fill="none" stroke="#000000" stroke-width="3" points="565.5,-531.5 565.5,-839.5 874.5,-839.5 874.5,-531.5 565.5,-531.5"/>
</g>
<!-- public.collections -->
<g id="node4" class="node">
<title>public.collections</title>
<polygon fill="#efefef" stroke="transparent" points="560,-372.5 560,-407.5 880,-407.5 880,-372.5 560,-372.5"/>
<polygon fill="none" stroke="#000000" points="560,-372.5 560,-407.5 880,-407.5 880,-372.5 560,-372.5"/>
<text text-anchor="start" x="588.2066" y="-385.3" font-family="Arial Bold" font-size="18.00" fill="#000000">public.collections</text>
<text text-anchor="start" x="724.2254" y="-385.3" font-family="Arial" font-size="14.00" fill="#000000">    </text>
<text text-anchor="start" x="758.4302" y="-385.3" font-family="Arial" font-size="14.00" fill="#666666">[BASE TABLE]</text>
<polygon fill="none" stroke="#000000" points="560,-342.5 560,-372.5 880,-372.5 880,-342.5 560,-342.5"/>
<text text-anchor="start" x="567" y="-353.9" font-family="Arial" font-size="14.00" fill="#000000">id    </text>
<text text-anchor="start" x="612.094" y="-353.9" font-family="Arial" font-size="14.00" fill="#666666">[bigint]</text>
<polygon fill="none" stroke="#000000" points="560,-312.5 560,-342.5 880,-342.5 880,-312.5 560,-312.5"/>
<text text-anchor="start" x="567" y="-323.9" font-family="Arial" font-size="14.00" fill="#000000">name    </text>
<text text-anchor="start" x="636.2132" y="-323.9" font-family="Arial" font-size="14.00" fill="#666666">[varchar]</text>
<polygon fill="none" stroke="#000000" points="560,-282.5 560,-312.5 880,-312.5 880,-282.5 560,-282.5"/>
<text text-anchor="start" x="567" y="-293.9" font-family="Arial" font-size="14.00" fill="#000000">slug    </text>
<text text-anchor="start" x="626.8766" y="-293.9" font-family="Arial" font-size="14.00" fill="#666666">[varchar]</text>
<polygon fill="none" stroke="#000000" points="560,-252.5 560,-282.5 880,-282.5 880,-252.5 560,-252.5"/>
<text text-anchor="start" x="567" y="-263.9" font-family="Arial" font-size="14.00" fill="#000000">created_at    </text>
<text text-anchor="start" x="667.3422" y="-263.9" font-family="Arial" font-size="14.00" fill="#666666">[timestamp(6) without time zone]</text>
<polygon fill="none" stroke="#000000" points="560,-222.5 560,-252.5 880,-252.5 880,-222.5 560,-222.5"/>
<text text-anchor="start" x="566.7546" y="-233.9" font-family="Arial" font-size="14.00" fill="#000000">updated_at    </text>
<text text-anchor="start" x="671.0014" y="-233.9" font-family="Arial" font-size="14.00" fill="#666666">[timestamp(6) without time zone]</text>
<polygon fill="none" stroke="#000000" points="560,-192.5 560,-222.5 880,-222.5 880,-192.5 560,-192.5"/>
<text text-anchor="start" x="567" y="-203.9" font-family="Arial" font-size="14.00" fill="#000000">embedding_model_id    </text>
<text text-anchor="start" x="735.0196" y="-203.9" font-family="Arial" font-size="14.00" fill="#666666">[bigint]</text>
<polygon fill="none" stroke="#000000" points="560,-162.5 560,-192.5 880,-192.5 880,-162.5 560,-162.5"/>
<text text-anchor="start" x="567" y="-173.9" font-family="Arial" font-size="14.00" fill="#000000">graph_enabled    </text>
<text text-anchor="start" x="694.5806" y="-173.9" font-family="Arial" font-size="14.00" fill="#666666">[boolean]</text>
<polygon fill="none" stroke="#000000" points="560,-132.5 560,-162.5 880,-162.5 880,-132.5 560,-132.5"/>
<text text-anchor="start" x="567" y="-143.9" font-family="Arial" font-size="14.00" fill="#000000">state    </text>
<text text-anchor="start" x="631.5512" y="-143.9" font-family="Arial" font-size="14.00" fill="#666666">[integer]</text>
<polygon fill="none" stroke="#000000" points="560,-102.5 560,-132.5 880,-132.5 880,-102.5 560,-102.5"/>
<text text-anchor="start" x="567" y="-113.9" font-family="Arial" font-size="14.00" fill="#000000">process_step    </text>
<text text-anchor="start" x="684.4516" y="-113.9" font-family="Arial" font-size="14.00" fill="#666666">[integer]</text>
<polygon fill="none" stroke="#000000" points="560,-72.5 560,-102.5 880,-102.5 880,-72.5 560,-72.5"/>
<text text-anchor="start" x="567" y="-83.9" font-family="Arial" font-size="14.00" fill="#000000">process_steps    </text>
<text text-anchor="start" x="691.4516" y="-83.9" font-family="Arial" font-size="14.00" fill="#666666">[integer]</text>
<polygon fill="none" stroke="#000000" points="560,-42.5 560,-72.5 880,-72.5 880,-42.5 560,-42.5"/>
<text text-anchor="start" x="567" y="-53.9" font-family="Arial" font-size="14.00" fill="#000000">stop_jobs    </text>
<text text-anchor="start" x="661.115" y="-53.9" font-family="Arial" font-size="14.00" fill="#666666">[boolean]</text>
</g>
<!-- public.graph_entities&#45;&gt;public.collections -->
<g id="edge4" class="edge">
<title>public.graph_entities:collection_id&#45;&gt;public.collections:id</title>
<path fill="none" stroke="#000000" d="M883.1738,-695.3288C949.0464,-666.3721 952.0291,-357.5 880,-357.5"/>
<polygon fill="#000000" stroke="#000000" points="882.7798,-695.4128 872.0608,-693.0991 877.8899,-696.4564 873,-697.5 873,-697.5 873,-697.5 877.8899,-696.4564 873.9392,-701.9009 882.7798,-695.4128 882.7798,-695.4128"/>
<text text-anchor="start" x="880.1095" y="-707.5" font-family="Arial" font-size="10.00" fill="#000000">FOREIGN KEY (collection_id) REFERENCES collections(id)</text>
</g>
<!-- public.graph_entity_descriptions -->
<g id="node2" class="node">
<title>public.graph_entity_descriptions</title>
<polygon fill="#efefef" stroke="transparent" points="43,-1172.5 43,-1207.5 441,-1207.5 441,-1172.5 43,-1172.5"/>
<polygon fill="none" stroke="#000000" points="43,-1172.5 43,-1207.5 441,-1207.5 441,-1172.5 43,-1172.5"/>
<text text-anchor="start" x="49.6843" y="-1185.3" font-family="Arial Bold" font-size="18.00" fill="#000000">public.graph_entity_descriptions</text>
<text text-anchor="start" x="306.7477" y="-1185.3" font-family="Arial" font-size="14.00" fill="#000000">    </text>
<text text-anchor="start" x="340.9525" y="-1185.3" font-family="Arial" font-size="14.00" fill="#666666">[BASE TABLE]</text>
<polygon fill="none" stroke="#000000" points="43,-1142.5 43,-1172.5 441,-1172.5 441,-1142.5 43,-1142.5"/>
<text text-anchor="start" x="50" y="-1153.9" font-family="Arial" font-size="14.00" fill="#000000">id    </text>
<text text-anchor="start" x="95.094" y="-1153.9" font-family="Arial" font-size="14.00" fill="#666666">[bigint]</text>
<polygon fill="none" stroke="#000000" points="43,-1112.5 43,-1142.5 441,-1142.5 441,-1112.5 43,-1112.5"/>
<text text-anchor="start" x="50" y="-1123.9" font-family="Arial" font-size="14.00" fill="#000000">graph_entity_id    </text>
<text text-anchor="start" x="179.9032" y="-1123.9" font-family="Arial" font-size="14.00" fill="#666666">[bigint]</text>
<polygon fill="none" stroke="#000000" points="43,-1082.5 43,-1112.5 441,-1112.5 441,-1082.5 43,-1082.5"/>
<text text-anchor="start" x="50" y="-1093.9" font-family="Arial" font-size="14.00" fill="#000000">description    </text>
<text text-anchor="start" x="151.8822" y="-1093.9" font-family="Arial" font-size="14.00" fill="#666666">[varchar]</text>
<polygon fill="none" stroke="#000000" points="43,-1052.5 43,-1082.5 441,-1082.5 441,-1052.5 43,-1052.5"/>
<text text-anchor="start" x="50" y="-1063.9" font-family="Arial" font-size="14.00" fill="#000000">chunk_id    </text>
<text text-anchor="start" x="140.2244" y="-1063.9" font-family="Arial" font-size="14.00" fill="#666666">[bigint]</text>
<polygon fill="none" stroke="#000000" points="43,-1022.5 43,-1052.5 441,-1052.5 441,-1022.5 43,-1022.5"/>
<text text-anchor="start" x="50" y="-1033.9" font-family="Arial" font-size="14.00" fill="#000000">created_at    </text>
<text text-anchor="start" x="150.3422" y="-1033.9" font-family="Arial" font-size="14.00" fill="#666666">[timestamp(6) without time zone]</text>
<polygon fill="none" stroke="#000000" points="43,-992.5 43,-1022.5 441,-1022.5 441,-992.5 43,-992.5"/>
<text text-anchor="start" x="50" y="-1003.9" font-family="Arial" font-size="14.00" fill="#000000">updated_at    </text>
<text text-anchor="start" x="154.2468" y="-1003.9" font-family="Arial" font-size="14.00" fill="#666666">[timestamp(6) without time zone]</text>
</g>
<!-- public.graph_entity_descriptions&#45;&gt;public.graph_entities -->
<g id="edge1" class="edge">
<title>public.graph_entity_descriptions:graph_entity_id&#45;&gt;public.graph_entities:id</title>
<path fill="none" stroke="#000000" d="M451.3658,-1126.9637C530.1441,-1118.2408 459.3298,-1004.9293 493,-920 517.8585,-857.2972 499.5494,-787.5 567,-787.5"/>
<polygon fill="#000000" stroke="#000000" points="450.9866,-1126.9832 440.7674,-1123.006 445.9933,-1127.2416 441,-1127.5 441,-1127.5 441,-1127.5 445.9933,-1127.2416 441.2326,-1131.994 450.9866,-1126.9832 450.9866,-1126.9832"/>
<text text-anchor="start" x="448.3735" y="-1137.5" font-family="Arial" font-size="10.00" fill="#000000">FOREIGN KEY (graph_entity_id) REFERENCES graph_entities(id)</text>
</g>
<!-- public.graph_relationships -->
<g id="node3" class="node">
<title>public.graph_relationships</title>
<polygon fill="#efefef" stroke="transparent" points="545,-1202.5 545,-1237.5 895,-1237.5 895,-1202.5 545,-1202.5"/>
<polygon fill="none" stroke="#000000" points="545,-1202.5 545,-1237.5 895,-1237.5 895,-1202.5 545,-1202.5"/>
<text text-anchor="start" x="551.6927" y="-1215.3" font-family="Arial Bold" font-size="18.00" fill="#000000">public.graph_relationships</text>
<text text-anchor="start" x="760.7393" y="-1215.3" font-family="Arial" font-size="14.00" fill="#000000">    </text>
<text text-anchor="start" x="794.9441" y="-1215.3" font-family="Arial" font-size="14.00" fill="#666666">[BASE TABLE]</text>
<polygon fill="none" stroke="#000000" points="545,-1172.5 545,-1202.5 895,-1202.5 895,-1172.5 545,-1172.5"/>
<text text-anchor="start" x="552" y="-1183.9" font-family="Arial" font-size="14.00" fill="#000000">id    </text>
<text text-anchor="start" x="597.094" y="-1183.9" font-family="Arial" font-size="14.00" fill="#666666">[bigint]</text>
<polygon fill="none" stroke="#000000" points="545,-1142.5 545,-1172.5 895,-1172.5 895,-1142.5 545,-1142.5"/>
<text text-anchor="start" x="552" y="-1153.9" font-family="Arial" font-size="14.00" fill="#000000">from_entity_id    </text>
<text text-anchor="start" x="674.1066" y="-1153.9" font-family="Arial" font-size="14.00" fill="#666666">[bigint]</text>
<polygon fill="none" stroke="#000000" points="545,-1112.5 545,-1142.5 895,-1142.5 895,-1112.5 545,-1112.5"/>
<text text-anchor="start" x="552" y="-1123.9" font-family="Arial" font-size="14.00" fill="#000000">to_entity_id    </text>
<text text-anchor="start" x="657.7854" y="-1123.9" font-family="Arial" font-size="14.00" fill="#666666">[bigint]</text>
<polygon fill="none" stroke="#000000" points="545,-1082.5 545,-1112.5 895,-1112.5 895,-1082.5 545,-1082.5"/>
<text text-anchor="start" x="552" y="-1093.9" font-family="Arial" font-size="14.00" fill="#000000">chunk_id    </text>
<text text-anchor="start" x="642.2244" y="-1093.9" font-family="Arial" font-size="14.00" fill="#666666">[bigint]</text>
<polygon fill="none" stroke="#000000" points="545,-1052.5 545,-1082.5 895,-1082.5 895,-1052.5 545,-1052.5"/>
<text text-anchor="start" x="552" y="-1063.9" font-family="Arial" font-size="14.00" fill="#000000">strength    </text>
<text text-anchor="start" x="636.777" y="-1063.9" font-family="Arial" font-size="14.00" fill="#666666">[integer]</text>
<polygon fill="none" stroke="#000000" points="545,-1022.5 545,-1052.5 895,-1052.5 895,-1022.5 545,-1022.5"/>
<text text-anchor="start" x="552" y="-1033.9" font-family="Arial" font-size="14.00" fill="#000000">description    </text>
<text text-anchor="start" x="653.8822" y="-1033.9" font-family="Arial" font-size="14.00" fill="#666666">[varchar]</text>
<polygon fill="none" stroke="#000000" points="545,-992.5 545,-1022.5 895,-1022.5 895,-992.5 545,-992.5"/>
<text text-anchor="start" x="552" y="-1003.9" font-family="Arial" font-size="14.00" fill="#000000">created_at    </text>
<text text-anchor="start" x="652.3422" y="-1003.9" font-family="Arial" font-size="14.00" fill="#666666">[timestamp(6) without time zone]</text>
<polygon fill="none" stroke="#000000" points="545,-962.5 545,-992.5 895,-992.5 895,-962.5 545,-962.5"/>
<text text-anchor="start" x="552" y="-973.9" font-family="Arial" font-size="14.00" fill="#000000">updated_at    </text>
<text text-anchor="start" x="656.2468" y="-973.9" font-family="Arial" font-size="14.00" fill="#666666">[timestamp(6) without time zone]</text>
</g>
<!-- public.graph_relationships&#45;&gt;public.graph_entities -->
<g id="edge2" class="edge">
<title>public.graph_relationships:from_entity_id&#45;&gt;public.graph_entities:id</title>
<path fill="none" stroke="#000000" d="M905.0431,-1155.5093C975.3654,-1126.3863 951.8282,-787.5 873,-787.5"/>
<polygon fill="#000000" stroke="#000000" points="904.8092,-1155.5556 894.125,-1153.0859 899.9046,-1156.5278 895,-1157.5 895,-1157.5 895,-1157.5 899.9046,-1156.5278 895.875,-1161.9141 904.8092,-1155.5556 904.8092,-1155.5556"/>
<text text-anchor="start" x="902.158" y="-1167.5" font-family="Arial" font-size="10.00" fill="#000000">FOREIGN KEY (from_entity_id) REFERENCES graph_entities(id)</text>
</g>
<!-- public.graph_relationships&#45;&gt;public.graph_entities -->
<g id="edge3" class="edge">
<title>public.graph_relationships:to_entity_id&#45;&gt;public.graph_entities:id</title>
<path fill="none" stroke="#000000" d="M905.0076,-1125.3288C968.533,-1096.3721 945.1645,-787.5 873,-787.5"/>
<polygon fill="#000000" stroke="#000000" points="904.7727,-1125.3797 894.0459,-1123.1023 899.8863,-1126.4399 895,-1127.5 895,-1127.5 895,-1127.5 899.8863,-1126.4399 895.9541,-1131.8977 904.7727,-1125.3797 904.7727,-1125.3797"/>
<text text-anchor="start" x="901.987" y="-1137.5" font-family="Arial" font-size="10.00" fill="#000000">FOREIGN KEY (to_entity_id) REFERENCES graph_entities(id)</text>
</g>
</g>
</svg>
