<?xml version="1.0" encoding="UTF-8" standalone="no"?>
<!DOCTYPE svg PUBLIC "-//W3C//DTD SVG 1.1//EN"
 "http://www.w3.org/Graphics/SVG/1.1/DTD/svg11.dtd">
<!-- Generated by graphviz version 2.40.1 (20161225.0304)
 -->
<!-- Title: public.message_augmentations Pages: 1 -->
<svg width="727pt" height="832pt"
 viewBox="0.00 0.00 727.00 832.00" xmlns="http://www.w3.org/2000/svg" xmlns:xlink="http://www.w3.org/1999/xlink">
<g id="graph0" class="graph" transform="scale(1 1) rotate(0) translate(4 828)">
<title>public.message_augmentations</title>
<polygon fill="#ffffff" stroke="transparent" points="-4,4 -4,-828 723,-828 723,4 -4,4"/>
<!-- public.message_augmentations -->
<g id="node1" class="node">
<title>public.message_augmentations</title>
<polygon fill="#efefef" stroke="transparent" points="46,-742.5 46,-777.5 440,-777.5 440,-742.5 46,-742.5"/>
<polygon fill="none" stroke="#000000" points="46,-742.5 46,-777.5 440,-777.5 440,-742.5 46,-742.5"/>
<text text-anchor="start" x="52.6796" y="-755.3" font-family="Arial Bold" font-size="18.00" fill="#000000">public.message_augmentations</text>
<text text-anchor="start" x="305.7524" y="-755.3" font-family="Arial" font-size="14.00" fill="#000000">    </text>
<text text-anchor="start" x="339.9572" y="-755.3" font-family="Arial" font-size="14.00" fill="#666666">[BASE TABLE]</text>
<polygon fill="none" stroke="#000000" points="46,-712.5 46,-742.5 440,-742.5 440,-712.5 46,-712.5"/>
<text text-anchor="start" x="53" y="-723.9" font-family="Arial" font-size="14.00" fill="#000000">id </text>
<text text-anchor="start" x="67.7798" y="-723.9" font-family="Arial" font-size="14.00" fill="#666666">[bigint]</text>
<polygon fill="none" stroke="#000000" points="46,-682.5 46,-712.5 440,-712.5 440,-682.5 46,-682.5"/>
<text text-anchor="start" x="53" y="-693.9" font-family="Arial" font-size="14.00" fill="#000000">message_id </text>
<text text-anchor="start" x="132.3534" y="-693.9" font-family="Arial" font-size="14.00" fill="#666666">[bigint]</text>
<polygon fill="none" stroke="#000000" points="46,-652.5 46,-682.5 440,-682.5 440,-652.5 46,-652.5"/>
<text text-anchor="start" x="53" y="-663.9" font-family="Arial" font-size="14.00" fill="#000000">augmentation_type </text>
<text text-anchor="start" x="175.9382" y="-663.9" font-family="Arial" font-size="14.00" fill="#666666">[varchar]</text>
<polygon fill="none" stroke="#000000" points="46,-622.5 46,-652.5 440,-652.5 440,-622.5 46,-622.5"/>
<text text-anchor="start" x="53" y="-633.9" font-family="Arial" font-size="14.00" fill="#000000">augmentation_id </text>
<text text-anchor="start" x="160.3716" y="-633.9" font-family="Arial" font-size="14.00" fill="#666666">[bigint]</text>
<polygon fill="none" stroke="#000000" points="46,-592.5 46,-622.5 440,-622.5 440,-592.5 46,-592.5"/>
<text text-anchor="start" x="53" y="-603.9" font-family="Arial" font-size="14.00" fill="#000000">created_at </text>
<text text-anchor="start" x="123.028" y="-603.9" font-family="Arial" font-size="14.00" fill="#666666">[timestamp(6) without time zone]</text>
<polygon fill="none" stroke="#000000" points="46,-562.5 46,-592.5 440,-592.5 440,-562.5 46,-562.5"/>
<text text-anchor="start" x="53" y="-573.9" font-family="Arial" font-size="14.00" fill="#000000">updated_at </text>
<text text-anchor="start" x="126.9326" y="-573.9" font-family="Arial" font-size="14.00" fill="#666666">[timestamp(6) without time zone]</text>
<polygon fill="none" stroke="#000000" points="46,-532.5 46,-562.5 440,-562.5 440,-532.5 46,-532.5"/>
<text text-anchor="start" x="53" y="-543.9" font-family="Arial" font-size="14.00" fill="#000000">distance </text>
<text text-anchor="start" x="109.0182" y="-543.9" font-family="Arial" font-size="14.00" fill="#666666">[double precision]</text>
<polygon fill="none" stroke="#000000" stroke-width="3" points="44.5,-531.5 44.5,-779.5 441.5,-779.5 441.5,-531.5 44.5,-531.5"/>
</g>
<!-- public.messages -->
<g id="node2" class="node">
<title>public.messages</title>
<polygon fill="#efefef" stroke="transparent" points="83,-372.5 83,-407.5 403,-407.5 403,-372.5 83,-372.5"/>
<polygon fill="none" stroke="#000000" points="83,-372.5 83,-407.5 403,-407.5 403,-372.5 83,-372.5"/>
<text text-anchor="start" x="112.2029" y="-385.3" font-family="Arial Bold" font-size="18.00" fill="#000000">public.messages</text>
<text text-anchor="start" x="246.2291" y="-385.3" font-family="Arial" font-size="14.00" fill="#000000">    </text>
<text text-anchor="start" x="280.4339" y="-385.3" font-family="Arial" font-size="14.00" fill="#666666">[BASE TABLE]</text>
<polygon fill="none" stroke="#000000" points="83,-342.5 83,-372.5 403,-372.5 403,-342.5 83,-342.5"/>
<text text-anchor="start" x="90" y="-353.9" font-family="Arial" font-size="14.00" fill="#000000">id    </text>
<text text-anchor="start" x="135.094" y="-353.9" font-family="Arial" font-size="14.00" fill="#666666">[bigint]</text>
<polygon fill="none" stroke="#000000" points="83,-312.5 83,-342.5 403,-342.5 403,-312.5 83,-312.5"/>
<text text-anchor="start" x="90" y="-323.9" font-family="Arial" font-size="14.00" fill="#000000">content    </text>
<text text-anchor="start" x="170.1164" y="-323.9" font-family="Arial" font-size="14.00" fill="#666666">[varchar]</text>
<polygon fill="none" stroke="#000000" points="83,-282.5 83,-312.5 403,-312.5 403,-282.5 83,-282.5"/>
<text text-anchor="start" x="90" y="-293.9" font-family="Arial" font-size="14.00" fill="#000000">created_at    </text>
<text text-anchor="start" x="190.3422" y="-293.9" font-family="Arial" font-size="14.00" fill="#666666">[timestamp(6) without time zone]</text>
<polygon fill="none" stroke="#000000" points="83,-252.5 83,-282.5 403,-282.5 403,-252.5 83,-252.5"/>
<text text-anchor="start" x="89.7546" y="-263.9" font-family="Arial" font-size="14.00" fill="#000000">updated_at    </text>
<text text-anchor="start" x="194.0014" y="-263.9" font-family="Arial" font-size="14.00" fill="#666666">[timestamp(6) without time zone]</text>
<polygon fill="none" stroke="#000000" points="83,-222.5 83,-252.5 403,-252.5 403,-222.5 83,-222.5"/>
<text text-anchor="start" x="90" y="-233.9" font-family="Arial" font-size="14.00" fill="#000000">conversation_id    </text>
<text text-anchor="start" x="222.23" y="-233.9" font-family="Arial" font-size="14.00" fill="#666666">[bigint]</text>
<polygon fill="none" stroke="#000000" points="83,-192.5 83,-222.5 403,-222.5 403,-192.5 83,-192.5"/>
<text text-anchor="start" x="90" y="-203.9" font-family="Arial" font-size="14.00" fill="#000000">author_type    </text>
<text text-anchor="start" x="198.1248" y="-203.9" font-family="Arial" font-size="14.00" fill="#666666">[varchar]</text>
<polygon fill="none" stroke="#000000" points="83,-162.5 83,-192.5 403,-192.5 403,-162.5 83,-162.5"/>
<text text-anchor="start" x="90" y="-173.9" font-family="Arial" font-size="14.00" fill="#000000">author_id    </text>
<text text-anchor="start" x="182.5582" y="-173.9" font-family="Arial" font-size="14.00" fill="#666666">[bigint]</text>
<polygon fill="none" stroke="#000000" points="83,-132.5 83,-162.5 403,-162.5 403,-132.5 83,-132.5"/>
<text text-anchor="start" x="90" y="-143.9" font-family="Arial" font-size="14.00" fill="#000000">statistics    </text>
<text text-anchor="start" x="177.8724" y="-143.9" font-family="Arial" font-size="14.00" fill="#666666">[jsonb]</text>
<polygon fill="none" stroke="#000000" points="83,-102.5 83,-132.5 403,-132.5 403,-102.5 83,-102.5"/>
<text text-anchor="start" x="90" y="-113.9" font-family="Arial" font-size="14.00" fill="#000000">error    </text>
<text text-anchor="start" x="153.7518" y="-113.9" font-family="Arial" font-size="14.00" fill="#666666">[jsonb]</text>
<polygon fill="none" stroke="#000000" points="83,-72.5 83,-102.5 403,-102.5 403,-72.5 83,-72.5"/>
<text text-anchor="start" x="90" y="-83.9" font-family="Arial" font-size="14.00" fill="#000000">prompt    </text>
<text text-anchor="start" x="167.7644" y="-83.9" font-family="Arial" font-size="14.00" fill="#666666">[varchar]</text>
<polygon fill="none" stroke="#000000" points="83,-42.5 83,-72.5 403,-72.5 403,-42.5 83,-42.5"/>
<text text-anchor="start" x="90" y="-53.9" font-family="Arial" font-size="14.00" fill="#000000">raw_content    </text>
<text text-anchor="start" x="200.4488" y="-53.9" font-family="Arial" font-size="14.00" fill="#666666">[varchar]</text>
</g>
<!-- public.message_augmentations&#45;&gt;public.messages -->
<g id="edge1" class="edge">
<title>public.message_augmentations:message_id&#45;&gt;public.messages:id</title>
<path fill="none" stroke="#000000" d="M449.9505,-695.3288C512.4472,-666.3721 475.439,-357.5 403,-357.5"/>
<polygon fill="#000000" stroke="#000000" points="449.7701,-695.3681 439.0406,-693.1034 444.8851,-696.434 440,-697.5 440,-697.5 440,-697.5 444.8851,-696.434 440.9594,-701.8966 449.7701,-695.3681 449.7701,-695.3681"/>
<text text-anchor="start" x="447.2165" y="-707.5" font-family="Arial" font-size="10.00" fill="#000000">FOREIGN KEY (message_id) REFERENCES messages(id)</text>
</g>
</g>
</svg>
