<?xml version="1.0" encoding="UTF-8" standalone="no"?>
<!DOCTYPE svg PUBLIC "-//W3C//DTD SVG 1.1//EN"
 "http://www.w3.org/Graphics/SVG/1.1/DTD/svg11.dtd">
<!-- Generated by graphviz version 2.40.1 (20161225.0304)
 -->
<!-- Title: public.motor_alert_locks Pages: 1 -->
<svg width="658pt" height="802pt"
 viewBox="0.00 0.00 657.50 802.00" xmlns="http://www.w3.org/2000/svg" xmlns:xlink="http://www.w3.org/1999/xlink">
<g id="graph0" class="graph" transform="scale(1 1) rotate(0) translate(4 798)">
<title>public.motor_alert_locks</title>
<polygon fill="#ffffff" stroke="transparent" points="-4,4 -4,-798 653.5,-798 653.5,4 -4,4"/>
<!-- public.motor_alert_locks -->
<g id="node1" class="node">
<title>public.motor_alert_locks</title>
<polygon fill="#efefef" stroke="transparent" points="46.5,-712.5 46.5,-747.5 381.5,-747.5 381.5,-712.5 46.5,-712.5"/>
<polygon fill="none" stroke="#000000" points="46.5,-712.5 46.5,-747.5 381.5,-747.5 381.5,-712.5 46.5,-712.5"/>
<text text-anchor="start" x="53.205" y="-725.3" font-family="Arial Bold" font-size="18.00" fill="#000000">public.motor_alert_locks</text>
<text text-anchor="start" x="247.227" y="-725.3" font-family="Arial" font-size="14.00" fill="#000000">    </text>
<text text-anchor="start" x="281.4318" y="-725.3" font-family="Arial" font-size="14.00" fill="#666666">[BASE TABLE]</text>
<polygon fill="none" stroke="#000000" points="46.5,-682.5 46.5,-712.5 381.5,-712.5 381.5,-682.5 46.5,-682.5"/>
<text text-anchor="start" x="53.5" y="-693.9" font-family="Arial" font-size="14.00" fill="#000000">id </text>
<text text-anchor="start" x="68.2798" y="-693.9" font-family="Arial" font-size="14.00" fill="#666666">[bigint]</text>
<polygon fill="none" stroke="#000000" points="46.5,-652.5 46.5,-682.5 381.5,-682.5 381.5,-652.5 46.5,-652.5"/>
<text text-anchor="start" x="53.5" y="-663.9" font-family="Arial" font-size="14.00" fill="#000000">alert_id </text>
<text text-anchor="start" x="103.2854" y="-663.9" font-family="Arial" font-size="14.00" fill="#666666">[bigint]</text>
<polygon fill="none" stroke="#000000" points="46.5,-622.5 46.5,-652.5 381.5,-652.5 381.5,-622.5 46.5,-622.5"/>
<text text-anchor="start" x="53.5" y="-633.9" font-family="Arial" font-size="14.00" fill="#000000">lock_timestamp </text>
<text text-anchor="start" x="154.6192" y="-633.9" font-family="Arial" font-size="14.00" fill="#666666">[varchar]</text>
<polygon fill="none" stroke="#000000" points="46.5,-592.5 46.5,-622.5 381.5,-622.5 381.5,-592.5 46.5,-592.5"/>
<text text-anchor="start" x="53.5" y="-603.9" font-family="Arial" font-size="14.00" fill="#000000">created_at </text>
<text text-anchor="start" x="123.528" y="-603.9" font-family="Arial" font-size="14.00" fill="#666666">[timestamp(6) without time zone]</text>
<polygon fill="none" stroke="#000000" points="46.5,-562.5 46.5,-592.5 381.5,-592.5 381.5,-562.5 46.5,-562.5"/>
<text text-anchor="start" x="53.5" y="-573.9" font-family="Arial" font-size="14.00" fill="#000000">updated_at </text>
<text text-anchor="start" x="127.4326" y="-573.9" font-family="Arial" font-size="14.00" fill="#666666">[timestamp(6) without time zone]</text>
<polygon fill="none" stroke="#000000" stroke-width="3" points="44.5,-561.5 44.5,-749.5 382.5,-749.5 382.5,-561.5 44.5,-561.5"/>
</g>
<!-- public.motor_alerts -->
<g id="node2" class="node">
<title>public.motor_alerts</title>
<polygon fill="#efefef" stroke="transparent" points="54.5,-402.5 54.5,-437.5 374.5,-437.5 374.5,-402.5 54.5,-402.5"/>
<polygon fill="none" stroke="#000000" points="54.5,-402.5 54.5,-437.5 374.5,-437.5 374.5,-402.5 54.5,-402.5"/>
<text text-anchor="start" x="74.7083" y="-415.3" font-family="Arial Bold" font-size="18.00" fill="#000000">public.motor_alerts</text>
<text text-anchor="start" x="226.7237" y="-415.3" font-family="Arial" font-size="14.00" fill="#000000">    </text>
<text text-anchor="start" x="260.9285" y="-415.3" font-family="Arial" font-size="14.00" fill="#666666">[BASE TABLE]</text>
<polygon fill="none" stroke="#000000" points="54.5,-372.5 54.5,-402.5 374.5,-402.5 374.5,-372.5 54.5,-372.5"/>
<text text-anchor="start" x="61.5" y="-383.9" font-family="Arial" font-size="14.00" fill="#000000">id    </text>
<text text-anchor="start" x="106.594" y="-383.9" font-family="Arial" font-size="14.00" fill="#666666">[bigint]</text>
<polygon fill="none" stroke="#000000" points="54.5,-342.5 54.5,-372.5 374.5,-372.5 374.5,-342.5 54.5,-342.5"/>
<text text-anchor="start" x="61.5" y="-353.9" font-family="Arial" font-size="14.00" fill="#000000">query_id    </text>
<text text-anchor="start" x="149.385" y="-353.9" font-family="Arial" font-size="14.00" fill="#666666">[bigint]</text>
<polygon fill="none" stroke="#000000" points="54.5,-312.5 54.5,-342.5 374.5,-342.5 374.5,-312.5 54.5,-312.5"/>
<text text-anchor="start" x="61.5" y="-323.9" font-family="Arial" font-size="14.00" fill="#000000">name    </text>
<text text-anchor="start" x="130.7132" y="-323.9" font-family="Arial" font-size="14.00" fill="#666666">[varchar]</text>
<polygon fill="none" stroke="#000000" points="54.5,-282.5 54.5,-312.5 374.5,-312.5 374.5,-282.5 54.5,-282.5"/>
<text text-anchor="start" x="61.5" y="-293.9" font-family="Arial" font-size="14.00" fill="#000000">description    </text>
<text text-anchor="start" x="163.3822" y="-293.9" font-family="Arial" font-size="14.00" fill="#666666">[text]</text>
<polygon fill="none" stroke="#000000" points="54.5,-252.5 54.5,-282.5 374.5,-282.5 374.5,-252.5 54.5,-252.5"/>
<text text-anchor="start" x="61.5" y="-263.9" font-family="Arial" font-size="14.00" fill="#000000">to_emails    </text>
<text text-anchor="start" x="155.5996" y="-263.9" font-family="Arial" font-size="14.00" fill="#666666">[text]</text>
<polygon fill="none" stroke="#000000" points="54.5,-222.5 54.5,-252.5 374.5,-252.5 374.5,-222.5 54.5,-222.5"/>
<text text-anchor="start" x="61.5" y="-233.9" font-family="Arial" font-size="14.00" fill="#000000">is_enabled    </text>
<text text-anchor="start" x="163.3962" y="-233.9" font-family="Arial" font-size="14.00" fill="#666666">[boolean]</text>
<polygon fill="none" stroke="#000000" points="54.5,-192.5 54.5,-222.5 374.5,-222.5 374.5,-192.5 54.5,-192.5"/>
<text text-anchor="start" x="61.5" y="-203.9" font-family="Arial" font-size="14.00" fill="#000000">preferences    </text>
<text text-anchor="start" x="169.6122" y="-203.9" font-family="Arial" font-size="14.00" fill="#666666">[text]</text>
<polygon fill="none" stroke="#000000" points="54.5,-162.5 54.5,-192.5 374.5,-192.5 374.5,-162.5 54.5,-162.5"/>
<text text-anchor="start" x="61.5" y="-173.9" font-family="Arial" font-size="14.00" fill="#000000">author_id    </text>
<text text-anchor="start" x="154.0582" y="-173.9" font-family="Arial" font-size="14.00" fill="#666666">[bigint]</text>
<polygon fill="none" stroke="#000000" points="54.5,-132.5 54.5,-162.5 374.5,-162.5 374.5,-132.5 54.5,-132.5"/>
<text text-anchor="start" x="61.5" y="-143.9" font-family="Arial" font-size="14.00" fill="#000000">author_type    </text>
<text text-anchor="start" x="169.6248" y="-143.9" font-family="Arial" font-size="14.00" fill="#666666">[varchar]</text>
<polygon fill="none" stroke="#000000" points="54.5,-102.5 54.5,-132.5 374.5,-132.5 374.5,-102.5 54.5,-102.5"/>
<text text-anchor="start" x="61.5" y="-113.9" font-family="Arial" font-size="14.00" fill="#000000">deleted_at    </text>
<text text-anchor="start" x="161.0708" y="-113.9" font-family="Arial" font-size="14.00" fill="#666666">[timestamp(6) without time zone]</text>
<polygon fill="none" stroke="#000000" points="54.5,-72.5 54.5,-102.5 374.5,-102.5 374.5,-72.5 54.5,-72.5"/>
<text text-anchor="start" x="61.5" y="-83.9" font-family="Arial" font-size="14.00" fill="#000000">created_at    </text>
<text text-anchor="start" x="161.8422" y="-83.9" font-family="Arial" font-size="14.00" fill="#666666">[timestamp(6) without time zone]</text>
<polygon fill="none" stroke="#000000" points="54.5,-42.5 54.5,-72.5 374.5,-72.5 374.5,-42.5 54.5,-42.5"/>
<text text-anchor="start" x="61.2546" y="-53.9" font-family="Arial" font-size="14.00" fill="#000000">updated_at    </text>
<text text-anchor="start" x="165.5014" y="-53.9" font-family="Arial" font-size="14.00" fill="#666666">[timestamp(6) without time zone]</text>
</g>
<!-- public.motor_alert_locks&#45;&gt;public.motor_alerts -->
<g id="edge1" class="edge">
<title>public.motor_alert_locks:alert_id&#45;&gt;public.motor_alerts:id</title>
<path fill="none" stroke="#000000" d="M391.6851,-666.6215C445.8879,-656.6401 423.6938,-564.0939 381.5,-517 332.7168,-462.5514 103.2832,-535.4486 54.5,-481 26.7701,-450.0498 12.9444,-387.5 54.5,-387.5"/>
<polygon fill="#000000" stroke="#000000" points="391.463,-666.6405 381.1132,-663.0166 386.4815,-667.0703 381.5,-667.5 381.5,-667.5 381.5,-667.5 386.4815,-667.0703 381.8868,-671.9834 391.463,-666.6405 391.463,-666.6405"/>
<text text-anchor="start" x="388.2795" y="-677.5" font-family="Arial" font-size="10.00" fill="#000000">FOREIGN KEY (alert_id) REFERENCES motor_alerts(id)</text>
</g>
</g>
</svg>
