<?xml version="1.0" encoding="UTF-8" standalone="no"?>
<!DOCTYPE svg PUBLIC "-//W3C//DTD SVG 1.1//EN"
 "http://www.w3.org/Graphics/SVG/1.1/DTD/svg11.dtd">
<!-- Generated by graphviz version 2.40.1 (20161225.0304)
 -->
<!-- Title: public.graph_relationships Pages: 1 -->
<svg width="856pt" height="802pt"
 viewBox="0.00 0.00 856.00 802.00" xmlns="http://www.w3.org/2000/svg" xmlns:xlink="http://www.w3.org/1999/xlink">
<g id="graph0" class="graph" transform="scale(1 1) rotate(0) translate(4 798)">
<title>public.graph_relationships</title>
<polygon fill="#ffffff" stroke="transparent" points="-4,4 -4,-798 852,-798 852,4 -4,4"/>
<!-- public.graph_relationships -->
<g id="node1" class="node">
<title>public.graph_relationships</title>
<polygon fill="#efefef" stroke="transparent" points="46,-712.5 46,-747.5 396,-747.5 396,-712.5 46,-712.5"/>
<polygon fill="none" stroke="#000000" points="46,-712.5 46,-747.5 396,-747.5 396,-712.5 46,-712.5"/>
<text text-anchor="start" x="52.6927" y="-725.3" font-family="Arial Bold" font-size="18.00" fill="#000000">public.graph_relationships</text>
<text text-anchor="start" x="261.7393" y="-725.3" font-family="Arial" font-size="14.00" fill="#000000">    </text>
<text text-anchor="start" x="295.9441" y="-725.3" font-family="Arial" font-size="14.00" fill="#666666">[BASE TABLE]</text>
<polygon fill="none" stroke="#000000" points="46,-682.5 46,-712.5 396,-712.5 396,-682.5 46,-682.5"/>
<text text-anchor="start" x="53" y="-693.9" font-family="Arial" font-size="14.00" fill="#000000">id </text>
<text text-anchor="start" x="67.7798" y="-693.9" font-family="Arial" font-size="14.00" fill="#666666">[bigint]</text>
<polygon fill="none" stroke="#000000" points="46,-652.5 46,-682.5 396,-682.5 396,-652.5 46,-652.5"/>
<text text-anchor="start" x="53" y="-663.9" font-family="Arial" font-size="14.00" fill="#000000">from_entity_id </text>
<text text-anchor="start" x="144.7924" y="-663.9" font-family="Arial" font-size="14.00" fill="#666666">[bigint]</text>
<polygon fill="none" stroke="#000000" points="46,-622.5 46,-652.5 396,-652.5 396,-622.5 46,-622.5"/>
<text text-anchor="start" x="53" y="-633.9" font-family="Arial" font-size="14.00" fill="#000000">to_entity_id </text>
<text text-anchor="start" x="128.4712" y="-633.9" font-family="Arial" font-size="14.00" fill="#666666">[bigint]</text>
<polygon fill="none" stroke="#000000" points="46,-592.5 46,-622.5 396,-622.5 396,-592.5 46,-592.5"/>
<text text-anchor="start" x="53" y="-603.9" font-family="Arial" font-size="14.00" fill="#000000">chunk_id </text>
<text text-anchor="start" x="112.9102" y="-603.9" font-family="Arial" font-size="14.00" fill="#666666">[bigint]</text>
<polygon fill="none" stroke="#000000" points="46,-562.5 46,-592.5 396,-592.5 396,-562.5 46,-562.5"/>
<text text-anchor="start" x="53" y="-573.9" font-family="Arial" font-size="14.00" fill="#000000">strength </text>
<text text-anchor="start" x="107.4628" y="-573.9" font-family="Arial" font-size="14.00" fill="#666666">[integer]</text>
<polygon fill="none" stroke="#000000" points="46,-532.5 46,-562.5 396,-562.5 396,-532.5 46,-532.5"/>
<text text-anchor="start" x="53" y="-543.9" font-family="Arial" font-size="14.00" fill="#000000">description </text>
<text text-anchor="start" x="124.568" y="-543.9" font-family="Arial" font-size="14.00" fill="#666666">[varchar]</text>
<polygon fill="none" stroke="#000000" points="46,-502.5 46,-532.5 396,-532.5 396,-502.5 46,-502.5"/>
<text text-anchor="start" x="53" y="-513.9" font-family="Arial" font-size="14.00" fill="#000000">created_at </text>
<text text-anchor="start" x="123.028" y="-513.9" font-family="Arial" font-size="14.00" fill="#666666">[timestamp(6) without time zone]</text>
<polygon fill="none" stroke="#000000" points="46,-472.5 46,-502.5 396,-502.5 396,-472.5 46,-472.5"/>
<text text-anchor="start" x="53" y="-483.9" font-family="Arial" font-size="14.00" fill="#000000">updated_at </text>
<text text-anchor="start" x="126.9326" y="-483.9" font-family="Arial" font-size="14.00" fill="#666666">[timestamp(6) without time zone]</text>
<polygon fill="none" stroke="#000000" stroke-width="3" points="44.5,-471.5 44.5,-749.5 397.5,-749.5 397.5,-471.5 44.5,-471.5"/>
</g>
<!-- public.graph_entities -->
<g id="node2" class="node">
<title>public.graph_entities</title>
<polygon fill="#efefef" stroke="transparent" points="61,-312.5 61,-347.5 381,-347.5 381,-312.5 61,-312.5"/>
<polygon fill="none" stroke="#000000" points="61,-312.5 61,-347.5 381,-347.5 381,-312.5 61,-312.5"/>
<text text-anchor="start" x="74.6941" y="-325.3" font-family="Arial Bold" font-size="18.00" fill="#000000">public.graph_entities</text>
<text text-anchor="start" x="239.7379" y="-325.3" font-family="Arial" font-size="14.00" fill="#000000">    </text>
<text text-anchor="start" x="273.9427" y="-325.3" font-family="Arial" font-size="14.00" fill="#666666">[BASE TABLE]</text>
<polygon fill="none" stroke="#000000" points="61,-282.5 61,-312.5 381,-312.5 381,-282.5 61,-282.5"/>
<text text-anchor="start" x="68" y="-293.9" font-family="Arial" font-size="14.00" fill="#000000">id    </text>
<text text-anchor="start" x="113.094" y="-293.9" font-family="Arial" font-size="14.00" fill="#666666">[bigint]</text>
<polygon fill="none" stroke="#000000" points="61,-252.5 61,-282.5 381,-282.5 381,-252.5 61,-252.5"/>
<text text-anchor="start" x="68" y="-263.9" font-family="Arial" font-size="14.00" fill="#000000">name    </text>
<text text-anchor="start" x="137.2132" y="-263.9" font-family="Arial" font-size="14.00" fill="#666666">[varchar]</text>
<polygon fill="none" stroke="#000000" points="61,-222.5 61,-252.5 381,-252.5 381,-222.5 61,-222.5"/>
<text text-anchor="start" x="68" y="-233.9" font-family="Arial" font-size="14.00" fill="#000000">entity_type    </text>
<text text-anchor="start" x="169.8962" y="-233.9" font-family="Arial" font-size="14.00" fill="#666666">[varchar]</text>
<polygon fill="none" stroke="#000000" points="61,-192.5 61,-222.5 381,-222.5 381,-192.5 61,-192.5"/>
<text text-anchor="start" x="68" y="-203.9" font-family="Arial" font-size="14.00" fill="#000000">collection_id    </text>
<text text-anchor="start" x="179.2174" y="-203.9" font-family="Arial" font-size="14.00" fill="#666666">[bigint]</text>
<polygon fill="none" stroke="#000000" points="61,-162.5 61,-192.5 381,-192.5 381,-162.5 61,-162.5"/>
<text text-anchor="start" x="68" y="-173.9" font-family="Arial" font-size="14.00" fill="#000000">summary    </text>
<text text-anchor="start" x="159.7518" y="-173.9" font-family="Arial" font-size="14.00" fill="#666666">[varchar]</text>
<polygon fill="none" stroke="#000000" points="61,-132.5 61,-162.5 381,-162.5 381,-132.5 61,-132.5"/>
<text text-anchor="start" x="68" y="-143.9" font-family="Arial" font-size="14.00" fill="#000000">summary_outdated    </text>
<text text-anchor="start" x="222.0112" y="-143.9" font-family="Arial" font-size="14.00" fill="#666666">[boolean]</text>
<polygon fill="none" stroke="#000000" points="61,-102.5 61,-132.5 381,-132.5 381,-102.5 61,-102.5"/>
<text text-anchor="start" x="68" y="-113.9" font-family="Arial" font-size="14.00" fill="#000000">created_at    </text>
<text text-anchor="start" x="168.3422" y="-113.9" font-family="Arial" font-size="14.00" fill="#666666">[timestamp(6) without time zone]</text>
<polygon fill="none" stroke="#000000" points="61,-72.5 61,-102.5 381,-102.5 381,-72.5 61,-72.5"/>
<text text-anchor="start" x="67.7546" y="-83.9" font-family="Arial" font-size="14.00" fill="#000000">updated_at    </text>
<text text-anchor="start" x="172.0014" y="-83.9" font-family="Arial" font-size="14.00" fill="#666666">[timestamp(6) without time zone]</text>
<polygon fill="none" stroke="#000000" points="61,-42.5 61,-72.5 381,-72.5 381,-42.5 61,-42.5"/>
<text text-anchor="start" x="68" y="-53.9" font-family="Arial" font-size="14.00" fill="#000000">vector_id    </text>
<text text-anchor="start" x="158.993" y="-53.9" font-family="Arial" font-size="14.00" fill="#666666">[varchar]</text>
</g>
<!-- public.graph_relationships&#45;&gt;public.graph_entities -->
<g id="edge1" class="edge">
<title>public.graph_relationships:from_entity_id&#45;&gt;public.graph_entities:id</title>
<path fill="none" stroke="#000000" d="M404.2456,-661.6882C434.7743,-614.6162 419.0912,-297.5 381,-297.5"/>
<polygon fill="#000000" stroke="#000000" points="404.1737,-661.7388 393.4075,-663.8218 400.0869,-664.6194 396,-667.5 396,-667.5 396,-667.5 400.0869,-664.6194 398.5925,-671.1782 404.1737,-661.7388 404.1737,-661.7388"/>
<text text-anchor="start" x="403.158" y="-677.5" font-family="Arial" font-size="10.00" fill="#000000">FOREIGN KEY (from_entity_id) REFERENCES graph_entities(id)</text>
</g>
<!-- public.graph_relationships&#45;&gt;public.graph_entities -->
<g id="edge2" class="edge">
<title>public.graph_relationships:to_entity_id&#45;&gt;public.graph_entities:id</title>
<path fill="none" stroke="#000000" d="M404.0837,-631.3084C431.2659,-585.2271 415.7864,-297.5 381,-297.5"/>
<polygon fill="#000000" stroke="#000000" points="403.9389,-631.4193 393.2637,-633.9275 399.9695,-634.4597 396,-637.5 396,-637.5 396,-637.5 399.9695,-634.4597 398.7363,-641.0725 403.9389,-631.4193 403.9389,-631.4193"/>
<text text-anchor="start" x="402.987" y="-647.5" font-family="Arial" font-size="10.00" fill="#000000">FOREIGN KEY (to_entity_id) REFERENCES graph_entities(id)</text>
</g>
<!-- public.chunks -->
<g id="node3" class="node">
<title>public.chunks</title>
<polygon fill="#efefef" stroke="transparent" points="485,-312.5 485,-347.5 805,-347.5 805,-312.5 485,-312.5"/>
<polygon fill="none" stroke="#000000" points="485,-312.5 485,-347.5 805,-347.5 805,-312.5 485,-312.5"/>
<text text-anchor="start" x="526.7021" y="-325.3" font-family="Arial Bold" font-size="18.00" fill="#000000">public.chunks</text>
<text text-anchor="start" x="635.7299" y="-325.3" font-family="Arial" font-size="14.00" fill="#000000">    </text>
<text text-anchor="start" x="669.9347" y="-325.3" font-family="Arial" font-size="14.00" fill="#666666">[BASE TABLE]</text>
<polygon fill="none" stroke="#000000" points="485,-282.5 485,-312.5 805,-312.5 805,-282.5 485,-282.5"/>
<text text-anchor="start" x="492" y="-293.9" font-family="Arial" font-size="14.00" fill="#000000">id    </text>
<text text-anchor="start" x="537.094" y="-293.9" font-family="Arial" font-size="14.00" fill="#666666">[bigint]</text>
<polygon fill="none" stroke="#000000" points="485,-252.5 485,-282.5 805,-282.5 805,-252.5 485,-252.5"/>
<text text-anchor="start" x="492" y="-263.9" font-family="Arial" font-size="14.00" fill="#000000">document_id    </text>
<text text-anchor="start" x="606.3408" y="-263.9" font-family="Arial" font-size="14.00" fill="#666666">[bigint]</text>
<polygon fill="none" stroke="#000000" points="485,-222.5 485,-252.5 805,-252.5 805,-222.5 485,-222.5"/>
<text text-anchor="start" x="492" y="-233.9" font-family="Arial" font-size="14.00" fill="#000000">vector_id    </text>
<text text-anchor="start" x="582.993" y="-233.9" font-family="Arial" font-size="14.00" fill="#666666">[varchar]</text>
<polygon fill="none" stroke="#000000" points="485,-192.5 485,-222.5 805,-222.5 805,-192.5 485,-192.5"/>
<text text-anchor="start" x="492" y="-203.9" font-family="Arial" font-size="14.00" fill="#000000">content    </text>
<text text-anchor="start" x="572.1164" y="-203.9" font-family="Arial" font-size="14.00" fill="#666666">[varchar]</text>
<polygon fill="none" stroke="#000000" points="485,-162.5 485,-192.5 805,-192.5 805,-162.5 485,-162.5"/>
<text text-anchor="start" x="492" y="-173.9" font-family="Arial" font-size="14.00" fill="#000000">embeddings    </text>
<text text-anchor="start" x="602.4502" y="-173.9" font-family="Arial" font-size="14.00" fill="#666666">[jsonb]</text>
<polygon fill="none" stroke="#000000" points="485,-132.5 485,-162.5 805,-162.5 805,-132.5 485,-132.5"/>
<text text-anchor="start" x="492" y="-143.9" font-family="Arial" font-size="14.00" fill="#000000">created_at    </text>
<text text-anchor="start" x="592.3422" y="-143.9" font-family="Arial" font-size="14.00" fill="#666666">[timestamp(6) without time zone]</text>
<polygon fill="none" stroke="#000000" points="485,-102.5 485,-132.5 805,-132.5 805,-102.5 485,-102.5"/>
<text text-anchor="start" x="491.7546" y="-113.9" font-family="Arial" font-size="14.00" fill="#000000">updated_at    </text>
<text text-anchor="start" x="596.0014" y="-113.9" font-family="Arial" font-size="14.00" fill="#666666">[timestamp(6) without time zone]</text>
<polygon fill="none" stroke="#000000" points="485,-72.5 485,-102.5 805,-102.5 805,-72.5 485,-72.5"/>
<text text-anchor="start" x="492" y="-83.9" font-family="Arial" font-size="14.00" fill="#000000">embedding_content    </text>
<text text-anchor="start" x="649.1444" y="-83.9" font-family="Arial" font-size="14.00" fill="#666666">[varchar]</text>
<polygon fill="none" stroke="#000000" points="485,-42.5 485,-72.5 805,-72.5 805,-42.5 485,-42.5"/>
<text text-anchor="start" x="492" y="-53.9" font-family="Arial" font-size="14.00" fill="#000000">entities_extracted    </text>
<text text-anchor="start" x="635.9018" y="-53.9" font-family="Arial" font-size="14.00" fill="#666666">[boolean]</text>
</g>
<!-- public.graph_relationships&#45;&gt;public.chunks -->
<g id="edge3" class="edge">
<title>public.graph_relationships:chunk_id&#45;&gt;public.chunks:id</title>
<path fill="none" stroke="#000000" d="M405.9769,-605.183C462.4774,-576.815 416.9678,-297.5 485,-297.5"/>
<polygon fill="#000000" stroke="#000000" points="405.7408,-605.2377 394.982,-603.1167 400.8704,-606.3689 396,-607.5 396,-607.5 396,-607.5 400.8704,-606.3689 397.018,-611.8833 405.7408,-605.2377 405.7408,-605.2377"/>
<text text-anchor="start" x="403.1045" y="-617.5" font-family="Arial" font-size="10.00" fill="#000000">FOREIGN KEY (chunk_id) REFERENCES chunks(id)</text>
</g>
</g>
</svg>
