<?xml version="1.0" encoding="UTF-8" standalone="no"?>
<!DOCTYPE svg PUBLIC "-//W3C//DTD SVG 1.1//EN"
 "http://www.w3.org/Graphics/SVG/1.1/DTD/svg11.dtd">
<!-- Generated by graphviz version 2.40.1 (20161225.0304)
 -->
<!-- Title: public.collections Pages: 1 -->
<svg width="1332pt" height="1529pt"
 viewBox="0.00 0.00 1332.00 1529.00" xmlns="http://www.w3.org/2000/svg" xmlns:xlink="http://www.w3.org/1999/xlink">
<g id="graph0" class="graph" transform="scale(1 1) rotate(0) translate(4 1525)">
<title>public.collections</title>
<polygon fill="#ffffff" stroke="transparent" points="-4,4 -4,-1525 1328,-1525 1328,4 -4,4"/>
<!-- public.collections -->
<g id="node1" class="node">
<title>public.collections</title>
<polygon fill="#efefef" stroke="transparent" points="518,-952.5 518,-987.5 808,-987.5 808,-952.5 518,-952.5"/>
<polygon fill="none" stroke="#000000" points="518,-952.5 518,-987.5 808,-987.5 808,-952.5 518,-952.5"/>
<text text-anchor="start" x="531.2066" y="-965.3" font-family="Arial Bold" font-size="18.00" fill="#000000">public.collections</text>
<text text-anchor="start" x="667.2254" y="-965.3" font-family="Arial" font-size="14.00" fill="#000000">    </text>
<text text-anchor="start" x="701.4302" y="-965.3" font-family="Arial" font-size="14.00" fill="#666666">[BASE TABLE]</text>
<polygon fill="none" stroke="#000000" points="518,-922.5 518,-952.5 808,-952.5 808,-922.5 518,-922.5"/>
<text text-anchor="start" x="525" y="-933.9" font-family="Arial" font-size="14.00" fill="#000000">id </text>
<text text-anchor="start" x="539.7798" y="-933.9" font-family="Arial" font-size="14.00" fill="#666666">[bigint]</text>
<polygon fill="none" stroke="#000000" points="518,-892.5 518,-922.5 808,-922.5 808,-892.5 518,-892.5"/>
<text text-anchor="start" x="525" y="-903.9" font-family="Arial" font-size="14.00" fill="#000000">name </text>
<text text-anchor="start" x="563.899" y="-903.9" font-family="Arial" font-size="14.00" fill="#666666">[varchar]</text>
<polygon fill="none" stroke="#000000" points="518,-862.5 518,-892.5 808,-892.5 808,-862.5 518,-862.5"/>
<text text-anchor="start" x="525" y="-873.9" font-family="Arial" font-size="14.00" fill="#000000">slug </text>
<text text-anchor="start" x="554.5624" y="-873.9" font-family="Arial" font-size="14.00" fill="#666666">[varchar]</text>
<polygon fill="none" stroke="#000000" points="518,-832.5 518,-862.5 808,-862.5 808,-832.5 518,-832.5"/>
<text text-anchor="start" x="525" y="-843.9" font-family="Arial" font-size="14.00" fill="#000000">created_at </text>
<text text-anchor="start" x="595.028" y="-843.9" font-family="Arial" font-size="14.00" fill="#666666">[timestamp(6) without time zone]</text>
<polygon fill="none" stroke="#000000" points="518,-802.5 518,-832.5 808,-832.5 808,-802.5 518,-802.5"/>
<text text-anchor="start" x="524.9117" y="-813.9" font-family="Arial" font-size="14.00" fill="#000000">updated_at </text>
<text text-anchor="start" x="598.8443" y="-813.9" font-family="Arial" font-size="14.00" fill="#666666">[timestamp(6) without time zone]</text>
<polygon fill="none" stroke="#000000" points="518,-772.5 518,-802.5 808,-802.5 808,-772.5 518,-772.5"/>
<text text-anchor="start" x="525" y="-783.9" font-family="Arial" font-size="14.00" fill="#000000">embedding_model_id </text>
<text text-anchor="start" x="662.7054" y="-783.9" font-family="Arial" font-size="14.00" fill="#666666">[bigint]</text>
<polygon fill="none" stroke="#000000" points="518,-742.5 518,-772.5 808,-772.5 808,-742.5 518,-742.5"/>
<text text-anchor="start" x="525" y="-753.9" font-family="Arial" font-size="14.00" fill="#000000">graph_enabled </text>
<text text-anchor="start" x="622.2664" y="-753.9" font-family="Arial" font-size="14.00" fill="#666666">[boolean]</text>
<polygon fill="none" stroke="#000000" points="518,-712.5 518,-742.5 808,-742.5 808,-712.5 518,-712.5"/>
<text text-anchor="start" x="525" y="-723.9" font-family="Arial" font-size="14.00" fill="#000000">state </text>
<text text-anchor="start" x="559.237" y="-723.9" font-family="Arial" font-size="14.00" fill="#666666">[integer]</text>
<polygon fill="none" stroke="#000000" points="518,-682.5 518,-712.5 808,-712.5 808,-682.5 518,-682.5"/>
<text text-anchor="start" x="525" y="-693.9" font-family="Arial" font-size="14.00" fill="#000000">process_step </text>
<text text-anchor="start" x="612.1374" y="-693.9" font-family="Arial" font-size="14.00" fill="#666666">[integer]</text>
<polygon fill="none" stroke="#000000" points="518,-652.5 518,-682.5 808,-682.5 808,-652.5 518,-652.5"/>
<text text-anchor="start" x="525" y="-663.9" font-family="Arial" font-size="14.00" fill="#000000">process_steps </text>
<text text-anchor="start" x="619.1374" y="-663.9" font-family="Arial" font-size="14.00" fill="#666666">[integer]</text>
<polygon fill="none" stroke="#000000" points="518,-622.5 518,-652.5 808,-652.5 808,-622.5 518,-622.5"/>
<text text-anchor="start" x="525" y="-633.9" font-family="Arial" font-size="14.00" fill="#000000">stop_jobs </text>
<text text-anchor="start" x="588.8008" y="-633.9" font-family="Arial" font-size="14.00" fill="#666666">[boolean]</text>
<polygon fill="none" stroke="#000000" stroke-width="3" points="516.5,-621.5 516.5,-989.5 809.5,-989.5 809.5,-621.5 516.5,-621.5"/>
</g>
<!-- public.model_configs -->
<g id="node5" class="node">
<title>public.model_configs</title>
<polygon fill="#efefef" stroke="transparent" points="503,-462.5 503,-497.5 823,-497.5 823,-462.5 503,-462.5"/>
<polygon fill="none" stroke="#000000" points="503,-462.5 503,-497.5 823,-497.5 823,-462.5 503,-462.5"/>
<text text-anchor="start" x="515.1983" y="-475.3" font-family="Arial Bold" font-size="18.00" fill="#000000">public.model_configs</text>
<text text-anchor="start" x="683.2337" y="-475.3" font-family="Arial" font-size="14.00" fill="#000000">    </text>
<text text-anchor="start" x="717.4385" y="-475.3" font-family="Arial" font-size="14.00" fill="#666666">[BASE TABLE]</text>
<polygon fill="none" stroke="#000000" points="503,-432.5 503,-462.5 823,-462.5 823,-432.5 503,-432.5"/>
<text text-anchor="start" x="510" y="-443.9" font-family="Arial" font-size="14.00" fill="#000000">id    </text>
<text text-anchor="start" x="555.094" y="-443.9" font-family="Arial" font-size="14.00" fill="#666666">[bigint]</text>
<polygon fill="none" stroke="#000000" points="503,-402.5 503,-432.5 823,-432.5 823,-402.5 503,-402.5"/>
<text text-anchor="start" x="510" y="-413.9" font-family="Arial" font-size="14.00" fill="#000000">name    </text>
<text text-anchor="start" x="579.2132" y="-413.9" font-family="Arial" font-size="14.00" fill="#666666">[varchar]</text>
<polygon fill="none" stroke="#000000" points="503,-372.5 503,-402.5 823,-402.5 823,-372.5 503,-372.5"/>
<text text-anchor="start" x="510" y="-383.9" font-family="Arial" font-size="14.00" fill="#000000">model    </text>
<text text-anchor="start" x="582.3198" y="-383.9" font-family="Arial" font-size="14.00" fill="#666666">[varchar]</text>
<polygon fill="none" stroke="#000000" points="503,-342.5 503,-372.5 823,-372.5 823,-342.5 503,-342.5"/>
<text text-anchor="start" x="510" y="-353.9" font-family="Arial" font-size="14.00" fill="#000000">temperature    </text>
<text text-anchor="start" x="619.6634" y="-353.9" font-family="Arial" font-size="14.00" fill="#666666">[double precision]</text>
<polygon fill="none" stroke="#000000" points="503,-312.5 503,-342.5 823,-342.5 823,-312.5 503,-312.5"/>
<text text-anchor="start" x="510" y="-323.9" font-family="Arial" font-size="14.00" fill="#000000">system_prompt    </text>
<text text-anchor="start" x="639.8808" y="-323.9" font-family="Arial" font-size="14.00" fill="#666666">[varchar]</text>
<polygon fill="none" stroke="#000000" points="503,-282.5 503,-312.5 823,-312.5 823,-282.5 503,-282.5"/>
<text text-anchor="start" x="510" y="-293.9" font-family="Arial" font-size="14.00" fill="#000000">created_at    </text>
<text text-anchor="start" x="610.3422" y="-293.9" font-family="Arial" font-size="14.00" fill="#666666">[timestamp(6) without time zone]</text>
<polygon fill="none" stroke="#000000" points="503,-252.5 503,-282.5 823,-282.5 823,-252.5 503,-252.5"/>
<text text-anchor="start" x="509.7546" y="-263.9" font-family="Arial" font-size="14.00" fill="#000000">updated_at    </text>
<text text-anchor="start" x="614.0014" y="-263.9" font-family="Arial" font-size="14.00" fill="#666666">[timestamp(6) without time zone]</text>
<polygon fill="none" stroke="#000000" points="503,-222.5 503,-252.5 823,-252.5 823,-222.5 503,-222.5"/>
<text text-anchor="start" x="510" y="-233.9" font-family="Arial" font-size="14.00" fill="#000000">embedding    </text>
<text text-anchor="start" x="613.4502" y="-233.9" font-family="Arial" font-size="14.00" fill="#666666">[boolean]</text>
<polygon fill="none" stroke="#000000" points="503,-192.5 503,-222.5 823,-222.5 823,-192.5 503,-192.5"/>
<text text-anchor="start" x="510" y="-203.9" font-family="Arial" font-size="14.00" fill="#000000">provisioned    </text>
<text text-anchor="start" x="615.7742" y="-203.9" font-family="Arial" font-size="14.00" fill="#666666">[boolean]</text>
<polygon fill="none" stroke="#000000" points="503,-162.5 503,-192.5 823,-192.5 823,-162.5 503,-162.5"/>
<text text-anchor="start" x="510" y="-173.9" font-family="Arial" font-size="14.00" fill="#000000">available    </text>
<text text-anchor="start" x="599.4376" y="-173.9" font-family="Arial" font-size="14.00" fill="#666666">[boolean]</text>
<polygon fill="none" stroke="#000000" points="503,-132.5 503,-162.5 823,-162.5 823,-132.5 503,-132.5"/>
<text text-anchor="start" x="510" y="-143.9" font-family="Arial" font-size="14.00" fill="#000000">api_version    </text>
<text text-anchor="start" x="615.7742" y="-143.9" font-family="Arial" font-size="14.00" fill="#666666">[varchar]</text>
<polygon fill="none" stroke="#000000" points="503,-102.5 503,-132.5 823,-132.5 823,-102.5 503,-102.5"/>
<text text-anchor="start" x="510" y="-113.9" font-family="Arial" font-size="14.00" fill="#000000">model_server_id    </text>
<text text-anchor="start" x="647.6606" y="-113.9" font-family="Arial" font-size="14.00" fill="#666666">[bigint]</text>
<polygon fill="none" stroke="#000000" points="503,-72.5 503,-102.5 823,-102.5 823,-72.5 503,-72.5"/>
<text text-anchor="start" x="510" y="-83.9" font-family="Arial" font-size="14.00" fill="#000000">distance_min    </text>
<text text-anchor="start" x="626.6648" y="-83.9" font-family="Arial" font-size="14.00" fill="#666666">[double precision]</text>
<polygon fill="none" stroke="#000000" points="503,-42.5 503,-72.5 823,-72.5 823,-42.5 503,-42.5"/>
<text text-anchor="start" x="510" y="-53.9" font-family="Arial" font-size="14.00" fill="#000000">distance_max    </text>
<text text-anchor="start" x="630.5582" y="-53.9" font-family="Arial" font-size="14.00" fill="#666666">[double precision]</text>
</g>
<!-- public.collections&#45;&gt;public.model_configs -->
<g id="edge4" class="edge">
<title>public.collections:embedding_model_id&#45;&gt;public.model_configs:id</title>
<path fill="none" stroke="#000000" d="M818.4104,-786.9485C959.8699,-771.7493 970.713,-447.5 823,-447.5"/>
<polygon fill="#000000" stroke="#000000" points="817.986,-786.9708 807.7619,-783.0063 812.993,-787.2354 808,-787.5 808,-787.5 808,-787.5 812.993,-787.2354 808.2381,-791.9937 817.986,-786.9708 817.986,-786.9708"/>
<text text-anchor="start" x="814.9295" y="-797.5" font-family="Arial" font-size="10.00" fill="#000000">FOREIGN KEY (embedding_model_id) REFERENCES model_configs(id)</text>
</g>
<!-- public.documents -->
<g id="node2" class="node">
<title>public.documents</title>
<polygon fill="#efefef" stroke="transparent" points="43,-1442.5 43,-1477.5 363,-1477.5 363,-1442.5 43,-1442.5"/>
<polygon fill="none" stroke="#000000" points="43,-1442.5 43,-1477.5 363,-1477.5 363,-1442.5 43,-1442.5"/>
<text text-anchor="start" x="69.1987" y="-1455.3" font-family="Arial Bold" font-size="18.00" fill="#000000">public.documents</text>
<text text-anchor="start" x="209.2333" y="-1455.3" font-family="Arial" font-size="14.00" fill="#000000">    </text>
<text text-anchor="start" x="243.4381" y="-1455.3" font-family="Arial" font-size="14.00" fill="#666666">[BASE TABLE]</text>
<polygon fill="none" stroke="#000000" points="43,-1412.5 43,-1442.5 363,-1442.5 363,-1412.5 43,-1412.5"/>
<text text-anchor="start" x="50" y="-1423.9" font-family="Arial" font-size="14.00" fill="#000000">id    </text>
<text text-anchor="start" x="95.094" y="-1423.9" font-family="Arial" font-size="14.00" fill="#666666">[bigint]</text>
<polygon fill="none" stroke="#000000" points="43,-1382.5 43,-1412.5 363,-1412.5 363,-1382.5 43,-1382.5"/>
<text text-anchor="start" x="50" y="-1393.9" font-family="Arial" font-size="14.00" fill="#000000">collection_id    </text>
<text text-anchor="start" x="161.2174" y="-1393.9" font-family="Arial" font-size="14.00" fill="#666666">[bigint]</text>
<polygon fill="none" stroke="#000000" points="43,-1352.5 43,-1382.5 363,-1382.5 363,-1352.5 43,-1352.5"/>
<text text-anchor="start" x="50" y="-1363.9" font-family="Arial" font-size="14.00" fill="#000000">user_id    </text>
<text text-anchor="start" x="130.1024" y="-1363.9" font-family="Arial" font-size="14.00" fill="#666666">[bigint]</text>
<polygon fill="none" stroke="#000000" points="43,-1322.5 43,-1352.5 363,-1352.5 363,-1322.5 43,-1322.5"/>
<text text-anchor="start" x="50" y="-1333.9" font-family="Arial" font-size="14.00" fill="#000000">filename    </text>
<text text-anchor="start" x="137.0996" y="-1333.9" font-family="Arial" font-size="14.00" fill="#666666">[varchar]</text>
<polygon fill="none" stroke="#000000" points="43,-1292.5 43,-1322.5 363,-1322.5 363,-1292.5 43,-1292.5"/>
<text text-anchor="start" x="50" y="-1303.9" font-family="Arial" font-size="14.00" fill="#000000">created_at    </text>
<text text-anchor="start" x="150.3422" y="-1303.9" font-family="Arial" font-size="14.00" fill="#666666">[timestamp(6) without time zone]</text>
<polygon fill="none" stroke="#000000" points="43,-1262.5 43,-1292.5 363,-1292.5 363,-1262.5 43,-1262.5"/>
<text text-anchor="start" x="49.7546" y="-1273.9" font-family="Arial" font-size="14.00" fill="#000000">updated_at    </text>
<text text-anchor="start" x="154.0014" y="-1273.9" font-family="Arial" font-size="14.00" fill="#666666">[timestamp(6) without time zone]</text>
<polygon fill="none" stroke="#000000" points="43,-1232.5 43,-1262.5 363,-1262.5 363,-1232.5 43,-1232.5"/>
<text text-anchor="start" x="50" y="-1243.9" font-family="Arial" font-size="14.00" fill="#000000">state    </text>
<text text-anchor="start" x="114.5512" y="-1243.9" font-family="Arial" font-size="14.00" fill="#666666">[integer]</text>
<polygon fill="none" stroke="#000000" points="43,-1202.5 43,-1232.5 363,-1232.5 363,-1202.5 43,-1202.5"/>
<text text-anchor="start" x="50" y="-1213.9" font-family="Arial" font-size="14.00" fill="#000000">vector_id    </text>
<text text-anchor="start" x="140.993" y="-1213.9" font-family="Arial" font-size="14.00" fill="#666666">[varchar]</text>
<polygon fill="none" stroke="#000000" points="43,-1172.5 43,-1202.5 363,-1202.5 363,-1172.5 43,-1172.5"/>
<text text-anchor="start" x="50" y="-1183.9" font-family="Arial" font-size="14.00" fill="#000000">chunking_profile_id    </text>
<text text-anchor="start" x="204.791" y="-1183.9" font-family="Arial" font-size="14.00" fill="#666666">[bigint]</text>
<polygon fill="none" stroke="#000000" points="43,-1142.5 43,-1172.5 363,-1172.5 363,-1142.5 43,-1142.5"/>
<text text-anchor="start" x="50" y="-1153.9" font-family="Arial" font-size="14.00" fill="#000000">stop_jobs    </text>
<text text-anchor="start" x="144.115" y="-1153.9" font-family="Arial" font-size="14.00" fill="#666666">[boolean]</text>
<polygon fill="none" stroke="#000000" points="43,-1112.5 43,-1142.5 363,-1142.5 363,-1112.5 43,-1112.5"/>
<text text-anchor="start" x="50" y="-1123.9" font-family="Arial" font-size="14.00" fill="#000000">error_message    </text>
<text text-anchor="start" x="178.3254" y="-1123.9" font-family="Arial" font-size="14.00" fill="#666666">[varchar]</text>
</g>
<!-- public.documents&#45;&gt;public.collections -->
<g id="edge1" class="edge">
<title>public.documents:collection_id&#45;&gt;public.collections:id</title>
<path fill="none" stroke="#000000" d="M372.9263,-1395.6937C431.9001,-1372.5784 387.1173,-1134.3067 415,-1070 444.6718,-1001.5669 443.4111,-937.5 518,-937.5"/>
<polygon fill="#000000" stroke="#000000" points="372.8384,-1395.7097 362.1943,-1393.0727 367.9192,-1396.6048 363,-1397.5 363,-1397.5 363,-1397.5 367.9192,-1396.6048 363.8057,-1401.9273 372.8384,-1395.7097 372.8384,-1395.7097"/>
<text text-anchor="start" x="370.1095" y="-1407.5" font-family="Arial" font-size="10.00" fill="#000000">FOREIGN KEY (collection_id) REFERENCES collections(id)</text>
</g>
<!-- public.conversation_collections -->
<g id="node3" class="node">
<title>public.conversation_collections</title>
<polygon fill="#efefef" stroke="transparent" points="468,-1352.5 468,-1387.5 857,-1387.5 857,-1352.5 468,-1352.5"/>
<polygon fill="none" stroke="#000000" points="468,-1352.5 468,-1387.5 857,-1387.5 857,-1352.5 468,-1352.5"/>
<text text-anchor="start" x="474.6906" y="-1365.3" font-family="Arial Bold" font-size="18.00" fill="#000000">public.conversation_collections</text>
<text text-anchor="start" x="722.7414" y="-1365.3" font-family="Arial" font-size="14.00" fill="#000000">    </text>
<text text-anchor="start" x="756.9462" y="-1365.3" font-family="Arial" font-size="14.00" fill="#666666">[BASE TABLE]</text>
<polygon fill="none" stroke="#000000" points="468,-1322.5 468,-1352.5 857,-1352.5 857,-1322.5 468,-1322.5"/>
<text text-anchor="start" x="475" y="-1333.9" font-family="Arial" font-size="14.00" fill="#000000">id    </text>
<text text-anchor="start" x="520.094" y="-1333.9" font-family="Arial" font-size="14.00" fill="#666666">[bigint]</text>
<polygon fill="none" stroke="#000000" points="468,-1292.5 468,-1322.5 857,-1322.5 857,-1292.5 468,-1292.5"/>
<text text-anchor="start" x="475" y="-1303.9" font-family="Arial" font-size="14.00" fill="#000000">conversation_id    </text>
<text text-anchor="start" x="607.23" y="-1303.9" font-family="Arial" font-size="14.00" fill="#666666">[bigint]</text>
<polygon fill="none" stroke="#000000" points="468,-1262.5 468,-1292.5 857,-1292.5 857,-1262.5 468,-1262.5"/>
<text text-anchor="start" x="475" y="-1273.9" font-family="Arial" font-size="14.00" fill="#000000">collection_id    </text>
<text text-anchor="start" x="586.2174" y="-1273.9" font-family="Arial" font-size="14.00" fill="#666666">[bigint]</text>
<polygon fill="none" stroke="#000000" points="468,-1232.5 468,-1262.5 857,-1262.5 857,-1232.5 468,-1232.5"/>
<text text-anchor="start" x="475" y="-1243.9" font-family="Arial" font-size="14.00" fill="#000000">created_at    </text>
<text text-anchor="start" x="575.3422" y="-1243.9" font-family="Arial" font-size="14.00" fill="#666666">[timestamp(6) without time zone]</text>
<polygon fill="none" stroke="#000000" points="468,-1202.5 468,-1232.5 857,-1232.5 857,-1202.5 468,-1202.5"/>
<text text-anchor="start" x="475" y="-1213.9" font-family="Arial" font-size="14.00" fill="#000000">updated_at    </text>
<text text-anchor="start" x="579.2468" y="-1213.9" font-family="Arial" font-size="14.00" fill="#666666">[timestamp(6) without time zone]</text>
</g>
<!-- public.conversation_collections&#45;&gt;public.collections -->
<g id="edge2" class="edge">
<title>public.conversation_collections:collection_id&#45;&gt;public.collections:id</title>
<path fill="none" stroke="#000000" d="M867.4217,-1276.3104C905.8544,-1266.5984 884.5957,-1199.697 857,-1160 765.2526,-1028.0195 609.7474,-1165.9805 518,-1034 493.5194,-998.7841 475.1111,-937.5 518,-937.5"/>
<polygon fill="#000000" stroke="#000000" points="866.9355,-1276.3658 856.4896,-1273.029 861.9677,-1276.9329 857,-1277.5 857,-1277.5 857,-1277.5 861.9677,-1276.9329 857.5104,-1281.971 866.9355,-1276.3658 866.9355,-1276.3658"/>
<text text-anchor="start" x="864.1095" y="-1287.5" font-family="Arial" font-size="10.00" fill="#000000">FOREIGN KEY (collection_id) REFERENCES collections(id)</text>
</g>
<!-- public.graph_entities -->
<g id="node4" class="node">
<title>public.graph_entities</title>
<polygon fill="#efefef" stroke="transparent" points="961,-1412.5 961,-1447.5 1281,-1447.5 1281,-1412.5 961,-1412.5"/>
<polygon fill="none" stroke="#000000" points="961,-1412.5 961,-1447.5 1281,-1447.5 1281,-1412.5 961,-1412.5"/>
<text text-anchor="start" x="974.6941" y="-1425.3" font-family="Arial Bold" font-size="18.00" fill="#000000">public.graph_entities</text>
<text text-anchor="start" x="1139.7379" y="-1425.3" font-family="Arial" font-size="14.00" fill="#000000">    </text>
<text text-anchor="start" x="1173.9427" y="-1425.3" font-family="Arial" font-size="14.00" fill="#666666">[BASE TABLE]</text>
<polygon fill="none" stroke="#000000" points="961,-1382.5 961,-1412.5 1281,-1412.5 1281,-1382.5 961,-1382.5"/>
<text text-anchor="start" x="968" y="-1393.9" font-family="Arial" font-size="14.00" fill="#000000">id    </text>
<text text-anchor="start" x="1013.094" y="-1393.9" font-family="Arial" font-size="14.00" fill="#666666">[bigint]</text>
<polygon fill="none" stroke="#000000" points="961,-1352.5 961,-1382.5 1281,-1382.5 1281,-1352.5 961,-1352.5"/>
<text text-anchor="start" x="968" y="-1363.9" font-family="Arial" font-size="14.00" fill="#000000">name    </text>
<text text-anchor="start" x="1037.2132" y="-1363.9" font-family="Arial" font-size="14.00" fill="#666666">[varchar]</text>
<polygon fill="none" stroke="#000000" points="961,-1322.5 961,-1352.5 1281,-1352.5 1281,-1322.5 961,-1322.5"/>
<text text-anchor="start" x="968" y="-1333.9" font-family="Arial" font-size="14.00" fill="#000000">entity_type    </text>
<text text-anchor="start" x="1069.8962" y="-1333.9" font-family="Arial" font-size="14.00" fill="#666666">[varchar]</text>
<polygon fill="none" stroke="#000000" points="961,-1292.5 961,-1322.5 1281,-1322.5 1281,-1292.5 961,-1292.5"/>
<text text-anchor="start" x="968" y="-1303.9" font-family="Arial" font-size="14.00" fill="#000000">collection_id    </text>
<text text-anchor="start" x="1079.2174" y="-1303.9" font-family="Arial" font-size="14.00" fill="#666666">[bigint]</text>
<polygon fill="none" stroke="#000000" points="961,-1262.5 961,-1292.5 1281,-1292.5 1281,-1262.5 961,-1262.5"/>
<text text-anchor="start" x="968" y="-1273.9" font-family="Arial" font-size="14.00" fill="#000000">summary    </text>
<text text-anchor="start" x="1059.7518" y="-1273.9" font-family="Arial" font-size="14.00" fill="#666666">[varchar]</text>
<polygon fill="none" stroke="#000000" points="961,-1232.5 961,-1262.5 1281,-1262.5 1281,-1232.5 961,-1232.5"/>
<text text-anchor="start" x="968" y="-1243.9" font-family="Arial" font-size="14.00" fill="#000000">summary_outdated    </text>
<text text-anchor="start" x="1122.0112" y="-1243.9" font-family="Arial" font-size="14.00" fill="#666666">[boolean]</text>
<polygon fill="none" stroke="#000000" points="961,-1202.5 961,-1232.5 1281,-1232.5 1281,-1202.5 961,-1202.5"/>
<text text-anchor="start" x="968" y="-1213.9" font-family="Arial" font-size="14.00" fill="#000000">created_at    </text>
<text text-anchor="start" x="1068.3422" y="-1213.9" font-family="Arial" font-size="14.00" fill="#666666">[timestamp(6) without time zone]</text>
<polygon fill="none" stroke="#000000" points="961,-1172.5 961,-1202.5 1281,-1202.5 1281,-1172.5 961,-1172.5"/>
<text text-anchor="start" x="967.7546" y="-1183.9" font-family="Arial" font-size="14.00" fill="#000000">updated_at    </text>
<text text-anchor="start" x="1072.0014" y="-1183.9" font-family="Arial" font-size="14.00" fill="#666666">[timestamp(6) without time zone]</text>
<polygon fill="none" stroke="#000000" points="961,-1142.5 961,-1172.5 1281,-1172.5 1281,-1142.5 961,-1142.5"/>
<text text-anchor="start" x="968" y="-1153.9" font-family="Arial" font-size="14.00" fill="#000000">vector_id    </text>
<text text-anchor="start" x="1058.993" y="-1153.9" font-family="Arial" font-size="14.00" fill="#666666">[varchar]</text>
</g>
<!-- public.graph_entities&#45;&gt;public.collections -->
<g id="edge3" class="edge">
<title>public.graph_entities:collection_id&#45;&gt;public.collections:id</title>
<path fill="none" stroke="#000000" d="M950.9164,-1307.0455C859.5182,-1298.2862 952.8747,-1164.8083 909,-1070 877.9017,-1002.8002 882.0467,-937.5 808,-937.5"/>
<polygon fill="#000000" stroke="#000000" points="951.0101,-1307.0496 960.7973,-1311.9954 956.0051,-1307.2748 961,-1307.5 961,-1307.5 961,-1307.5 956.0051,-1307.2748 961.2027,-1303.0046 951.0101,-1307.0496 951.0101,-1307.0496"/>
<text text-anchor="start" x="968.1095" y="-1317.5" font-family="Arial" font-size="10.00" fill="#000000">FOREIGN KEY (collection_id) REFERENCES collections(id)</text>
</g>
</g>
</svg>
