<?xml version="1.0" encoding="UTF-8" standalone="no"?>
<!DOCTYPE svg PUBLIC "-//W3C//DTD SVG 1.1//EN"
 "http://www.w3.org/Graphics/SVG/1.1/DTD/svg11.dtd">
<!-- Generated by graphviz version 2.40.1 (20161225.0304)
 -->
<!-- Title: public.messages Pages: 1 -->
<svg width="724pt" height="1259pt"
 viewBox="0.00 0.00 724.00 1259.00" xmlns="http://www.w3.org/2000/svg" xmlns:xlink="http://www.w3.org/1999/xlink">
<g id="graph0" class="graph" transform="scale(1 1) rotate(0) translate(4 1255)">
<title>public.messages</title>
<polygon fill="#ffffff" stroke="transparent" points="-4,4 -4,-1255 720,-1255 720,4 -4,4"/>
<!-- public.messages -->
<g id="node1" class="node">
<title>public.messages</title>
<polygon fill="#efefef" stroke="transparent" points="95,-802.5 95,-837.5 385,-837.5 385,-802.5 95,-802.5"/>
<polygon fill="none" stroke="#000000" points="95,-802.5 95,-837.5 385,-837.5 385,-802.5 95,-802.5"/>
<text text-anchor="start" x="109.2029" y="-815.3" font-family="Arial Bold" font-size="18.00" fill="#000000">public.messages</text>
<text text-anchor="start" x="243.2291" y="-815.3" font-family="Arial" font-size="14.00" fill="#000000">    </text>
<text text-anchor="start" x="277.4339" y="-815.3" font-family="Arial" font-size="14.00" fill="#666666">[BASE TABLE]</text>
<polygon fill="none" stroke="#000000" points="95,-772.5 95,-802.5 385,-802.5 385,-772.5 95,-772.5"/>
<text text-anchor="start" x="102" y="-783.9" font-family="Arial" font-size="14.00" fill="#000000">id </text>
<text text-anchor="start" x="116.7798" y="-783.9" font-family="Arial" font-size="14.00" fill="#666666">[bigint]</text>
<polygon fill="none" stroke="#000000" points="95,-742.5 95,-772.5 385,-772.5 385,-742.5 95,-742.5"/>
<text text-anchor="start" x="102" y="-753.9" font-family="Arial" font-size="14.00" fill="#000000">content </text>
<text text-anchor="start" x="151.8022" y="-753.9" font-family="Arial" font-size="14.00" fill="#666666">[varchar]</text>
<polygon fill="none" stroke="#000000" points="95,-712.5 95,-742.5 385,-742.5 385,-712.5 95,-712.5"/>
<text text-anchor="start" x="102" y="-723.9" font-family="Arial" font-size="14.00" fill="#000000">created_at </text>
<text text-anchor="start" x="172.028" y="-723.9" font-family="Arial" font-size="14.00" fill="#666666">[timestamp(6) without time zone]</text>
<polygon fill="none" stroke="#000000" points="95,-682.5 95,-712.5 385,-712.5 385,-682.5 95,-682.5"/>
<text text-anchor="start" x="101.9117" y="-693.9" font-family="Arial" font-size="14.00" fill="#000000">updated_at </text>
<text text-anchor="start" x="175.8443" y="-693.9" font-family="Arial" font-size="14.00" fill="#666666">[timestamp(6) without time zone]</text>
<polygon fill="none" stroke="#000000" points="95,-652.5 95,-682.5 385,-682.5 385,-652.5 95,-652.5"/>
<text text-anchor="start" x="102" y="-663.9" font-family="Arial" font-size="14.00" fill="#000000">conversation_id </text>
<text text-anchor="start" x="203.9158" y="-663.9" font-family="Arial" font-size="14.00" fill="#666666">[bigint]</text>
<polygon fill="none" stroke="#000000" points="95,-622.5 95,-652.5 385,-652.5 385,-622.5 95,-622.5"/>
<text text-anchor="start" x="102" y="-633.9" font-family="Arial" font-size="14.00" fill="#000000">author_type </text>
<text text-anchor="start" x="179.8106" y="-633.9" font-family="Arial" font-size="14.00" fill="#666666">[varchar]</text>
<polygon fill="none" stroke="#000000" points="95,-592.5 95,-622.5 385,-622.5 385,-592.5 95,-592.5"/>
<text text-anchor="start" x="102" y="-603.9" font-family="Arial" font-size="14.00" fill="#000000">author_id </text>
<text text-anchor="start" x="164.244" y="-603.9" font-family="Arial" font-size="14.00" fill="#666666">[bigint]</text>
<polygon fill="none" stroke="#000000" points="95,-562.5 95,-592.5 385,-592.5 385,-562.5 95,-562.5"/>
<text text-anchor="start" x="102" y="-573.9" font-family="Arial" font-size="14.00" fill="#000000">statistics </text>
<text text-anchor="start" x="159.5582" y="-573.9" font-family="Arial" font-size="14.00" fill="#666666">[jsonb]</text>
<polygon fill="none" stroke="#000000" points="95,-532.5 95,-562.5 385,-562.5 385,-532.5 95,-532.5"/>
<text text-anchor="start" x="102" y="-543.9" font-family="Arial" font-size="14.00" fill="#000000">error </text>
<text text-anchor="start" x="135.4376" y="-543.9" font-family="Arial" font-size="14.00" fill="#666666">[jsonb]</text>
<polygon fill="none" stroke="#000000" points="95,-502.5 95,-532.5 385,-532.5 385,-502.5 95,-502.5"/>
<text text-anchor="start" x="102" y="-513.9" font-family="Arial" font-size="14.00" fill="#000000">prompt </text>
<text text-anchor="start" x="149.4502" y="-513.9" font-family="Arial" font-size="14.00" fill="#666666">[varchar]</text>
<polygon fill="none" stroke="#000000" points="95,-472.5 95,-502.5 385,-502.5 385,-472.5 95,-472.5"/>
<text text-anchor="start" x="102" y="-483.9" font-family="Arial" font-size="14.00" fill="#000000">raw_content </text>
<text text-anchor="start" x="182.1346" y="-483.9" font-family="Arial" font-size="14.00" fill="#666666">[varchar]</text>
<polygon fill="none" stroke="#000000" stroke-width="3" points="93.5,-471.5 93.5,-839.5 386.5,-839.5 386.5,-471.5 93.5,-471.5"/>
</g>
<!-- public.conversations -->
<g id="node3" class="node">
<title>public.conversations</title>
<polygon fill="#efefef" stroke="transparent" points="80,-312.5 80,-347.5 400,-347.5 400,-312.5 80,-312.5"/>
<polygon fill="none" stroke="#000000" points="80,-312.5 80,-347.5 400,-347.5 400,-312.5 80,-312.5"/>
<text text-anchor="start" x="94.6985" y="-325.3" font-family="Arial Bold" font-size="18.00" fill="#000000">public.conversations</text>
<text text-anchor="start" x="257.7335" y="-325.3" font-family="Arial" font-size="14.00" fill="#000000">    </text>
<text text-anchor="start" x="291.9383" y="-325.3" font-family="Arial" font-size="14.00" fill="#666666">[BASE TABLE]</text>
<polygon fill="none" stroke="#000000" points="80,-282.5 80,-312.5 400,-312.5 400,-282.5 80,-282.5"/>
<text text-anchor="start" x="87" y="-293.9" font-family="Arial" font-size="14.00" fill="#000000">id    </text>
<text text-anchor="start" x="132.094" y="-293.9" font-family="Arial" font-size="14.00" fill="#666666">[bigint]</text>
<polygon fill="none" stroke="#000000" points="80,-252.5 80,-282.5 400,-282.5 400,-252.5 80,-252.5"/>
<text text-anchor="start" x="87" y="-263.9" font-family="Arial" font-size="14.00" fill="#000000">user_id    </text>
<text text-anchor="start" x="167.1024" y="-263.9" font-family="Arial" font-size="14.00" fill="#666666">[bigint]</text>
<polygon fill="none" stroke="#000000" points="80,-222.5 80,-252.5 400,-252.5 400,-222.5 80,-222.5"/>
<text text-anchor="start" x="87" y="-233.9" font-family="Arial" font-size="14.00" fill="#000000">title    </text>
<text text-anchor="start" x="142.9818" y="-233.9" font-family="Arial" font-size="14.00" fill="#666666">[varchar]</text>
<polygon fill="none" stroke="#000000" points="80,-192.5 80,-222.5 400,-222.5 400,-192.5 80,-192.5"/>
<text text-anchor="start" x="87" y="-203.9" font-family="Arial" font-size="14.00" fill="#000000">created_at    </text>
<text text-anchor="start" x="187.3422" y="-203.9" font-family="Arial" font-size="14.00" fill="#666666">[timestamp(6) without time zone]</text>
<polygon fill="none" stroke="#000000" points="80,-162.5 80,-192.5 400,-192.5 400,-162.5 80,-162.5"/>
<text text-anchor="start" x="86.7546" y="-173.9" font-family="Arial" font-size="14.00" fill="#000000">updated_at    </text>
<text text-anchor="start" x="191.0014" y="-173.9" font-family="Arial" font-size="14.00" fill="#666666">[timestamp(6) without time zone]</text>
<polygon fill="none" stroke="#000000" points="80,-132.5 80,-162.5 400,-162.5 400,-132.5 80,-132.5"/>
<text text-anchor="start" x="87" y="-143.9" font-family="Arial" font-size="14.00" fill="#000000">model_config_id    </text>
<text text-anchor="start" x="223.1192" y="-143.9" font-family="Arial" font-size="14.00" fill="#666666">[bigint]</text>
<polygon fill="none" stroke="#000000" points="80,-102.5 80,-132.5 400,-132.5 400,-102.5 80,-102.5"/>
<text text-anchor="start" x="87" y="-113.9" font-family="Arial" font-size="14.00" fill="#000000">search_collections    </text>
<text text-anchor="start" x="236.3366" y="-113.9" font-family="Arial" font-size="14.00" fill="#666666">[boolean]</text>
<polygon fill="none" stroke="#000000" points="80,-72.5 80,-102.5 400,-102.5 400,-72.5 80,-72.5"/>
<text text-anchor="start" x="87" y="-83.9" font-family="Arial" font-size="14.00" fill="#000000">messages_count    </text>
<text text-anchor="start" x="227.0168" y="-83.9" font-family="Arial" font-size="14.00" fill="#666666">[integer]</text>
<polygon fill="none" stroke="#000000" points="80,-42.5 80,-72.5 400,-72.5 400,-42.5 80,-42.5"/>
<text text-anchor="start" x="87" y="-53.9" font-family="Arial" font-size="14.00" fill="#000000">source    </text>
<text text-anchor="start" x="163.2132" y="-53.9" font-family="Arial" font-size="14.00" fill="#666666">[integer]</text>
</g>
<!-- public.messages&#45;&gt;public.conversations -->
<g id="edge2" class="edge">
<title>public.messages:conversation_id&#45;&gt;public.conversations:id</title>
<path fill="none" stroke="#000000" d="M395.4002,-666.995C550.1412,-651.7723 561.0436,-297.5 400,-297.5"/>
<polygon fill="#000000" stroke="#000000" points="394.9882,-667.0149 384.7817,-663.0053 389.9941,-667.2575 385,-667.5 385,-667.5 385,-667.5 389.9941,-667.2575 385.2183,-671.9947 394.9882,-667.0149 394.9882,-667.0149"/>
<text text-anchor="start" x="392.1005" y="-677.5" font-family="Arial" font-size="10.00" fill="#000000">FOREIGN KEY (conversation_id) REFERENCES conversations(id)</text>
</g>
<!-- public.message_augmentations -->
<g id="node2" class="node">
<title>public.message_augmentations</title>
<polygon fill="#efefef" stroke="transparent" points="43,-1172.5 43,-1207.5 437,-1207.5 437,-1172.5 43,-1172.5"/>
<polygon fill="none" stroke="#000000" points="43,-1172.5 43,-1207.5 437,-1207.5 437,-1172.5 43,-1172.5"/>
<text text-anchor="start" x="49.6796" y="-1185.3" font-family="Arial Bold" font-size="18.00" fill="#000000">public.message_augmentations</text>
<text text-anchor="start" x="302.7524" y="-1185.3" font-family="Arial" font-size="14.00" fill="#000000">    </text>
<text text-anchor="start" x="336.9572" y="-1185.3" font-family="Arial" font-size="14.00" fill="#666666">[BASE TABLE]</text>
<polygon fill="none" stroke="#000000" points="43,-1142.5 43,-1172.5 437,-1172.5 437,-1142.5 43,-1142.5"/>
<text text-anchor="start" x="50" y="-1153.9" font-family="Arial" font-size="14.00" fill="#000000">id    </text>
<text text-anchor="start" x="95.094" y="-1153.9" font-family="Arial" font-size="14.00" fill="#666666">[bigint]</text>
<polygon fill="none" stroke="#000000" points="43,-1112.5 43,-1142.5 437,-1142.5 437,-1112.5 43,-1112.5"/>
<text text-anchor="start" x="50" y="-1123.9" font-family="Arial" font-size="14.00" fill="#000000">message_id    </text>
<text text-anchor="start" x="159.6676" y="-1123.9" font-family="Arial" font-size="14.00" fill="#666666">[bigint]</text>
<polygon fill="none" stroke="#000000" points="43,-1082.5 43,-1112.5 437,-1112.5 437,-1082.5 43,-1082.5"/>
<text text-anchor="start" x="50" y="-1093.9" font-family="Arial" font-size="14.00" fill="#000000">augmentation_type    </text>
<text text-anchor="start" x="203.2524" y="-1093.9" font-family="Arial" font-size="14.00" fill="#666666">[varchar]</text>
<polygon fill="none" stroke="#000000" points="43,-1052.5 43,-1082.5 437,-1082.5 437,-1052.5 43,-1052.5"/>
<text text-anchor="start" x="50" y="-1063.9" font-family="Arial" font-size="14.00" fill="#000000">augmentation_id    </text>
<text text-anchor="start" x="187.6858" y="-1063.9" font-family="Arial" font-size="14.00" fill="#666666">[bigint]</text>
<polygon fill="none" stroke="#000000" points="43,-1022.5 43,-1052.5 437,-1052.5 437,-1022.5 43,-1022.5"/>
<text text-anchor="start" x="50" y="-1033.9" font-family="Arial" font-size="14.00" fill="#000000">created_at    </text>
<text text-anchor="start" x="150.3422" y="-1033.9" font-family="Arial" font-size="14.00" fill="#666666">[timestamp(6) without time zone]</text>
<polygon fill="none" stroke="#000000" points="43,-992.5 43,-1022.5 437,-1022.5 437,-992.5 43,-992.5"/>
<text text-anchor="start" x="50" y="-1003.9" font-family="Arial" font-size="14.00" fill="#000000">updated_at    </text>
<text text-anchor="start" x="154.2468" y="-1003.9" font-family="Arial" font-size="14.00" fill="#666666">[timestamp(6) without time zone]</text>
<polygon fill="none" stroke="#000000" points="43,-962.5 43,-992.5 437,-992.5 437,-962.5 43,-962.5"/>
<text text-anchor="start" x="50" y="-973.9" font-family="Arial" font-size="14.00" fill="#000000">distance    </text>
<text text-anchor="start" x="136.3324" y="-973.9" font-family="Arial" font-size="14.00" fill="#666666">[double precision]</text>
</g>
<!-- public.message_augmentations&#45;&gt;public.messages -->
<g id="edge1" class="edge">
<title>public.message_augmentations:message_id&#45;&gt;public.messages:id</title>
<path fill="none" stroke="#000000" d="M446.9126,-1125.3288C508.5054,-1096.3721 457.8513,-787.5 385,-787.5"/>
<polygon fill="#000000" stroke="#000000" points="446.7684,-1125.3603 436.0372,-1123.1042 441.8842,-1126.4302 437,-1127.5 437,-1127.5 437,-1127.5 441.8842,-1126.4302 437.9628,-1131.8958 446.7684,-1125.3603 446.7684,-1125.3603"/>
<text text-anchor="start" x="444.2165" y="-1137.5" font-family="Arial" font-size="10.00" fill="#000000">FOREIGN KEY (message_id) REFERENCES messages(id)</text>
</g>
</g>
</svg>
