<?xml version="1.0" encoding="UTF-8" standalone="no"?>
<!DOCTYPE svg PUBLIC "-//W3C//DTD SVG 1.1//EN"
 "http://www.w3.org/Graphics/SVG/1.1/DTD/svg11.dtd">
<!-- Generated by graphviz version 2.40.1 (20161225.0304)
 -->
<!-- Title: public.model_configs Pages: 1 -->
<svg width="896pt" height="1499pt"
 viewBox="0.00 0.00 896.00 1499.00" xmlns="http://www.w3.org/2000/svg" xmlns:xlink="http://www.w3.org/1999/xlink">
<g id="graph0" class="graph" transform="scale(1 1) rotate(0) translate(4 1495)">
<title>public.model_configs</title>
<polygon fill="#ffffff" stroke="transparent" points="-4,4 -4,-1495 892,-1495 892,4 -4,4"/>
<!-- public.model_configs -->
<g id="node1" class="node">
<title>public.model_configs</title>
<polygon fill="#efefef" stroke="transparent" points="260,-922.5 260,-957.5 569,-957.5 569,-922.5 260,-922.5"/>
<polygon fill="none" stroke="#000000" points="260,-922.5 260,-957.5 569,-957.5 569,-922.5 260,-922.5"/>
<text text-anchor="start" x="266.6983" y="-935.3" font-family="Arial Bold" font-size="18.00" fill="#000000">public.model_configs</text>
<text text-anchor="start" x="434.7337" y="-935.3" font-family="Arial" font-size="14.00" fill="#000000">    </text>
<text text-anchor="start" x="468.9385" y="-935.3" font-family="Arial" font-size="14.00" fill="#666666">[BASE TABLE]</text>
<polygon fill="none" stroke="#000000" points="260,-892.5 260,-922.5 569,-922.5 569,-892.5 260,-892.5"/>
<text text-anchor="start" x="267" y="-903.9" font-family="Arial" font-size="14.00" fill="#000000">id </text>
<text text-anchor="start" x="281.7798" y="-903.9" font-family="Arial" font-size="14.00" fill="#666666">[bigint]</text>
<polygon fill="none" stroke="#000000" points="260,-862.5 260,-892.5 569,-892.5 569,-862.5 260,-862.5"/>
<text text-anchor="start" x="267" y="-873.9" font-family="Arial" font-size="14.00" fill="#000000">name </text>
<text text-anchor="start" x="305.899" y="-873.9" font-family="Arial" font-size="14.00" fill="#666666">[varchar]</text>
<polygon fill="none" stroke="#000000" points="260,-832.5 260,-862.5 569,-862.5 569,-832.5 260,-832.5"/>
<text text-anchor="start" x="267" y="-843.9" font-family="Arial" font-size="14.00" fill="#000000">model </text>
<text text-anchor="start" x="309.0056" y="-843.9" font-family="Arial" font-size="14.00" fill="#666666">[varchar]</text>
<polygon fill="none" stroke="#000000" points="260,-802.5 260,-832.5 569,-832.5 569,-802.5 260,-802.5"/>
<text text-anchor="start" x="267" y="-813.9" font-family="Arial" font-size="14.00" fill="#000000">temperature </text>
<text text-anchor="start" x="346.3492" y="-813.9" font-family="Arial" font-size="14.00" fill="#666666">[double precision]</text>
<polygon fill="none" stroke="#000000" points="260,-772.5 260,-802.5 569,-802.5 569,-772.5 260,-772.5"/>
<text text-anchor="start" x="267" y="-783.9" font-family="Arial" font-size="14.00" fill="#000000">system_prompt </text>
<text text-anchor="start" x="366.5666" y="-783.9" font-family="Arial" font-size="14.00" fill="#666666">[varchar]</text>
<polygon fill="none" stroke="#000000" points="260,-742.5 260,-772.5 569,-772.5 569,-742.5 260,-742.5"/>
<text text-anchor="start" x="267" y="-753.9" font-family="Arial" font-size="14.00" fill="#000000">created_at </text>
<text text-anchor="start" x="337.028" y="-753.9" font-family="Arial" font-size="14.00" fill="#666666">[timestamp(6) without time zone]</text>
<polygon fill="none" stroke="#000000" points="260,-712.5 260,-742.5 569,-742.5 569,-712.5 260,-712.5"/>
<text text-anchor="start" x="267" y="-723.9" font-family="Arial" font-size="14.00" fill="#000000">updated_at </text>
<text text-anchor="start" x="340.9326" y="-723.9" font-family="Arial" font-size="14.00" fill="#666666">[timestamp(6) without time zone]</text>
<polygon fill="none" stroke="#000000" points="260,-682.5 260,-712.5 569,-712.5 569,-682.5 260,-682.5"/>
<text text-anchor="start" x="267" y="-693.9" font-family="Arial" font-size="14.00" fill="#000000">embedding </text>
<text text-anchor="start" x="340.136" y="-693.9" font-family="Arial" font-size="14.00" fill="#666666">[boolean]</text>
<polygon fill="none" stroke="#000000" points="260,-652.5 260,-682.5 569,-682.5 569,-652.5 260,-652.5"/>
<text text-anchor="start" x="267" y="-663.9" font-family="Arial" font-size="14.00" fill="#000000">provisioned </text>
<text text-anchor="start" x="342.46" y="-663.9" font-family="Arial" font-size="14.00" fill="#666666">[boolean]</text>
<polygon fill="none" stroke="#000000" points="260,-622.5 260,-652.5 569,-652.5 569,-622.5 260,-622.5"/>
<text text-anchor="start" x="267" y="-633.9" font-family="Arial" font-size="14.00" fill="#000000">available </text>
<text text-anchor="start" x="326.1234" y="-633.9" font-family="Arial" font-size="14.00" fill="#666666">[boolean]</text>
<polygon fill="none" stroke="#000000" points="260,-592.5 260,-622.5 569,-622.5 569,-592.5 260,-592.5"/>
<text text-anchor="start" x="267" y="-603.9" font-family="Arial" font-size="14.00" fill="#000000">api_version </text>
<text text-anchor="start" x="342.46" y="-603.9" font-family="Arial" font-size="14.00" fill="#666666">[varchar]</text>
<polygon fill="none" stroke="#000000" points="260,-562.5 260,-592.5 569,-592.5 569,-562.5 260,-562.5"/>
<text text-anchor="start" x="267" y="-573.9" font-family="Arial" font-size="14.00" fill="#000000">model_server_id </text>
<text text-anchor="start" x="374.3464" y="-573.9" font-family="Arial" font-size="14.00" fill="#666666">[bigint]</text>
<polygon fill="none" stroke="#000000" points="260,-532.5 260,-562.5 569,-562.5 569,-532.5 260,-532.5"/>
<text text-anchor="start" x="267" y="-543.9" font-family="Arial" font-size="14.00" fill="#000000">distance_min </text>
<text text-anchor="start" x="353.3506" y="-543.9" font-family="Arial" font-size="14.00" fill="#666666">[double precision]</text>
<polygon fill="none" stroke="#000000" points="260,-502.5 260,-532.5 569,-532.5 569,-502.5 260,-502.5"/>
<text text-anchor="start" x="267" y="-513.9" font-family="Arial" font-size="14.00" fill="#000000">distance_max </text>
<text text-anchor="start" x="357.244" y="-513.9" font-family="Arial" font-size="14.00" fill="#666666">[double precision]</text>
<polygon fill="none" stroke="#000000" stroke-width="3" points="258,-501.5 258,-959.5 570,-959.5 570,-501.5 258,-501.5"/>
</g>
<!-- public.model_servers -->
<g id="node4" class="node">
<title>public.model_servers</title>
<polygon fill="#efefef" stroke="transparent" points="255,-342.5 255,-377.5 575,-377.5 575,-342.5 255,-342.5"/>
<polygon fill="none" stroke="#000000" points="255,-342.5 255,-377.5 575,-377.5 575,-342.5 255,-342.5"/>
<text text-anchor="start" x="266.2074" y="-355.3" font-family="Arial Bold" font-size="18.00" fill="#000000">public.model_servers</text>
<text text-anchor="start" x="436.2246" y="-355.3" font-family="Arial" font-size="14.00" fill="#000000">    </text>
<text text-anchor="start" x="470.4294" y="-355.3" font-family="Arial" font-size="14.00" fill="#666666">[BASE TABLE]</text>
<polygon fill="none" stroke="#000000" points="255,-312.5 255,-342.5 575,-342.5 575,-312.5 255,-312.5"/>
<text text-anchor="start" x="262" y="-323.9" font-family="Arial" font-size="14.00" fill="#000000">id    </text>
<text text-anchor="start" x="307.094" y="-323.9" font-family="Arial" font-size="14.00" fill="#666666">[bigint]</text>
<polygon fill="none" stroke="#000000" points="255,-282.5 255,-312.5 575,-312.5 575,-282.5 255,-282.5"/>
<text text-anchor="start" x="262" y="-293.9" font-family="Arial" font-size="14.00" fill="#000000">name    </text>
<text text-anchor="start" x="331.2132" y="-293.9" font-family="Arial" font-size="14.00" fill="#666666">[varchar]</text>
<polygon fill="none" stroke="#000000" points="255,-252.5 255,-282.5 575,-282.5 575,-252.5 255,-252.5"/>
<text text-anchor="start" x="262" y="-263.9" font-family="Arial" font-size="14.00" fill="#000000">url    </text>
<text text-anchor="start" x="311.7546" y="-263.9" font-family="Arial" font-size="14.00" fill="#666666">[varchar]</text>
<polygon fill="none" stroke="#000000" points="255,-222.5 255,-252.5 575,-252.5 575,-222.5 255,-222.5"/>
<text text-anchor="start" x="262" y="-233.9" font-family="Arial" font-size="14.00" fill="#000000">provider    </text>
<text text-anchor="start" x="346.763" y="-233.9" font-family="Arial" font-size="14.00" fill="#666666">[integer]</text>
<polygon fill="none" stroke="#000000" points="255,-192.5 255,-222.5 575,-222.5 575,-192.5 255,-192.5"/>
<text text-anchor="start" x="262" y="-203.9" font-family="Arial" font-size="14.00" fill="#000000">active    </text>
<text text-anchor="start" x="332.7672" y="-203.9" font-family="Arial" font-size="14.00" fill="#666666">[boolean]</text>
<polygon fill="none" stroke="#000000" points="255,-162.5 255,-192.5 575,-192.5 575,-162.5 255,-162.5"/>
<text text-anchor="start" x="262" y="-173.9" font-family="Arial" font-size="14.00" fill="#000000">created_at    </text>
<text text-anchor="start" x="362.3422" y="-173.9" font-family="Arial" font-size="14.00" fill="#666666">[timestamp(6) without time zone]</text>
<polygon fill="none" stroke="#000000" points="255,-132.5 255,-162.5 575,-162.5 575,-132.5 255,-132.5"/>
<text text-anchor="start" x="261.7546" y="-143.9" font-family="Arial" font-size="14.00" fill="#000000">updated_at    </text>
<text text-anchor="start" x="366.0014" y="-143.9" font-family="Arial" font-size="14.00" fill="#666666">[timestamp(6) without time zone]</text>
<polygon fill="none" stroke="#000000" points="255,-102.5 255,-132.5 575,-132.5 575,-102.5 255,-102.5"/>
<text text-anchor="start" x="262" y="-113.9" font-family="Arial" font-size="14.00" fill="#000000">provisioned    </text>
<text text-anchor="start" x="367.7742" y="-113.9" font-family="Arial" font-size="14.00" fill="#666666">[boolean]</text>
<polygon fill="none" stroke="#000000" points="255,-72.5 255,-102.5 575,-102.5 575,-72.5 255,-72.5"/>
<text text-anchor="start" x="262" y="-83.9" font-family="Arial" font-size="14.00" fill="#000000">available    </text>
<text text-anchor="start" x="351.4376" y="-83.9" font-family="Arial" font-size="14.00" fill="#666666">[boolean]</text>
<polygon fill="none" stroke="#000000" points="255,-42.5 255,-72.5 575,-72.5 575,-42.5 255,-42.5"/>
<text text-anchor="start" x="262" y="-53.9" font-family="Arial" font-size="14.00" fill="#000000">api_key    </text>
<text text-anchor="start" x="344.4418" y="-53.9" font-family="Arial" font-size="14.00" fill="#666666">[varchar]</text>
</g>
<!-- public.model_configs&#45;&gt;public.model_servers -->
<g id="edge3" class="edge">
<title>public.model_configs:model_server_id&#45;&gt;public.model_servers:id</title>
<path fill="none" stroke="#000000" d="M578.9984,-576.4097C620.0243,-566.6793 602.2107,-494.2359 569,-457 475.5007,-352.1685 348.4993,-525.8315 255,-421 227.3398,-389.9874 213.4444,-327.5 255,-327.5"/>
<polygon fill="#000000" stroke="#000000" points="578.9411,-576.4159 568.5121,-573.0265 573.9705,-576.9579 569,-577.5 569,-577.5 569,-577.5 573.9705,-576.9579 569.4879,-581.9735 578.9411,-576.4159 578.9411,-576.4159"/>
<text text-anchor="start" x="576.2215" y="-587.5" font-family="Arial" font-size="10.00" fill="#000000">FOREIGN KEY (model_server_id) REFERENCES model_servers(id)</text>
</g>
<!-- public.conversations -->
<g id="node2" class="node">
<title>public.conversations</title>
<polygon fill="#efefef" stroke="transparent" points="43,-1382.5 43,-1417.5 363,-1417.5 363,-1382.5 43,-1382.5"/>
<polygon fill="none" stroke="#000000" points="43,-1382.5 43,-1417.5 363,-1417.5 363,-1382.5 43,-1382.5"/>
<text text-anchor="start" x="57.6985" y="-1395.3" font-family="Arial Bold" font-size="18.00" fill="#000000">public.conversations</text>
<text text-anchor="start" x="220.7335" y="-1395.3" font-family="Arial" font-size="14.00" fill="#000000">    </text>
<text text-anchor="start" x="254.9383" y="-1395.3" font-family="Arial" font-size="14.00" fill="#666666">[BASE TABLE]</text>
<polygon fill="none" stroke="#000000" points="43,-1352.5 43,-1382.5 363,-1382.5 363,-1352.5 43,-1352.5"/>
<text text-anchor="start" x="50" y="-1363.9" font-family="Arial" font-size="14.00" fill="#000000">id    </text>
<text text-anchor="start" x="95.094" y="-1363.9" font-family="Arial" font-size="14.00" fill="#666666">[bigint]</text>
<polygon fill="none" stroke="#000000" points="43,-1322.5 43,-1352.5 363,-1352.5 363,-1322.5 43,-1322.5"/>
<text text-anchor="start" x="50" y="-1333.9" font-family="Arial" font-size="14.00" fill="#000000">user_id    </text>
<text text-anchor="start" x="130.1024" y="-1333.9" font-family="Arial" font-size="14.00" fill="#666666">[bigint]</text>
<polygon fill="none" stroke="#000000" points="43,-1292.5 43,-1322.5 363,-1322.5 363,-1292.5 43,-1292.5"/>
<text text-anchor="start" x="50" y="-1303.9" font-family="Arial" font-size="14.00" fill="#000000">title    </text>
<text text-anchor="start" x="105.9818" y="-1303.9" font-family="Arial" font-size="14.00" fill="#666666">[varchar]</text>
<polygon fill="none" stroke="#000000" points="43,-1262.5 43,-1292.5 363,-1292.5 363,-1262.5 43,-1262.5"/>
<text text-anchor="start" x="50" y="-1273.9" font-family="Arial" font-size="14.00" fill="#000000">created_at    </text>
<text text-anchor="start" x="150.3422" y="-1273.9" font-family="Arial" font-size="14.00" fill="#666666">[timestamp(6) without time zone]</text>
<polygon fill="none" stroke="#000000" points="43,-1232.5 43,-1262.5 363,-1262.5 363,-1232.5 43,-1232.5"/>
<text text-anchor="start" x="49.7546" y="-1243.9" font-family="Arial" font-size="14.00" fill="#000000">updated_at    </text>
<text text-anchor="start" x="154.0014" y="-1243.9" font-family="Arial" font-size="14.00" fill="#666666">[timestamp(6) without time zone]</text>
<polygon fill="none" stroke="#000000" points="43,-1202.5 43,-1232.5 363,-1232.5 363,-1202.5 43,-1202.5"/>
<text text-anchor="start" x="50" y="-1213.9" font-family="Arial" font-size="14.00" fill="#000000">model_config_id    </text>
<text text-anchor="start" x="186.1192" y="-1213.9" font-family="Arial" font-size="14.00" fill="#666666">[bigint]</text>
<polygon fill="none" stroke="#000000" points="43,-1172.5 43,-1202.5 363,-1202.5 363,-1172.5 43,-1172.5"/>
<text text-anchor="start" x="50" y="-1183.9" font-family="Arial" font-size="14.00" fill="#000000">search_collections    </text>
<text text-anchor="start" x="199.3366" y="-1183.9" font-family="Arial" font-size="14.00" fill="#666666">[boolean]</text>
<polygon fill="none" stroke="#000000" points="43,-1142.5 43,-1172.5 363,-1172.5 363,-1142.5 43,-1142.5"/>
<text text-anchor="start" x="50" y="-1153.9" font-family="Arial" font-size="14.00" fill="#000000">messages_count    </text>
<text text-anchor="start" x="190.0168" y="-1153.9" font-family="Arial" font-size="14.00" fill="#666666">[integer]</text>
<polygon fill="none" stroke="#000000" points="43,-1112.5 43,-1142.5 363,-1142.5 363,-1112.5 43,-1112.5"/>
<text text-anchor="start" x="50" y="-1123.9" font-family="Arial" font-size="14.00" fill="#000000">source    </text>
<text text-anchor="start" x="126.2132" y="-1123.9" font-family="Arial" font-size="14.00" fill="#666666">[integer]</text>
</g>
<!-- public.conversations&#45;&gt;public.model_configs -->
<g id="edge1" class="edge">
<title>public.conversations:model_config_id&#45;&gt;public.model_configs:id</title>
<path fill="none" stroke="#000000" d="M373.1988,-1216.6562C424.7012,-1207.4106 392.6741,-1124.258 363,-1070 336.9116,-1022.2984 286.0884,-1051.7016 260,-1004 239.4204,-966.371 217.1111,-907.5 260,-907.5"/>
<polygon fill="#000000" stroke="#000000" points="372.9659,-1216.6754 362.6289,-1213.0153 367.983,-1217.0877 363,-1217.5 363,-1217.5 363,-1217.5 367.983,-1217.0877 363.3711,-1221.9847 372.9659,-1216.6754 372.9659,-1216.6754"/>
<text text-anchor="start" x="370.3225" y="-1227.5" font-family="Arial" font-size="10.00" fill="#000000">FOREIGN KEY (model_config_id) REFERENCES model_configs(id)</text>
</g>
<!-- public.collections -->
<g id="node3" class="node">
<title>public.collections</title>
<polygon fill="#efefef" stroke="transparent" points="467,-1412.5 467,-1447.5 787,-1447.5 787,-1412.5 467,-1412.5"/>
<polygon fill="none" stroke="#000000" points="467,-1412.5 467,-1447.5 787,-1447.5 787,-1412.5 467,-1412.5"/>
<text text-anchor="start" x="495.2066" y="-1425.3" font-family="Arial Bold" font-size="18.00" fill="#000000">public.collections</text>
<text text-anchor="start" x="631.2254" y="-1425.3" font-family="Arial" font-size="14.00" fill="#000000">    </text>
<text text-anchor="start" x="665.4302" y="-1425.3" font-family="Arial" font-size="14.00" fill="#666666">[BASE TABLE]</text>
<polygon fill="none" stroke="#000000" points="467,-1382.5 467,-1412.5 787,-1412.5 787,-1382.5 467,-1382.5"/>
<text text-anchor="start" x="474" y="-1393.9" font-family="Arial" font-size="14.00" fill="#000000">id    </text>
<text text-anchor="start" x="519.094" y="-1393.9" font-family="Arial" font-size="14.00" fill="#666666">[bigint]</text>
<polygon fill="none" stroke="#000000" points="467,-1352.5 467,-1382.5 787,-1382.5 787,-1352.5 467,-1352.5"/>
<text text-anchor="start" x="474" y="-1363.9" font-family="Arial" font-size="14.00" fill="#000000">name    </text>
<text text-anchor="start" x="543.2132" y="-1363.9" font-family="Arial" font-size="14.00" fill="#666666">[varchar]</text>
<polygon fill="none" stroke="#000000" points="467,-1322.5 467,-1352.5 787,-1352.5 787,-1322.5 467,-1322.5"/>
<text text-anchor="start" x="474" y="-1333.9" font-family="Arial" font-size="14.00" fill="#000000">slug    </text>
<text text-anchor="start" x="533.8766" y="-1333.9" font-family="Arial" font-size="14.00" fill="#666666">[varchar]</text>
<polygon fill="none" stroke="#000000" points="467,-1292.5 467,-1322.5 787,-1322.5 787,-1292.5 467,-1292.5"/>
<text text-anchor="start" x="474" y="-1303.9" font-family="Arial" font-size="14.00" fill="#000000">created_at    </text>
<text text-anchor="start" x="574.3422" y="-1303.9" font-family="Arial" font-size="14.00" fill="#666666">[timestamp(6) without time zone]</text>
<polygon fill="none" stroke="#000000" points="467,-1262.5 467,-1292.5 787,-1292.5 787,-1262.5 467,-1262.5"/>
<text text-anchor="start" x="473.7546" y="-1273.9" font-family="Arial" font-size="14.00" fill="#000000">updated_at    </text>
<text text-anchor="start" x="578.0014" y="-1273.9" font-family="Arial" font-size="14.00" fill="#666666">[timestamp(6) without time zone]</text>
<polygon fill="none" stroke="#000000" points="467,-1232.5 467,-1262.5 787,-1262.5 787,-1232.5 467,-1232.5"/>
<text text-anchor="start" x="474" y="-1243.9" font-family="Arial" font-size="14.00" fill="#000000">embedding_model_id    </text>
<text text-anchor="start" x="642.0196" y="-1243.9" font-family="Arial" font-size="14.00" fill="#666666">[bigint]</text>
<polygon fill="none" stroke="#000000" points="467,-1202.5 467,-1232.5 787,-1232.5 787,-1202.5 467,-1202.5"/>
<text text-anchor="start" x="474" y="-1213.9" font-family="Arial" font-size="14.00" fill="#000000">graph_enabled    </text>
<text text-anchor="start" x="601.5806" y="-1213.9" font-family="Arial" font-size="14.00" fill="#666666">[boolean]</text>
<polygon fill="none" stroke="#000000" points="467,-1172.5 467,-1202.5 787,-1202.5 787,-1172.5 467,-1172.5"/>
<text text-anchor="start" x="474" y="-1183.9" font-family="Arial" font-size="14.00" fill="#000000">state    </text>
<text text-anchor="start" x="538.5512" y="-1183.9" font-family="Arial" font-size="14.00" fill="#666666">[integer]</text>
<polygon fill="none" stroke="#000000" points="467,-1142.5 467,-1172.5 787,-1172.5 787,-1142.5 467,-1142.5"/>
<text text-anchor="start" x="474" y="-1153.9" font-family="Arial" font-size="14.00" fill="#000000">process_step    </text>
<text text-anchor="start" x="591.4516" y="-1153.9" font-family="Arial" font-size="14.00" fill="#666666">[integer]</text>
<polygon fill="none" stroke="#000000" points="467,-1112.5 467,-1142.5 787,-1142.5 787,-1112.5 467,-1112.5"/>
<text text-anchor="start" x="474" y="-1123.9" font-family="Arial" font-size="14.00" fill="#000000">process_steps    </text>
<text text-anchor="start" x="598.4516" y="-1123.9" font-family="Arial" font-size="14.00" fill="#666666">[integer]</text>
<polygon fill="none" stroke="#000000" points="467,-1082.5 467,-1112.5 787,-1112.5 787,-1082.5 467,-1082.5"/>
<text text-anchor="start" x="474" y="-1093.9" font-family="Arial" font-size="14.00" fill="#000000">stop_jobs    </text>
<text text-anchor="start" x="568.115" y="-1093.9" font-family="Arial" font-size="14.00" fill="#666666">[boolean]</text>
</g>
<!-- public.collections&#45;&gt;public.model_configs -->
<g id="edge2" class="edge">
<title>public.collections:embedding_model_id&#45;&gt;public.model_configs:id</title>
<path fill="none" stroke="#000000" d="M457.3658,-1244.5339C423.9761,-1221.7667 442.4482,-1074.7015 467,-1040 494.7662,-1000.7553 541.2338,-1043.2447 569,-1004 593.7714,-968.9881 611.8889,-907.5 569,-907.5"/>
<polygon fill="#000000" stroke="#000000" points="457.4427,-1244.5575 465.6759,-1251.8008 462.2214,-1246.0287 467,-1247.5 467,-1247.5 467,-1247.5 462.2214,-1246.0287 468.3241,-1243.1992 457.4427,-1244.5575 457.4427,-1244.5575"/>
<text text-anchor="start" x="473.9295" y="-1257.5" font-family="Arial" font-size="10.00" fill="#000000">FOREIGN KEY (embedding_model_id) REFERENCES model_configs(id)</text>
</g>
</g>
</svg>
