<?xml version="1.0" encoding="UTF-8" standalone="no"?>
<!DOCTYPE svg PUBLIC "-//W3C//DTD SVG 1.1//EN"
 "http://www.w3.org/Graphics/SVG/1.1/DTD/svg11.dtd">
<!-- Generated by graphviz version 2.40.1 (20161225.0304)
 -->
<!-- Title: public.motor_note_tag_tags Pages: 1 -->
<svg width="921pt" height="652pt"
 viewBox="0.00 0.00 921.00 652.00" xmlns="http://www.w3.org/2000/svg" xmlns:xlink="http://www.w3.org/1999/xlink">
<g id="graph0" class="graph" transform="scale(1 1) rotate(0) translate(4 648)">
<title>public.motor_note_tag_tags</title>
<polygon fill="#ffffff" stroke="transparent" points="-4,4 -4,-648 917,-648 917,4 -4,4"/>
<!-- public.motor_note_tag_tags -->
<g id="node1" class="node">
<title>public.motor_note_tag_tags</title>
<polygon fill="#efefef" stroke="transparent" points="282,-562.5 282,-597.5 645,-597.5 645,-562.5 282,-562.5"/>
<polygon fill="none" stroke="#000000" points="282,-562.5 282,-597.5 645,-597.5 645,-562.5 282,-562.5"/>
<text text-anchor="start" x="288.6776" y="-575.3" font-family="Arial Bold" font-size="18.00" fill="#000000">public.motor_note_tag_tags</text>
<text text-anchor="start" x="510.7544" y="-575.3" font-family="Arial" font-size="14.00" fill="#000000">    </text>
<text text-anchor="start" x="544.9592" y="-575.3" font-family="Arial" font-size="14.00" fill="#666666">[BASE TABLE]</text>
<polygon fill="none" stroke="#000000" points="282,-532.5 282,-562.5 645,-562.5 645,-532.5 282,-532.5"/>
<text text-anchor="start" x="289" y="-543.9" font-family="Arial" font-size="14.00" fill="#000000">id </text>
<text text-anchor="start" x="303.7798" y="-543.9" font-family="Arial" font-size="14.00" fill="#666666">[bigint]</text>
<polygon fill="none" stroke="#000000" points="282,-502.5 282,-532.5 645,-532.5 645,-502.5 282,-502.5"/>
<text text-anchor="start" x="289" y="-513.9" font-family="Arial" font-size="14.00" fill="#000000">tag_id </text>
<text text-anchor="start" x="331.0182" y="-513.9" font-family="Arial" font-size="14.00" fill="#666666">[bigint]</text>
<polygon fill="none" stroke="#000000" points="282,-472.5 282,-502.5 645,-502.5 645,-472.5 282,-472.5"/>
<text text-anchor="start" x="289" y="-483.9" font-family="Arial" font-size="14.00" fill="#000000">note_id </text>
<text text-anchor="start" x="338.8008" y="-483.9" font-family="Arial" font-size="14.00" fill="#666666">[bigint]</text>
<polygon fill="none" stroke="#000000" stroke-width="3" points="280,-471.5 280,-599.5 646,-599.5 646,-471.5 280,-471.5"/>
</g>
<!-- public.motor_note_tags -->
<g id="node2" class="node">
<title>public.motor_note_tags</title>
<polygon fill="#efefef" stroke="transparent" points="86,-237.5 86,-272.5 414,-272.5 414,-237.5 86,-237.5"/>
<polygon fill="none" stroke="#000000" points="86,-237.5 86,-272.5 414,-272.5 414,-237.5 86,-237.5"/>
<text text-anchor="start" x="92.688" y="-250.3" font-family="Arial Bold" font-size="18.00" fill="#000000">public.motor_note_tags</text>
<text text-anchor="start" x="279.744" y="-250.3" font-family="Arial" font-size="14.00" fill="#000000">    </text>
<text text-anchor="start" x="313.9488" y="-250.3" font-family="Arial" font-size="14.00" fill="#666666">[BASE TABLE]</text>
<polygon fill="none" stroke="#000000" points="86,-207.5 86,-237.5 414,-237.5 414,-207.5 86,-207.5"/>
<text text-anchor="start" x="93" y="-218.9" font-family="Arial" font-size="14.00" fill="#000000">id    </text>
<text text-anchor="start" x="138.094" y="-218.9" font-family="Arial" font-size="14.00" fill="#666666">[bigint]</text>
<polygon fill="none" stroke="#000000" points="86,-177.5 86,-207.5 414,-207.5 414,-177.5 86,-177.5"/>
<text text-anchor="start" x="93" y="-188.9" font-family="Arial" font-size="14.00" fill="#000000">name    </text>
<text text-anchor="start" x="162.2132" y="-188.9" font-family="Arial" font-size="14.00" fill="#666666">[varchar]</text>
<polygon fill="none" stroke="#000000" points="86,-147.5 86,-177.5 414,-177.5 414,-147.5 86,-147.5"/>
<text text-anchor="start" x="93" y="-158.9" font-family="Arial" font-size="14.00" fill="#000000">created_at    </text>
<text text-anchor="start" x="193.3422" y="-158.9" font-family="Arial" font-size="14.00" fill="#666666">[timestamp(6) without time zone]</text>
<polygon fill="none" stroke="#000000" points="86,-117.5 86,-147.5 414,-147.5 414,-117.5 86,-117.5"/>
<text text-anchor="start" x="93" y="-128.9" font-family="Arial" font-size="14.00" fill="#000000">updated_at    </text>
<text text-anchor="start" x="197.2468" y="-128.9" font-family="Arial" font-size="14.00" fill="#666666">[timestamp(6) without time zone]</text>
</g>
<!-- public.motor_note_tag_tags&#45;&gt;public.motor_note_tags -->
<g id="edge1" class="edge">
<title>public.motor_note_tag_tags:tag_id&#45;&gt;public.motor_note_tags:id</title>
<path fill="none" stroke="#000000" d="M271.967,-516.0207C246.2577,-507.1134 266.6788,-459.9019 282,-427 314.3578,-357.5124 381.6422,-385.4876 414,-316 431.5422,-278.3286 455.5556,-222.5 414,-222.5"/>
<polygon fill="#000000" stroke="#000000" points="272.107,-516.0412 281.3436,-521.9519 277.0535,-516.7706 282,-517.5 282,-517.5 282,-517.5 277.0535,-516.7706 282.6564,-513.0481 272.107,-516.0412 272.107,-516.0412"/>
<text text-anchor="start" x="6.82" y="-527.5" font-family="Arial" font-size="10.00" fill="#000000">FOREIGN KEY (tag_id) REFERENCES motor_note_tags(id)</text>
</g>
<!-- public.motor_notes -->
<g id="node3" class="node">
<title>public.motor_notes</title>
<polygon fill="#efefef" stroke="transparent" points="518,-312.5 518,-347.5 838,-347.5 838,-312.5 518,-312.5"/>
<polygon fill="none" stroke="#000000" points="518,-312.5 518,-347.5 838,-347.5 838,-312.5 518,-312.5"/>
<text text-anchor="start" x="538.1984" y="-325.3" font-family="Arial Bold" font-size="18.00" fill="#000000">public.motor_notes</text>
<text text-anchor="start" x="690.2336" y="-325.3" font-family="Arial" font-size="14.00" fill="#000000">    </text>
<text text-anchor="start" x="724.4384" y="-325.3" font-family="Arial" font-size="14.00" fill="#666666">[BASE TABLE]</text>
<polygon fill="none" stroke="#000000" points="518,-282.5 518,-312.5 838,-312.5 838,-282.5 518,-282.5"/>
<text text-anchor="start" x="525" y="-293.9" font-family="Arial" font-size="14.00" fill="#000000">id    </text>
<text text-anchor="start" x="570.094" y="-293.9" font-family="Arial" font-size="14.00" fill="#666666">[bigint]</text>
<polygon fill="none" stroke="#000000" points="518,-252.5 518,-282.5 838,-282.5 838,-252.5 518,-252.5"/>
<text text-anchor="start" x="525" y="-263.9" font-family="Arial" font-size="14.00" fill="#000000">body    </text>
<text text-anchor="start" x="589.5526" y="-263.9" font-family="Arial" font-size="14.00" fill="#666666">[text]</text>
<polygon fill="none" stroke="#000000" points="518,-222.5 518,-252.5 838,-252.5 838,-222.5 518,-222.5"/>
<text text-anchor="start" x="525" y="-233.9" font-family="Arial" font-size="14.00" fill="#000000">author_id    </text>
<text text-anchor="start" x="617.5582" y="-233.9" font-family="Arial" font-size="14.00" fill="#666666">[bigint]</text>
<polygon fill="none" stroke="#000000" points="518,-192.5 518,-222.5 838,-222.5 838,-192.5 518,-192.5"/>
<text text-anchor="start" x="525" y="-203.9" font-family="Arial" font-size="14.00" fill="#000000">author_type    </text>
<text text-anchor="start" x="633.1248" y="-203.9" font-family="Arial" font-size="14.00" fill="#666666">[varchar]</text>
<polygon fill="none" stroke="#000000" points="518,-162.5 518,-192.5 838,-192.5 838,-162.5 518,-162.5"/>
<text text-anchor="start" x="525" y="-173.9" font-family="Arial" font-size="14.00" fill="#000000">record_id    </text>
<text text-anchor="start" x="617.5456" y="-173.9" font-family="Arial" font-size="14.00" fill="#666666">[varchar]</text>
<polygon fill="none" stroke="#000000" points="518,-132.5 518,-162.5 838,-162.5 838,-132.5 518,-132.5"/>
<text text-anchor="start" x="525" y="-143.9" font-family="Arial" font-size="14.00" fill="#000000">record_type    </text>
<text text-anchor="start" x="633.1122" y="-143.9" font-family="Arial" font-size="14.00" fill="#666666">[varchar]</text>
<polygon fill="none" stroke="#000000" points="518,-102.5 518,-132.5 838,-132.5 838,-102.5 518,-102.5"/>
<text text-anchor="start" x="525" y="-113.9" font-family="Arial" font-size="14.00" fill="#000000">deleted_at    </text>
<text text-anchor="start" x="624.5708" y="-113.9" font-family="Arial" font-size="14.00" fill="#666666">[timestamp(6) without time zone]</text>
<polygon fill="none" stroke="#000000" points="518,-72.5 518,-102.5 838,-102.5 838,-72.5 518,-72.5"/>
<text text-anchor="start" x="525" y="-83.9" font-family="Arial" font-size="14.00" fill="#000000">created_at    </text>
<text text-anchor="start" x="625.3422" y="-83.9" font-family="Arial" font-size="14.00" fill="#666666">[timestamp(6) without time zone]</text>
<polygon fill="none" stroke="#000000" points="518,-42.5 518,-72.5 838,-72.5 838,-42.5 518,-42.5"/>
<text text-anchor="start" x="524.7546" y="-53.9" font-family="Arial" font-size="14.00" fill="#000000">updated_at    </text>
<text text-anchor="start" x="629.0014" y="-53.9" font-family="Arial" font-size="14.00" fill="#666666">[timestamp(6) without time zone]</text>
</g>
<!-- public.motor_note_tag_tags&#45;&gt;public.motor_notes -->
<g id="edge2" class="edge">
<title>public.motor_note_tag_tags:note_id&#45;&gt;public.motor_notes:id</title>
<path fill="none" stroke="#000000" d="M654.9751,-484.856C668.4179,-475.7265 658.6812,-445.0983 645,-427 609.6215,-380.199 553.3785,-437.801 518,-391 492.9409,-357.8502 476.4444,-297.5 518,-297.5"/>
<polygon fill="#000000" stroke="#000000" points="654.6662,-484.9378 643.847,-483.1502 649.8331,-486.2189 645,-487.5 645,-487.5 645,-487.5 649.8331,-486.2189 646.153,-491.8498 654.6662,-484.9378 654.6662,-484.9378"/>
<text text-anchor="start" x="651.7685" y="-497.5" font-family="Arial" font-size="10.00" fill="#000000">FOREIGN KEY (note_id) REFERENCES motor_notes(id)</text>
</g>
</g>
</svg>
